<svg width="32" height="32" viewBox="0 0 32 32"  xmlns="http://www.w3.org/2000/svg">
<path d="M18.6376 22.9343L14.3401 16.9165H16C16.3461 16.9165 16.6638 16.7261 16.8268 16.4212C16.9898 16.1163 16.9714 15.7465 16.7801 15.459L12.7518 9.41645H14.125C14.4803 9.41645 14.8043 9.21595 14.9636 8.89826C15.122 8.58058 15.0881 8.20064 14.8748 7.91683L10.1873 0.354328C9.83394 -0.118109 9.04107 -0.118109 8.68769 0.354328L4.00019 7.91683C3.78688 8.20064 3.753 8.58058 3.91138 8.89826C4.07069 9.21595 4.39475 9.41645 4.75 9.41645H6.12332L2.095 15.459C1.90363 15.7465 1.88538 16.1163 2.04832 16.4212C2.21125 16.7261 2.52894 16.9165 2.87507 16.9165H4.53494L0.174941 22.9343C-0.0293093 23.2199 -0.0567468 23.5962 0.104378 23.9084C0.264566 24.2206 0.585941 24.4165 0.937503 24.4165H17.875C18.2266 24.4165 18.5479 24.2206 18.7081 23.9084C18.8693 23.5962 18.8418 23.2199 18.6376 22.9343Z" />
<path d="M31.0625 30.104H24.4375V26.2915H20.6875V30.104H11.3125V26.2915H7.5625V30.104H0.9375C0.419312 30.104 0 30.5233 0 31.0415C0 31.5597 0.419312 31.979 0.9375 31.979H31.0625C31.5807 31.979 32 31.5597 32 31.0415C32 30.5233 31.5807 30.104 31.0625 30.104Z" />
<path d="M31.8251 22.9341L27.4651 16.9164H29.125C29.4711 16.9165 29.7888 16.7261 29.9518 16.4212C30.1147 16.1163 30.0964 15.7465 29.9051 15.459L25.8768 9.41645H27.25C27.6053 9.41645 27.9293 9.21595 28.0886 8.89826C28.247 8.58058 28.2131 8.20064 27.9998 7.91683L23.3123 0.354328C22.959 -0.118109 22.1661 -0.118109 21.8127 0.354328L17.1252 7.91683C16.9119 8.20064 16.878 8.58058 17.0364 8.89826C17.1957 9.21595 17.5198 9.41645 17.875 9.41645H19.2483L17.1267 12.599L18.3401 14.4189C18.916 15.2841 18.97 16.39 18.4802 17.3046C18.2687 17.7011 17.9711 18.0316 17.6178 18.2806L20.1638 21.8447C20.7053 22.6029 20.807 23.5558 20.4986 24.4164H31.0625C31.4141 24.4164 31.7354 24.2205 31.8956 23.9083C32.0568 23.5961 32.0293 23.2198 31.8251 22.9341Z" />
</svg>
