<svg width="32" height="33" viewBox="0 0 32 33"  xmlns="http://www.w3.org/2000/svg">
<path d="M28.9361 6.45077C28.9544 6.43372 28.9737 6.41766 28.9939 6.40283C29.0414 6.37022 29.0935 6.34526 29.1488 6.32945C29.1679 6.32352 29.1859 6.31734 29.2067 6.31314C29.2252 6.30647 29.2442 6.30054 29.2635 6.29584C29.4137 6.28398 29.5622 6.25532 29.7065 6.21084C30.7317 5.91014 31.4304 4.85014 31.1799 3.98261C31.0704 3.63249 30.8251 3.34068 30.4987 3.17291C29.9857 2.911 29.3902 2.86208 28.8412 3.03652C28.0399 3.22949 27.4044 3.83856 27.1773 4.63097C27.1709 4.65914 27.162 4.68681 27.1514 4.7135C27.144 4.7476 27.1334 4.78095 27.1195 4.81307C27.098 4.85483 27.0713 4.89362 27.0402 4.92871C27.0269 4.94675 27.0123 4.96429 26.997 4.98085C26.9577 5.01692 26.913 5.04707 26.8645 5.0698C26.8472 5.08042 26.8292 5.08956 26.8107 5.09747C26.7657 5.11328 26.7185 5.12292 26.6708 5.12589C26.6486 5.13182 26.6258 5.13626 26.6031 5.13923H23.7619C23.2225 5.56051 22.9205 6.21702 22.9521 6.90071C22.9269 7.55549 23.2039 8.18532 23.7033 8.60907H26.6031C26.6248 8.61204 26.6466 8.61648 26.6678 8.62241C26.7037 8.62612 26.7393 8.63328 26.7736 8.64391C26.8104 8.65503 26.8457 8.6701 26.8789 8.68888C26.91 8.70543 26.9394 8.72495 26.9668 8.7467C26.995 8.77017 27.0209 8.79636 27.0439 8.82478C27.0671 8.8527 27.0876 8.88309 27.1052 8.91521C27.1232 8.94881 27.1376 8.98415 27.1479 9.02096C27.1568 9.03974 27.1645 9.05902 27.1709 9.07878C27.3733 9.80868 27.9544 10.372 28.6902 10.5517C29.2393 10.7256 29.8348 10.6757 30.3472 10.4131C30.6758 10.2445 30.9227 9.95125 31.0324 9.59865C31.2748 8.76177 30.6138 7.82951 29.5578 7.52139C29.4449 7.48952 29.3305 7.46358 29.2148 7.44381C28.9178 7.39464 28.7083 7.12556 28.733 6.8256C28.7456 6.71416 28.7928 6.6094 28.8679 6.52613C28.8882 6.49895 28.9111 6.47375 28.9361 6.45077Z" />
<path d="M21.7948 6.90074C21.7827 6.13329 22.0268 5.38362 22.4889 4.77085C19.6533 3.19616 17.1602 1.9123 15.0545 0.941249C14.7985 0.8266 14.4971 0.914563 14.3427 1.1488C13.8487 1.87796 13.0257 2.3148 12.1451 2.3153C11.6988 2.3106 11.261 2.19299 10.8726 1.97284C10.2872 3.06941 9.14938 3.75853 7.90654 3.76916C6.88088 3.76817 5.91279 3.29574 5.28074 2.48826C4.81795 2.84579 4.2499 3.0405 3.66504 3.04272C3.06141 3.04322 2.47606 2.83665 2.00635 2.45762C1.87564 2.35928 1.70935 2.32148 1.54899 2.35384C1.38863 2.38597 1.24977 2.48529 1.16724 2.62638C-0.348391 5.14346 -0.39089 8.28171 1.05654 10.8388C2.50398 13.3957 5.2165 14.9748 8.15461 14.9708C11.366 14.9708 19.2468 10.82 22.4936 9.03137C22.0298 8.41884 21.7839 7.66893 21.7948 6.90074ZM16.686 10.2285C13.9678 11.8645 10.9682 13.348 8.02786 13.348C6.33407 13.3588 4.68255 12.818 3.32332 11.8074C3.15604 11.6858 3.06635 11.4844 3.08809 11.2789C3.10959 11.0733 3.23931 10.8951 3.42809 10.8111C3.61686 10.7271 3.83627 10.7501 4.0033 10.8717C7.74618 13.5896 12.2155 11.5702 16.0903 9.23719C16.3636 9.0798 16.7125 9.16998 16.8748 9.4403C17.0374 9.71061 16.9534 10.0612 16.686 10.2285Z" />
<path d="M9.6003 19.2358C10.3949 20.2847 10.8921 21.5283 11.0386 22.8358C11.9269 22.1811 12.8539 21.5806 13.8146 21.0373C12.9607 19.7512 11.6912 18.7972 10.218 18.3349C9.98057 18.2702 9.72805 18.3628 9.58894 18.5659C9.44983 18.7688 9.45427 19.0376 9.6003 19.2358Z" />
<path d="M26.5747 20.2763C25.9634 21.4416 24.513 24.9504 27.1531 28.1166C28.9371 27.1891 30.5321 25.9361 31.8555 24.4224C32.0605 24.1899 32.0457 23.8371 31.8219 23.6226C30.3141 22.1675 28.5299 21.0297 26.5747 20.2763ZM28.3261 23.183C28.3201 23.2194 28.3088 23.2544 28.2917 23.2871C28.2789 23.3239 28.2613 23.3587 28.2398 23.3911L28.1704 23.4778C28.142 23.504 28.1109 23.5272 28.0777 23.5472C28.0483 23.5702 28.015 23.5878 27.9797 23.5994C27.9448 23.6169 27.9075 23.6288 27.8692 23.634C27.8331 23.6409 27.7966 23.6446 27.7597 23.6456C27.6063 23.6448 27.4593 23.5846 27.3491 23.4778C27.3244 23.4504 27.3012 23.4215 27.2797 23.3911C27.2579 23.359 27.2404 23.3239 27.2278 23.2871C27.211 23.2542 27.1994 23.2191 27.1929 23.183C27.1863 23.1447 27.1825 23.1062 27.1816 23.0674C27.1823 22.9918 27.1981 22.9172 27.2278 22.8475C27.2557 22.7768 27.297 22.7121 27.3491 22.6567C27.486 22.5213 27.6809 22.4628 27.8697 22.5006C27.9082 22.506 27.9456 22.5176 27.9801 22.5352C28.0157 22.5468 28.0488 22.5646 28.0785 22.5873C28.1126 22.6105 28.142 22.6335 28.1709 22.6567C28.2233 22.7121 28.2645 22.7768 28.2925 22.8475C28.3219 22.9172 28.3374 22.9918 28.3382 23.0674C28.3372 23.1062 28.3332 23.1447 28.3261 23.183Z" />
<path d="M9.60033 28.4388C9.45207 28.6372 9.44689 28.908 9.58698 29.1121C9.72733 29.3165 9.98183 29.4086 10.2203 29.3417C11.5088 28.9473 12.6427 28.1618 13.4643 27.0937C12.5997 26.5051 11.7695 25.8679 10.9773 25.1852C10.7908 26.3658 10.3179 27.4828 9.60033 28.4388Z" />
<path d="M25.4668 19.9264C24.5337 19.6739 23.5716 19.5442 22.6052 19.5407C18.2335 19.5407 13.9505 22.1853 11.9953 23.5803C11.8495 23.6834 11.7601 23.8482 11.7532 24.0263C11.7463 24.2047 11.8226 24.376 11.96 24.4899C13.8799 26.0994 18.2024 29.2512 22.6052 29.2512C23.7875 29.245 24.9592 29.0244 26.063 28.6002C23.4224 25.174 24.7467 21.423 25.4668 19.9264ZM21.9764 21.9105C17.6721 21.9105 15.4657 24.0347 15.4414 24.0562C15.2141 24.2749 14.8534 24.2712 14.6308 24.0476C14.4081 23.824 14.4057 23.4632 14.6253 23.2366C14.7288 23.1356 17.1661 20.7539 21.9764 20.7539C22.2959 20.7539 22.5548 21.0129 22.5548 21.3323C22.5548 21.6518 22.2959 21.9105 21.9764 21.9105Z" />
<path d="M20.5406 30.2124C20.7919 30.799 20.8665 31.4464 20.7551 32.0747C20.7239 32.264 20.7884 32.4562 20.9273 32.5884C21.0664 32.7203 21.2618 32.7749 21.4491 32.7339C21.5648 32.7097 21.6562 32.6882 21.7076 32.6761C22.3836 32.5091 22.7266 32.0829 23.963 30.3184C23.513 30.3775 23.0596 30.4076 22.6057 30.4086C21.9129 30.4054 21.2216 30.3397 20.5406 30.2124Z" />
<path d="M19.9147 15.7086C20.1022 16.6629 20.2048 17.632 20.2213 18.6043C21.0078 18.4607 21.8056 18.3871 22.6052 18.3841C23.3494 18.3853 24.0922 18.454 24.8241 18.5894C24.7114 17.647 24.2572 16.7788 23.5479 16.1487C22.6801 15.4784 21.6315 15.083 20.5371 15.0136C20.3535 14.9955 20.1727 15.066 20.0496 15.2033C19.9268 15.3407 19.8766 15.5283 19.9147 15.7086Z" />
</svg>
