<svg width="32" height="31" viewBox="0 0 32 31"  xmlns="http://www.w3.org/2000/svg">
<path d="M13.0062 3.56959C11.8105 4.76528 12.6135 7.15478 13.669 8.2104C14.7305 9.27184 15.7594 8.79165 16.8157 7.7169L17.1545 7.37815C18.2209 6.32827 18.7198 5.30846 17.647 4.23334C17.6461 4.23334 17.6461 4.23334 17.6461 4.23334C17.6461 4.23334 17.6461 4.23334 17.6461 4.2324C16.5873 3.17559 14.1828 2.39484 13.0062 3.56959Z" />
<path d="M26.4343 7.71703C27.4906 8.79172 28.5195 9.27197 29.5809 8.21053C30.6366 7.15491 31.4394 4.76541 30.2438 3.56878C29.0693 2.39991 26.6707 3.16572 25.6039 4.23253C24.5327 5.30372 25.0249 6.32429 26.0955 7.37828L26.4343 7.71703Z" />
<path d="M18.1039 9.90598C17.3733 10.4334 16.9375 11.2866 16.9375 12.1875C16.9375 13.7384 18.1991 15 19.75 15C20.2297 15 20.9264 14.8663 21.625 14.6447C22.3236 14.8663 23.0202 15 23.5 15C25.0509 15 26.3125 13.7384 26.3125 12.1875C26.3125 11.2857 25.8758 10.4324 25.1434 9.90417H25.1424C24.6682 9.56267 24.2526 9.14704 23.9065 8.66635C22.8518 7.20517 20.3982 7.20517 19.3417 8.67004C19.0002 9.14429 18.5846 9.55992 18.1039 9.90598Z" />
<path d="M5.81512 19.1909L0 20.6298V30.0625L7.79287 28.1297L5.81512 19.1909Z" />
<path d="M9.41461 26.7787C10.9286 26.4671 12.4087 26.406 14.0161 26.6201C16.0027 26.8847 17.5802 27.054 18.9462 27.054C23.1612 27.054 25.4329 25.4363 31.393 19.9862L32 19.4304C32 19.4304 31.5179 18.7415 31.5126 18.7339C30.6749 17.5525 28.9452 17.4026 27.7731 18.253C26.2745 19.3402 25.1597 20.2476 24.324 20.9822C22.5744 22.5212 21.5692 23.2399 19.7226 23.2399C18.4646 23.2399 16.8157 22.9067 14.2733 22.2703L14.7274 20.4521C18.996 21.5186 20.1945 21.6925 21.5326 20.8303C21.1976 18.7947 19.6002 17.1266 17.4969 16.7726C13.2045 16.0569 9.39611 17.5571 7.57468 18.4625L9.41461 26.7787Z" />
<path d="M21.1284 5.625H22.0956C23.8338 5.625 24.4375 4.86212 24.4375 3.75C24.4375 2.25675 23.316 0 21.625 0C19.934 0 18.8125 2.25675 18.8125 3.75C18.8125 5.17981 19.769 5.59419 21.1284 5.625Z" />
</svg>
