<svg width="32" height="27" viewBox="0 0 32 27"  xmlns="http://www.w3.org/2000/svg">
<path d="M0.9375 3.75H1.9375C4.0985 3.75 5.20525 1.875 6.625 1.875C8.05144 1.875 9.14213 3.75 11.3125 3.75C13.4735 3.75 14.5802 1.875 16 1.875C17.4264 1.875 18.5171 3.75 20.6875 3.75C22.8485 3.75 23.9552 1.875 25.375 1.875C26.8014 1.875 27.8921 3.75 30.0625 3.75H31.0625C31.5802 3.75 32 3.33025 32 2.8125C32 2.29475 31.5802 1.875 31.0625 1.875H30.0625C28.6361 1.875 27.5454 0 25.375 0C23.214 0 22.1073 1.875 20.6875 1.875C19.2611 1.875 18.1704 0 16 0C13.839 0 12.7323 1.875 11.3125 1.875C9.88606 1.875 8.79537 0 6.625 0C4.464 0 3.35725 1.875 1.9375 1.875H0.9375C0.41975 1.875 0 2.29475 0 2.8125C0 3.33025 0.41975 3.75 0.9375 3.75Z" />
<path d="M31.0625 5.625H30.0625C28.6361 5.625 27.5454 3.75 25.375 3.75C23.214 3.75 22.1073 5.625 20.6875 5.625C19.2611 5.625 18.1704 3.75 16 3.75C13.839 3.75 12.7323 5.625 11.3125 5.625C9.88606 5.625 8.79537 3.75 6.625 3.75C4.464 3.75 3.35725 5.625 1.9375 5.625H0.9375C0.41975 5.625 0 6.04475 0 6.5625C0 7.08025 0.41975 7.5 0.9375 7.5H1.9375C4.0985 7.5 5.20525 5.625 6.625 5.625C8.05144 5.625 9.14213 7.5 11.3125 7.5C13.4735 7.5 14.5802 5.625 16 5.625C17.4264 5.625 18.5171 7.5 20.6875 7.5C22.8485 7.5 23.9552 5.625 25.375 5.625C26.8014 5.625 27.8921 7.5 30.0625 7.5H31.0625C31.5802 7.5 32 7.08025 32 6.5625C32 6.04475 31.5802 5.625 31.0625 5.625Z" />
<path d="M26.3888 13.2043C24.2399 13.5986 22.5625 15.4829 22.5625 17.8125C22.5625 20.0663 24.1868 22.0207 26.3975 22.4225C28.0644 21.2012 29.295 19.6037 29.9675 18.2231C30.0944 17.9637 30.0944 17.6612 29.9675 17.4018C29.2169 15.8606 27.9644 14.345 26.3888 13.2043ZM25.375 18.75C24.8575 18.75 24.4375 18.33 24.4375 17.8125C24.4375 17.295 24.8575 16.875 25.375 16.875C25.8925 16.875 26.3125 17.295 26.3125 17.8125C26.3125 18.33 25.8925 18.75 25.375 18.75Z" />
<path d="M20.6875 17.8125C20.6875 15.2758 22.1032 13.0897 24.2313 11.9838C23.1281 11.5206 21.9338 11.25 20.6875 11.25H16.7767C15.3171 11.25 13.945 10.6816 12.9129 9.64957C12.5469 9.28351 11.9532 9.28345 11.5871 9.64957C11.221 10.0157 11.221 10.6093 11.5871 10.9754C12.4423 11.8305 13.4714 12.4482 14.5945 12.7963C11.8087 14.0803 9.47062 15.8243 8.44094 16.6463L3.395 13.2824C2.77225 12.8673 1.9375 13.3156 1.9375 14.0625V21.5625C1.9375 22.3138 2.77706 22.7544 3.395 22.3426L8.44088 18.9786C9.47056 19.8007 11.8086 21.5447 14.5944 22.8286C13.4713 23.1768 12.4422 23.7944 11.5871 24.6496C11.2209 25.0157 11.2209 25.6093 11.5871 25.9754C11.9531 26.3415 12.5468 26.3414 12.9129 25.9754C13.945 24.9434 15.3171 24.375 16.7767 24.375H20.6875C21.9744 24.375 23.1669 24.1013 24.2456 23.6488C22.0644 22.5234 20.6875 20.2558 20.6875 17.8125Z" />
</svg>
