<svg width="32" height="32" viewBox="0 0 32 32" xmlns="http://www.w3.org/2000/svg">
<path d="M23.1002 29.1039C21.3892 29.1039 19.7313 29.6058 18.3069 30.5552L17.9565 30.7886C18.1268 30.9594 18.2932 31.1346 18.453 31.3169L18.9192 31.8495H29.4251L29.2104 31.6348C27.5784 30.0028 25.4088 29.1039 23.1002 29.1039Z" />
<path d="M2.72972 31.5437L2.42386 31.8496H17.4415C15.5118 29.758 12.8002 28.5548 9.94639 28.5548C7.21996 28.5548 4.65717 29.6168 2.72972 31.5437Z" />
<path d="M24.7109 10.9826C26.8338 10.9826 28.5548 9.26164 28.5548 7.13871C28.5548 5.01578 26.8338 3.2948 24.7109 3.2948C22.5879 3.2948 20.8669 5.01578 20.8669 7.13871C20.8669 9.26164 22.5879 10.9826 24.7109 10.9826Z" />
<path d="M25.26 0H24.1617V2.19652H25.26V0Z" />
<path d="M20.0505 1.7017L19.274 2.47839L20.8274 4.03133L21.6039 3.25464L20.0505 1.7017Z" />
<path d="M19.7687 6.5896H17.5721V7.68786H19.7687V6.5896Z" />
<path d="M20.8276 10.2451L19.2745 11.7982L20.0511 12.5748L21.6042 11.0216L20.8276 10.2451Z" />
<path d="M25.26 12.0808H24.1617V14.2773H25.26V12.0808Z" />
<path d="M28.5924 10.2435L27.816 11.0201L29.3694 12.5731L30.1458 11.7964L28.5924 10.2435Z" />
<path d="M31.8495 6.5896H29.653V7.68786H31.8495V6.5896Z" />
<path d="M29.3702 1.70282L27.817 3.25598L28.5936 4.03256L30.1468 2.4794L29.3702 1.70282Z" />
<path d="M17.2119 24.3154L18.6704 24.964V22.7416L16.0857 20.1569L16.8621 19.3804L18.6704 21.1887V15.3756H19.7687V21.1887L21.577 19.3804L22.3534 20.1569L19.7687 22.7416V24.964L21.2272 24.3154C22.6763 23.6719 23.6126 22.231 23.6126 20.6456C23.6126 19.8252 23.3655 19.0339 22.8987 18.3596L19.2195 13.0457L15.5404 18.3596C15.0731 19.0345 14.8265 19.8252 14.8265 20.6456C14.8265 22.231 15.7628 23.6719 17.2119 24.3154Z" />
<path d="M5.25574 20.3157L7.1387 21.5139V27.8201C7.50003 27.7278 7.86575 27.6542 8.23696 27.5982V21.5139L10.1199 20.3157C12.0353 19.0966 13.1791 17.0132 13.1791 14.7431C13.1791 13.4669 12.8129 12.2259 12.1193 11.1545L12.116 11.1496L9.41979 6.88285L7.69442 4.2948L3.25635 11.154C2.5628 12.2259 2.19653 13.4664 2.19653 14.7431C2.19653 17.0132 3.34037 19.0966 5.25574 20.3157ZM4.55395 11.3709L5.33042 10.5944L7.1387 12.4027V6.58961H8.23696V12.4027L10.0452 10.5944L10.8217 11.3709L8.23696 13.9556V17.3449L10.0452 15.5366L10.8217 16.3131L8.23696 18.8978V21.4161H7.1387V18.8978L4.55395 16.3131L5.33042 15.5366L7.1387 17.3449V13.9556L4.55395 11.3709Z" />
<path d="M18.6704 29.0787C19.0279 28.8958 19.3936 28.7344 19.7687 28.5976V25.26H18.6704V29.0787Z" />
<path d="M29.8035 18.1213C29.6129 18.1213 29.4306 18.152 29.2543 18.1976V18.1213C29.2543 16.6051 28.0248 15.3756 26.5087 15.3756C25.6065 15.3756 24.8124 15.8171 24.3122 16.4887C23.8223 15.8308 23.0503 15.3965 22.1711 15.3789L23.8015 17.7341C24.3962 18.593 24.7108 19.6001 24.7108 20.6456C24.7108 21.2991 24.5747 21.9278 24.3429 22.5143H29.8035C31.0165 22.5143 32 21.5308 32 20.3178C32 19.1048 31.0165 18.1213 29.8035 18.1213Z" />
<path d="M4.5468 7.13869L7.68123 2.29481L10.3341 6.27381L10.8805 7.13869H13.1791C14.3921 7.13869 15.3756 6.1552 15.3756 4.94217C15.3756 3.72914 14.3921 2.74565 13.1791 2.74565C12.9853 2.74565 12.8002 2.7775 12.6212 2.82472C12.6229 2.79837 12.63 2.77311 12.63 2.74565C12.63 1.2295 11.4005 0 9.88434 0C8.98212 0 8.18808 0.4415 7.68782 1.11309C7.18756 0.4415 6.39352 0 5.4913 0C3.97515 0 2.74565 1.2295 2.74565 2.74565C2.74565 2.77311 2.75279 2.79837 2.75444 2.82472C2.57542 2.7775 2.39036 2.74565 2.19652 2.74565C0.983492 2.74565 0 3.72914 0 4.94217C0 6.1552 0.983492 7.13869 2.19652 7.13869H4.5468Z" />
</svg>
