<svg width="32" height="30" viewBox="0 0 32 30"  xmlns="http://www.w3.org/2000/svg">
<path d="M20.368 23.9911C20.3647 22.4941 20.8783 21.0419 21.822 19.8799V16.4586C21.7344 16.3795 21.6366 16.3125 21.5312 16.2594C21.3439 16.1657 21.1373 16.1169 20.9278 16.1169C20.7183 16.1169 20.5117 16.1657 20.3244 16.2594L19.8627 16.4906C19.6756 16.5853 19.469 16.635 19.2593 16.636H19.2048C18.9214 16.636 18.6451 16.5469 18.4152 16.3812C18.1853 16.2154 18.0134 15.9816 17.9238 15.7127L17.6265 14.8192C17.5795 14.6815 17.5549 14.5372 17.5538 14.3917V13.3041C17.5537 13.0819 17.6085 12.863 17.7134 12.6671C17.8183 12.4711 17.97 12.3041 18.155 12.1809L19.3844 11.3609C19.5132 11.2752 19.6559 11.2122 19.806 11.1748L21.822 10.6717V3.63504C21.8225 3.30946 21.8544 2.98468 21.9172 2.66522C19.8131 1.29383 17.3824 0.506065 14.8739 0.382521C12.3653 0.258976 9.86897 0.80409 7.64027 1.96209C5.41157 3.12008 3.53051 4.84939 2.18958 6.97306C0.848651 9.09673 0.095981 11.5385 0.00858671 14.0486C-0.0788076 16.5586 0.502211 19.0469 1.69219 21.2587C2.88218 23.4705 4.6384 25.3264 6.78116 26.6366C8.92393 27.9468 11.3763 28.6642 13.8874 28.7154C16.3984 28.7667 18.878 28.1499 21.0725 26.9281C20.6102 26.018 20.3689 25.0118 20.368 23.9911ZM5.25074 14.0435L3.09518 12.7502C2.84212 12.5982 2.6518 12.3607 2.55865 12.0806L2.07883 10.6433C2.6048 9.01995 3.45133 7.51869 4.56826 6.22855C5.68519 4.93841 7.04978 3.88565 8.58113 3.13268L9.19471 3.5587C9.36461 3.67691 9.5021 3.8359 9.59457 4.02107L9.78722 4.40493C9.88976 4.61045 10.0475 4.78332 10.2429 4.90416C10.4382 5.025 10.6633 5.08902 10.893 5.08904H12.267C12.5948 5.08904 12.9092 5.21925 13.1409 5.45103C13.3727 5.6828 13.5029 5.99716 13.5029 6.32494V6.34966C13.5029 6.57933 13.4389 6.80446 13.318 6.99978C13.1972 7.1951 13.0243 7.35288 12.8188 7.45543L9.52114 9.10426C9.47536 9.12739 9.43094 9.15312 9.3881 9.18132L7.70073 10.3067C7.52151 10.4263 7.37645 10.5904 7.27979 10.7829L7.02898 11.286C6.94245 11.4574 6.89738 11.6468 6.89738 11.8389C6.89738 12.0309 6.94245 12.2203 7.02898 12.3918C7.14512 12.624 7.18516 12.887 7.1434 13.1433C7.10164 13.3996 6.98021 13.6362 6.79634 13.8196L6.75926 13.8567C6.56457 14.0514 6.31041 14.1756 6.03712 14.2094C5.76383 14.2433 5.48706 14.1849 5.25074 14.0435ZM15.5291 19.1325C15.5293 19.2222 15.5151 19.3113 15.4869 19.3964L14.9155 21.1041C14.8748 21.227 14.8059 21.3386 14.7141 21.4298L13.6832 22.4644C13.5661 22.5805 13.4866 22.7292 13.4549 22.8911L12.909 25.6181C12.8839 25.7425 12.8309 25.8595 12.7538 25.9603C12.6767 26.0611 12.5776 26.143 12.464 26.1997L12.0169 26.4243C11.8602 26.5027 11.6828 26.5296 11.5099 26.5015C11.337 26.4733 11.1774 26.3913 11.0537 26.2673L10.2249 25.4385C10.1611 25.3747 10.1081 25.3011 10.0678 25.2204L9.54149 24.167C9.48382 24.0511 9.45371 23.9235 9.45353 23.794V21.1318C9.45343 20.9768 9.41028 20.825 9.32889 20.6931C9.2475 20.5613 9.13107 20.4547 8.99261 20.3851L8.30196 20.0398C8.17198 19.9749 8.06121 19.8772 7.98062 19.7563L6.89012 18.1256C6.79861 17.9885 6.74978 17.8274 6.74981 17.6625V17.0809C6.74999 16.926 6.79318 16.7742 6.87456 16.6423C6.95594 16.5105 7.07232 16.4039 7.21073 16.3343L7.85049 16.0144C8.01243 15.9339 8.14363 15.8027 8.22417 15.6407L8.54405 15.001C8.61385 14.8619 8.72104 14.7452 8.85359 14.6637C8.98613 14.5823 9.13876 14.5395 9.29431 14.54H10.4575C10.6786 14.5401 10.8907 14.628 11.0471 14.7843L11.234 14.9704C11.3112 15.0481 11.4031 15.1097 11.5043 15.1518C11.6055 15.1938 11.714 15.2154 11.8235 15.2154H11.9937C12.1032 15.2153 12.2117 15.2368 12.313 15.2787C12.4143 15.3206 12.5063 15.382 12.5838 15.4594C12.6613 15.5369 12.7228 15.6288 12.7647 15.73C12.8067 15.8312 12.8283 15.9397 12.8283 16.0493C12.8284 16.2042 12.8715 16.3561 12.9529 16.4879C13.0343 16.6198 13.1507 16.7264 13.2892 16.7959L15.0674 17.6843C15.2058 17.7539 15.3222 17.8606 15.4036 17.9924C15.485 18.1242 15.5282 18.276 15.5283 18.431L15.5291 19.1325Z" />
<path d="M30.546 20.4287V3.635C30.546 2.67094 30.163 1.74636 29.4813 1.06467C28.7996 0.382972 27.8751 0 26.911 0C25.9469 0 25.0224 0.382972 24.3407 1.06467C23.659 1.74636 23.276 2.67094 23.276 3.635V20.4287C22.5747 21.1445 22.1003 22.0514 21.9123 23.0357C21.7244 24.02 21.8312 25.0379 22.2194 25.9617C22.6076 26.8856 23.2599 27.6742 24.0945 28.2288C24.9291 28.7834 25.9089 29.0793 26.911 29.0793C27.9131 29.0793 28.8929 28.7834 29.7275 28.2288C30.5621 27.6742 31.2144 26.8856 31.6026 25.9617C31.9908 25.0379 32.0976 24.02 31.9097 23.0357C31.7217 22.0514 31.2473 21.1445 30.546 20.4287ZM25.457 3.635C25.457 3.24938 25.6102 2.87955 25.8829 2.60687C26.1555 2.33419 26.5254 2.181 26.911 2.181C27.2966 2.181 27.6665 2.33419 27.9391 2.60687C28.2118 2.87955 28.365 3.24938 28.365 3.635V6.54301H25.457V3.635Z" />
</svg>
