<svg width="25" height="32" viewBox="0 0 25 32"  xmlns="http://www.w3.org/2000/svg">
<path d="M24.3164 9.9058C23.8827 8.12091 23.232 6.38936 22.3787 4.74669C22.0942 4.19914 21.5253 3.85425 20.9102 3.85425H4.128C3.51289 3.85425 2.94756 4.19558 2.65956 4.73958L2.65244 4.75736C0.910222 8.06758 0 11.7511 0 15.4916V29.92C0 31.0685 0.931556 32 2.07644 32H22.8978C24.0462 32 24.9742 31.0685 24.9742 29.92V15.3778C24.9742 13.5254 24.7502 11.6907 24.3164 9.9058ZM8.34844 10.0765C8.34844 9.76358 8.58667 9.50758 8.88178 9.50758H9.29067C9.58578 9.50758 9.824 9.76358 9.824 10.0765V13.056C9.824 13.2622 9.66755 13.4258 9.47555 13.4258H8.69689C8.50489 13.4258 8.34844 13.2622 8.34844 13.056V10.0765ZM11.8436 13.2054C11.8436 14.335 11.27 15.311 10.4501 15.7494C10.2805 15.84 10.176 16.0171 10.176 16.2094V25.2765C10.176 25.8674 9.69671 26.3467 9.10578 26.3467H9.07022C8.47644 26.3467 7.99644 25.8667 7.99644 25.2765V16.2094C7.99644 16.0171 7.89191 15.84 7.72231 15.7494C6.9024 15.311 6.32889 14.335 6.32889 13.2054V10.1369C6.32889 9.79203 6.56711 9.50758 6.86222 9.50758H7.27467C7.56978 9.50758 7.808 9.79203 7.808 10.1369V13.1307C7.808 13.5197 8.12302 13.8347 8.512 13.8347H9.66044C10.0494 13.8347 10.3644 13.5197 10.3644 13.1307V10.1369C10.3644 9.79203 10.6027 9.50758 10.8978 9.50758H11.3067C11.6018 9.50758 11.8436 9.79203 11.8436 10.1369V13.2054ZM17.2608 15.4809C17.1239 15.5755 17.0489 15.7366 17.0489 15.903V25.2765C17.0489 25.5716 16.928 25.8382 16.736 26.0338C16.5404 26.2258 16.2738 26.3467 15.9787 26.3467C15.3849 26.3467 14.9049 25.8667 14.9049 25.2765V15.903C14.9049 15.7366 14.8299 15.5755 14.693 15.4809C13.8688 14.9106 13.3084 13.8109 13.3084 12.544C13.3084 10.6951 14.5031 9.50758 15.9787 9.50758C17.4507 9.50758 18.6453 10.6951 18.6453 12.544C18.6453 13.8105 18.085 14.9106 17.2608 15.4809Z" />
<path d="M21.0154 3.12604H4.02523C3.52887 3.12604 3.12674 2.72391 3.12674 2.22756V0.898489C3.12674 0.402133 3.52887 0 4.02523 0H21.0154C21.5118 0 21.9139 0.402133 21.9139 0.898489V2.22756C21.9139 2.72391 21.5114 3.12604 21.0154 3.12604Z" />
</svg>
