<svg width="32" height="30" viewBox="0 0 32 30"  xmlns="http://www.w3.org/2000/svg">
<path d="M31.9972 28.3656L31.5161 22.1101C31.4232 20.9018 30.5981 19.9003 29.5 19.5295V7.18747C29.5 6.81922 29.2845 6.48516 28.949 6.33334L15.1365 0.0833437C14.8908 -0.0277812 14.6092 -0.0277812 14.3636 0.0833437L0.551062 6.33334C0.215562 6.48516 0 6.81922 0 7.18747C0 7.55572 0.215562 7.88978 0.551 8.04159L14.3635 14.2916C14.4863 14.3472 14.6181 14.375 14.75 14.375C14.8819 14.375 15.0136 14.3472 15.1365 14.2916L27.625 8.64065V19.5294C26.527 19.9002 25.7018 20.9018 25.6089 22.11L25.1277 28.3655C25.1077 28.6259 25.1972 28.8828 25.3746 29.0744C25.5521 29.266 25.8014 29.375 26.0625 29.375H31.0625C31.3236 29.375 31.5729 29.266 31.7504 29.0745C31.9278 28.8828 32.0172 28.6259 31.9972 28.3656Z" />
<path d="M14.75 16.25C14.3475 16.25 13.9574 16.1658 13.5906 15.9999L4.4375 11.8582V17.4603C4.4375 17.9443 4.633 18.6617 5.56431 19.3316C6.12012 19.7313 6.8885 20.0821 7.84806 20.374C9.70475 20.9388 12.1559 21.25 14.75 21.25C17.3441 21.25 19.7952 20.9388 21.652 20.374C22.6116 20.0821 23.3799 19.7314 23.9357 19.3316C24.867 18.6617 25.0625 17.9443 25.0625 17.4603V11.8582L15.9094 15.9998C15.5426 16.1658 15.1525 16.25 14.75 16.25Z" />
</svg>
