<svg width="29" height="32" viewBox="0 0 29 32"  xmlns="http://www.w3.org/2000/svg">
<path fill-rule="evenodd" clip-rule="evenodd" d="M20.869 24.9212C20.9825 24.9212 21.0935 24.9549 21.1879 25.0179C21.2823 25.081 21.3558 25.1707 21.3993 25.2755C21.4427 25.3804 21.4541 25.4958 21.4319 25.6071C21.4098 25.7185 21.3551 25.8207 21.2748 25.901C21.1946 25.9813 21.0923 26.0359 20.981 26.0581C20.8696 26.0802 20.7542 26.0689 20.6494 26.0254C20.5445 25.982 20.4548 25.9084 20.3918 25.814C20.3287 25.7196 20.295 25.6087 20.295 25.4952C20.295 25.4198 20.3099 25.3451 20.3387 25.2755C20.3676 25.2059 20.4098 25.1426 20.4631 25.0893C20.5164 25.036 20.5797 24.9937 20.6494 24.9649C20.719 24.936 20.7936 24.9212 20.869 24.9212ZM11.3031 24.9212C11.4166 24.9212 11.5276 24.9549 11.622 25.0179C11.7164 25.081 11.7899 25.1707 11.8334 25.2755C11.8768 25.3804 11.8882 25.4958 11.866 25.6071C11.8439 25.7185 11.7892 25.8207 11.7089 25.901C11.6287 25.9813 11.5264 26.0359 11.4151 26.0581C11.3037 26.0802 11.1883 26.0689 11.0834 26.0254C10.9786 25.982 10.8889 25.9084 10.8259 25.814C10.7628 25.7196 10.7291 25.6087 10.7291 25.4952C10.7291 25.4198 10.744 25.3451 10.7728 25.2755C10.8016 25.2059 10.8439 25.1426 10.8972 25.0893C10.9505 25.036 11.0138 24.9937 11.0834 24.9649C11.1531 24.936 11.2277 24.9212 11.3031 24.9212ZM9.6845 18.8105L10.2585 24.2974H10.048C9.86232 24.2956 9.68229 24.3614 9.5415 24.4824C9.4007 24.6035 9.30873 24.7717 9.28274 24.9556L8.60548 29.8456H5.27271V21.1063C6.64162 20.1597 8.12377 19.3885 9.6845 18.8105V18.8105ZM22.4569 18.795C24.1329 19.3483 25.7005 20.1871 27.0907 21.2744C27.4635 21.5664 27.7667 21.9376 27.9785 22.3612C28.1902 22.7847 28.3052 23.25 28.3151 23.7235V29.8457H23.536L22.8664 24.9556C22.8404 24.7717 22.7484 24.6036 22.6076 24.4825C22.4668 24.3614 22.2868 24.2956 22.1011 24.2975H21.8906L22.4569 18.7951L22.4569 18.795ZM16.0707 17.6013C17.5977 17.6053 19.1174 17.8125 20.5897 18.2174L19.966 24.2974H12.1755L11.5518 18.2288C13.0262 17.8326 14.5442 17.6218 16.0707 17.6013V17.6013ZM0.573977 11.3949C0.726189 11.395 0.872159 11.4554 0.979787 11.5631C1.08741 11.6707 1.14789 11.8167 1.14791 11.9689V16.836C1.14676 17.0987 1.24387 17.3523 1.42017 17.547C1.59646 17.7417 1.83918 17.8634 2.10066 17.8883V11.9689C2.10066 11.8167 2.16113 11.6707 2.26877 11.563C2.37641 11.4554 2.52239 11.3949 2.67462 11.3949C2.82684 11.3949 2.97282 11.4554 3.08046 11.563C3.1881 11.6707 3.24857 11.8167 3.24857 11.9689V17.8997H4.27022V11.9689C4.27022 11.8167 4.33069 11.6707 4.43833 11.563C4.54597 11.4554 4.69196 11.3949 4.84418 11.3949C4.9964 11.3949 5.14239 11.4554 5.25003 11.563C5.35766 11.6707 5.41813 11.8167 5.41813 11.9689V17.8883H5.45256C5.59075 17.8883 5.72758 17.8611 5.85525 17.8082C5.98292 17.7553 6.09892 17.6778 6.19663 17.5801C6.29435 17.4824 6.37185 17.3664 6.42473 17.2387C6.47761 17.111 6.50483 16.9742 6.50482 16.836V11.9689C6.50482 11.8167 6.56529 11.6707 6.67293 11.563C6.78057 11.4554 6.92655 11.3949 7.07878 11.3949C7.231 11.3949 7.37699 11.4554 7.48462 11.563C7.59226 11.6707 7.65273 11.8167 7.65273 11.9689V16.8398C7.65326 17.1292 7.59677 17.4159 7.48648 17.6835C7.37619 17.9511 7.21427 18.1944 7.00996 18.3994C6.80565 18.6045 6.56296 18.7672 6.29574 18.8784C6.02852 18.9897 5.74201 19.0472 5.45256 19.0477H4.50748V32H2.96544V19.0362H2.20017C1.61697 19.0351 1.05796 18.803 0.64557 18.3906C0.233185 17.9782 0.00104622 17.4192 0 16.836V11.9689C2.31907e-05 11.8167 0.0605037 11.6707 0.168141 11.5631C0.275778 11.4554 0.421758 11.395 0.573977 11.3949V11.3949ZM15.9521 9.01864C18.0272 9.00213 20.1012 9.11462 22.1623 9.35544C22.1875 9.5521 22.1977 9.75037 22.1929 9.94857C22.1929 11.5723 21.5479 13.1295 20.3998 14.2776C19.2516 15.4257 17.6944 16.0708 16.0707 16.0708C14.447 16.0708 12.8898 15.4257 11.7417 14.2776C10.5936 13.1295 9.94855 11.5723 9.94855 9.94857C9.94337 9.73893 9.95361 9.52919 9.97916 9.32105C11.9628 9.10735 13.957 9.00638 15.9521 9.01863V9.01864ZM13.1856 2.19641e-05C14.8118 2.19641e-05 15.1371 0.421024 16.1128 0.421024C17.0885 0.421024 17.4138 2.19641e-05 19.04 2.19641e-05C20.582 2.19641e-05 21.3128 3.35956 21.5501 5.2498C25.5142 6.43981 26.8572 7.44224 26.8457 8.25335C26.8457 9.94855 26.0078 7.87071 15.9406 7.87071C5.72803 7.87071 5.03546 9.94855 5.03546 8.25335C5.03546 7.43851 6.40532 6.42436 10.3924 5.23435C10.7176 3.34035 11.6551 0 13.1856 0L13.1856 2.19641e-05Z" />
</svg>
