<svg width="32" height="32" viewBox="0 0 32 32"  xmlns="http://www.w3.org/2000/svg">
<path d="M22.0313 19.29L22.4567 19.7157C22.8679 20.1286 23.4162 20.3561 24 20.3561C24.5838 20.3561 25.1321 20.1286 25.5426 19.7165L31.3601 13.8952C31.7728 13.4837 32 12.935 32 12.3508C32 11.7667 31.7728 11.218 31.3608 10.8072L30.9347 10.3808C30.6505 10.0965 30.1903 10.0965 29.9063 10.3808L22.0313 18.261C21.7471 18.5452 21.7471 19.0057 22.0313 19.29Z" />
<path d="M12.7018 9.95419C12.8438 10.0963 13.0299 10.1674 13.216 10.1674C13.4021 10.1674 13.5881 10.0963 13.7302 9.95419L21.6052 2.07399C21.8893 1.78974 21.8893 1.32917 21.6052 1.04492L21.1798 0.619194C20.3573 -0.206625 18.9148 -0.205944 18.0939 0.618512L12.2763 6.43975C11.8637 6.85123 11.6364 7.39989 11.6364 7.98407C11.6364 8.56825 11.8637 9.11691 12.2756 9.52771L12.7018 9.95419Z" />
<path d="M19.9744 17.2317C20.1165 17.3739 20.3026 17.4449 20.4887 17.4449C20.6747 17.4449 20.8608 17.3739 21.0029 17.2317L28.8779 9.35155C29.162 9.0673 29.162 8.60673 28.8779 8.32248L23.662 3.10308C23.3779 2.81883 22.9177 2.81883 22.6336 3.10308L14.7586 10.9833C14.4745 11.2675 14.4745 11.7281 14.7586 12.0123L15.8043 13.0587C10.1724 17.9421 2.93387 24.9479 0.852274 27.0308C0.302523 27.5809 0 28.3115 0 29.089C0 30.6945 1.30466 32 2.90912 32C3.68612 32 4.41621 31.6973 4.96596 31.1472C7.47172 28.6397 14.3025 21.5613 18.9462 16.2027L19.9744 17.2317Z" />
<path d="M27.6364 24.7273H17.4546C15.0483 24.7273 13.0909 26.6635 13.0909 29.0698C13.0909 30.6742 14.3956 31.9789 16.0001 31.9789H29.091C30.6954 31.9789 32.0001 30.6743 32.0001 29.0698C32 26.6635 30.0427 24.7273 27.6364 24.7273Z" />
</svg>
