<svg width="32" height="32" viewBox="0 0 32 32"  xmlns="http://www.w3.org/2000/svg">
<path d="M25.375 5.625C26.9283 5.625 28.1875 4.3658 28.1875 2.8125C28.1875 1.2592 26.9283 0 25.375 0C23.8217 0 22.5625 1.2592 22.5625 2.8125C22.5625 4.3658 23.8217 5.625 25.375 5.625Z" />
<path d="M6 5.625C7.5533 5.625 8.8125 4.3658 8.8125 2.8125C8.8125 1.2592 7.5533 0 6 0C4.4467 0 3.1875 1.2592 3.1875 2.8125C3.1875 4.3658 4.4467 5.625 6 5.625Z" />
<path d="M24.75 30.125H23.0688C22.6515 28.5094 21.1816 27.3125 19.4375 27.3125H12.5625C10.8184 27.3125 9.3485 28.5094 8.93119 30.125H7.25C6.73225 30.125 6.3125 30.5447 6.3125 31.0625C6.3125 31.5802 6.73225 32 7.25 32H24.75C25.2677 32 25.6875 31.5802 25.6875 31.0625C25.6875 30.5447 25.2677 30.125 24.75 30.125Z" />
<path d="M31.0625 20H19.75V21.875H31.0625C31.5802 21.875 32 21.4553 32 20.9375C32 20.4197 31.5802 20 31.0625 20Z" />
<path d="M12.25 20H0.9375C0.41975 20 0 20.4197 0 20.9375C0 21.4553 0.41975 21.875 0.9375 21.875H12.25V20Z" />
<path d="M17.875 18.125C17.875 17.0894 17.0356 16.25 16 16.25C14.9644 16.25 14.125 17.0894 14.125 18.125V25.4375H17.875V18.125Z" />
<path d="M2.25 15H3.34375V18.125H8.65625V15H9.75C10.2677 15 10.6875 14.5802 10.6875 14.0625V9.6875C10.6875 8.33044 10.1072 7.10681 9.18244 6.25C8.34588 7.02506 7.22756 7.5 6 7.5C4.77244 7.5 3.65406 7.02506 2.81756 6.25C1.89281 7.10681 1.3125 8.33044 1.3125 9.6875V14.0625C1.3125 14.5802 1.73225 15 2.25 15Z" />
<path d="M21 15H22.7604L22.9024 18.125H27.8475L27.9896 15H29.75C30.0235 15 30.2834 14.8805 30.4615 14.6729C30.6397 14.4653 30.7182 14.1903 30.6765 13.9199L29.9017 8.88355C29.748 7.88374 29.2663 6.96437 28.538 6.26855C27.7036 7.0328 26.5929 7.49999 25.375 7.49999C24.157 7.49999 23.0464 7.0328 22.212 6.26855C21.4837 6.96437 21.002 7.88374 20.8483 8.88355L20.0735 13.9199C20.0319 14.1903 20.1104 14.4653 20.2885 14.6729C20.4665 14.8805 20.7264 15 21 15Z" />
</svg>
