<svg width="32" height="32" viewBox="0 0 32 32"  xmlns="http://www.w3.org/2000/svg">
<path d="M13.9094 2.35357C13.6762 1.30344 12.7398 0.518005 11.6195 0.518005C10.4992 0.518005 9.5628 1.30344 9.32955 2.35357C7.95937 2.56269 7.03674 2.95325 7.03674 3.40107C7.03674 3.83388 7.89893 4.21344 9.19418 4.42713C9.20624 5.75656 10.2872 6.83069 11.6195 6.83069C12.9517 6.83069 14.0328 5.75656 14.0448 4.42713C15.34 4.21344 16.2022 3.83388 16.2022 3.40107C16.2022 2.95332 15.2796 2.56269 13.9094 2.35357Z" />
<path d="M8.45787 7.60395C6.94956 7.60395 5.71624 8.84026 5.70862 10.366V12.9356L3.26875 12.2546V9.58426H4.28787C4.77575 9.58426 5.17118 9.18883 5.17118 8.70095C5.17118 8.21289 5.17118 3.41533 5.17118 3.22121C5.17118 2.93471 4.93893 2.70233 4.65231 2.70233C4.36581 2.70233 4.13343 2.93458 4.13343 3.22121V6.45339C4.13343 6.59695 4.01706 6.71333 3.8735 6.71333H3.37306C3.2295 6.71333 3.11312 6.59695 3.11312 6.45339V3.22115C3.11312 2.93465 2.88087 2.70227 2.59425 2.70227C2.30775 2.70227 2.07537 2.93452 2.07537 3.22115V6.45333C2.07537 6.59689 1.959 6.71327 1.81544 6.71327H1.315C1.17144 6.71327 1.05506 6.59689 1.05506 6.45333V3.22115C1.05506 2.93465 0.822812 2.70227 0.536187 2.70227C0.2495 2.70227 0 2.93458 0 3.22115V8.70089C0 9.18876 0.378125 9.5842 0.865999 9.5842H1.88519V12.1296C1.56569 12.2629 1.30775 12.5351 1.20744 12.8945C1.04669 13.4705 1.3465 14.0653 1.88519 14.2889V27.6053C1.88519 27.9874 2.19487 28.2971 2.577 28.2971C2.95906 28.2971 3.26881 27.9874 3.26881 27.6053V14.6851L6.56449 15.6049C7.31049 15.8134 8.04968 15.2511 8.04968 14.4775V10.3718C8.05087 10.2423 8.15637 10.1383 8.28568 10.1389C8.41499 10.1395 8.51955 10.2446 8.51955 10.374V10.5982H9.44037V7.60395H8.45787Z" />
<path d="M14.737 23.138L13.5215 22.2491L11.9357 22.6085V30.0485C11.9357 30.8241 12.5646 31.4531 13.3404 31.4531C14.1161 31.4531 14.745 30.8242 14.745 30.0485C14.745 28.6997 14.7415 26.0363 14.737 23.138Z" />
<path d="M10.478 7.60394V10.5982H12.7609V7.60394C12.2289 7.60394 11.6858 7.60394 10.478 7.60394Z" />
<path d="M31.9308 28.0655C31.6171 26.6817 30.3195 25.777 28.9426 25.9198C28.5357 25.9621 28.1638 26.0875 27.8355 26.2775L26.7175 25.2644L27.2664 24.401L28.8089 21.9744C29.139 21.4551 28.7639 20.7746 28.1489 20.776C27.9789 20.7765 15.7671 20.8046 15.5331 20.8051L14.2933 19.8983C14.1363 19.7836 13.9375 19.7422 13.7478 19.7853L10.5135 20.5184C10.1514 20.6005 9.92435 20.9605 10.0065 21.3226C10.0885 21.6846 10.4486 21.9118 10.8107 21.8296L13.7467 21.1642L15.758 22.6353C15.9623 23.3166 16.5873 25.4005 16.789 26.0729L16.5557 30.138C16.5175 30.8022 17.0285 31.3735 17.6939 31.4085C18.5335 31.4526 18.5195 31.4531 18.5843 31.4531C19.2273 31.4531 19.8044 31.046 20.0204 30.4401L21.2839 26.8945C21.967 26.8929 24.6459 26.8867 25.0762 26.8858C25.4385 26.885 25.7765 26.7083 25.9847 26.4145L26.8694 27.2161C26.4882 27.8303 26.3579 28.5738 26.5206 29.2918C26.8591 30.7857 28.3448 31.7223 29.8389 31.3836C31.3327 31.0452 32.2694 29.5595 31.9308 28.0655ZM18.7535 29.9888C18.7279 30.0605 18.6598 30.1086 18.5839 30.1086L17.9057 30.0734L18.0878 26.902L19.855 26.8979L18.7535 29.9888ZM29.5117 29.7065C28.8185 29.8635 28.1237 29.4388 27.9631 28.7303C27.923 28.553 27.9213 28.3731 27.9547 28.1998L28.7741 28.9423C29.0491 29.1915 29.4743 29.1707 29.7237 28.8955C29.973 28.6203 29.952 28.1952 29.6769 27.9459L28.8583 27.2042C28.9685 27.1717 29.08 27.1494 29.2263 27.1494C29.8345 27.1494 30.3533 27.5641 30.488 28.1578C30.6457 28.854 30.2077 29.5487 29.5117 29.7065Z" />
<path d="M14.781 7.604H13.7986V10.5982H14.7195V10.3496C14.7195 10.2198 14.8247 10.1146 14.9545 10.1146C15.0843 10.1146 15.1895 10.2198 15.1896 10.3496C15.1896 10.3549 15.1895 10.3604 15.1893 10.3659V18.9652C15.1893 19.1017 15.2139 19.2322 15.2568 19.354L16.3231 20.1339C17.0021 20.1551 17.5303 19.61 17.5303 18.9652V10.3601C17.5227 8.84038 16.2893 7.604 14.781 7.604Z" />
<path d="M14.7195 11.6359H8.51947L8.52003 30.0484C8.52003 30.8241 9.14891 31.453 9.92466 31.453C10.7004 31.453 11.3293 30.8242 11.3293 30.0484V22.746L11.0334 22.813C10.1283 23.0183 9.22803 22.4507 9.02284 21.5455C8.81766 20.6403 9.38516 19.7402 10.2903 19.535L11.3293 19.2995V18.8212H11.9358V19.162L13.5247 18.8019C13.9372 18.7084 14.3672 18.7744 14.7304 18.9822C14.7247 15.468 14.7195 12.3648 14.7195 11.6359ZM13.3274 15.1499C13.3274 15.5319 13.0177 15.8416 12.6357 15.8416H10.6035C10.2215 15.8416 9.91178 15.5319 9.91178 15.1499V13.2056H9.91166C9.91166 13.0759 10.0168 12.9706 10.1467 12.9706H13.0925C13.2222 12.9706 13.3275 13.0758 13.3275 13.2056V15.1499H13.3274Z" />
<path d="M23.091 15.9186C22.6282 14.9978 20.3427 13.4736 19.1318 12.7114C18.7835 12.4922 18.3286 12.7224 18.2968 13.1306C18.1858 14.5569 18.045 17.3009 18.5078 18.2219C19.0686 19.3379 20.4435 20.0847 21.6285 19.8096C21.4267 19.4466 21.2273 19.0667 21.0352 18.6819C20.123 18.3468 19.4438 17.9342 19.0538 17.6132C19.0282 17.5922 19.0183 17.5574 19.029 17.526C19.0397 17.4946 19.0687 17.473 19.1018 17.4719C19.439 17.4606 19.9373 17.4941 20.5313 17.6177C20.06 16.5701 19.5463 15.2058 19.3225 14.2642C19.3138 14.2279 19.3315 14.1906 19.3649 14.1742C19.3983 14.1578 19.4387 14.1666 19.4622 14.1956C19.8783 14.71 20.6142 15.7421 21.3983 17.1896C21.6615 16.6404 21.9358 16.2254 22.1475 15.9652C22.1685 15.9394 22.2033 15.9294 22.2348 15.9399C22.2663 15.9505 22.288 15.9796 22.2891 16.0128C22.3068 16.5267 22.2175 17.3227 21.9375 18.2349C22.1272 18.6217 22.3091 19.0112 22.4757 19.3924C23.4262 18.613 23.6572 17.0453 23.091 15.9186Z" />
<path d="M28.9394 10.8978C28.9251 10.4865 28.4791 10.2393 28.1236 10.4423C26.8812 11.1516 24.5317 12.5763 24.0297 13.4765C23.4212 14.5675 23.5755 16.1245 24.4687 16.9504C24.6557 16.5797 24.8582 16.2016 25.0686 15.8266C24.8336 14.8838 24.7945 14.0856 24.8401 13.5868C24.8431 13.5538 24.8663 13.526 24.8983 13.5172C24.9303 13.5084 24.9644 13.5203 24.984 13.547C25.1829 13.8199 25.4346 14.2506 25.6658 14.8106C26.4895 13.4719 27.2808 12.46 27.7613 11.9301C27.7864 11.9025 27.8272 11.8958 27.8597 11.9142C27.8922 11.9326 27.9076 11.971 27.8968 12.0067C27.696 12.6713 27.2449 13.8628 26.5065 15.2883C27.1092 15.1975 27.606 15.1912 27.9408 15.2204C27.974 15.2233 28.0018 15.2465 28.0107 15.2785C28.0196 15.3105 28.0077 15.3448 27.9808 15.3643C27.5824 15.6542 26.8787 16.0341 25.9457 16.3213C25.7322 16.6956 25.5118 17.0648 25.2899 17.4168C26.4686 17.7654 27.8954 17.076 28.5095 15.9747C29.0114 15.0748 28.9889 12.3277 28.9394 10.8978Z" />
</svg>
