<svg width="24" height="32" viewBox="0 0 24 32"  xmlns="http://www.w3.org/2000/svg">
<path d="M7.52941 6.1984L5.64706 8.08075V0H3.76471V8.08075L1.88235 6.1984V0H0V6.97807L3.76471 10.7428V15.6102L1.91705 17.4578L1.62177 20.7059H7.78993L7.49465 17.4578L5.64706 15.6102V10.7428L9.41176 6.97807V0H7.52941V6.1984Z" />
<path d="M1.45066 22.5883L1.27956 24.4706H8.1322L7.96109 22.5883H1.45066Z" />
<path d="M1.10839 26.353L0.941177 28.1926V28.2353C0.941177 30.3112 2.63002 32 4.70588 32C6.78174 32 8.47059 30.3112 8.47059 28.2353V28.1926L8.30331 26.353H1.10839Z" />
<path d="M20.5386 5.64706L20.7059 3.80737V3.76471C20.7059 1.68885 19.017 0 16.9412 0C14.8653 0 13.1765 1.68885 13.1765 3.76471V3.80737L13.3437 5.64706H20.5386Z" />
<path d="M20.1964 9.41177L20.3675 7.52942H13.5149L13.686 9.41177H20.1964Z" />
<path d="M19.7647 19.7647H17.8823V16.3898L19.7299 14.5423L20.0252 11.2941H13.8571L14.1523 14.5423L15.9999 16.3898V19.7647H14.1176C12.0417 19.7647 10.3529 21.4536 10.3529 23.5294V25.4118H23.5293V23.5294C23.5294 21.4536 21.8406 19.7647 19.7647 19.7647Z" />
<path d="M21.6471 27.2941H23.5294V32H21.6471V27.2941Z" />
<path d="M17.8824 27.2941H19.7647V32H17.8824V27.2941Z" />
<path d="M14.1176 27.2941H16V32H14.1176V27.2941Z" />
<path d="M10.3529 27.2941H12.2353V32H10.3529V27.2941Z" />
</svg>
