<svg width="32" height="32" viewBox="0 0 32 32"  xmlns="http://www.w3.org/2000/svg">
<path d="M8.91296 24.4392C9.06627 26.0858 9.2663 27.6857 9.48635 29.179C9.49409 29.2298 9.49855 29.281 9.49969 29.3323H14.9461C14.9472 29.281 14.9517 29.2298 14.9595 29.179C14.9928 28.9457 15.0262 28.7124 15.0594 28.4724C14.4246 27.2189 14.0677 25.8432 14.0129 24.4392H8.91296Z" />
<path d="M6.90635 24.4392H1.28662C1.6873 25.9045 2.19075 27.3397 2.79325 28.7342C2.87213 28.9129 3.00151 29.0648 3.1655 29.1711C3.3295 29.2773 3.52096 29.3334 3.71637 29.3323H7.4931C7.25972 27.8257 7.06636 26.2058 6.91306 24.5325C6.91302 24.4992 6.90635 24.4725 6.90635 24.4392Z" />
<path d="M17.966 14.6661C17.966 15.1261 17.966 15.5795 17.9527 16.0394C19.6897 14.7143 21.8144 13.9974 23.9992 13.9995C24.1458 13.9995 24.2924 13.9995 24.4391 14.0129C24.415 12.1832 24.2523 10.3581 23.9525 8.55304H17.7994C17.906 10.5463 17.966 12.6062 17.966 14.6661Z" />
<path d="M15.7994 8.55304H8.64634V8.60637C8.53973 10.5729 8.47968 12.6129 8.47968 14.6661C8.47968 16.7194 8.53973 18.7527 8.64634 20.7192V20.7726H14.5327C14.8565 19.8258 15.3218 18.9335 15.9127 18.126C15.946 16.9794 15.9661 15.8261 15.9661 14.6661C15.9661 12.6262 15.906 10.5862 15.7994 8.60634L15.7994 8.55304Z" />
<path d="M6.47976 14.6661C6.47976 12.5929 6.53982 10.533 6.64642 8.55304H0.493301C-0.164434 12.5997 -0.164434 16.726 0.493301 20.7726H6.64643C6.53982 18.786 6.47976 16.7327 6.47976 14.6661Z" />
<path d="M17.5394 4.88653H23.1592C22.7606 3.42272 22.2592 1.98889 21.6587 0.59572C21.5799 0.4176 21.4509 0.266349 21.2874 0.160529C21.1239 0.0547082 20.9331 -0.00107816 20.7383 1.57855e-05H16.9527C17.1859 1.49996 17.3793 3.11322 17.5326 4.79319C17.5326 4.82652 17.5394 4.85319 17.5394 4.88653Z" />
<path d="M14.9595 0.146722C14.952 0.0981357 14.9475 0.0491354 14.9461 0H9.49969C9.49825 0.0491344 9.49379 0.0981341 9.48635 0.146722C9.2663 1.64 9.06627 3.23322 8.91296 4.88651H15.5327C15.3794 3.2199 15.1795 1.63331 14.9595 0.146722Z" />
<path d="M2.79421 0.593633C2.1906 1.98707 1.68681 3.42165 1.28662 4.88653H6.90638C6.90638 4.85319 6.91306 4.82652 6.91306 4.79319C7.06636 3.12658 7.25971 1.5133 7.4931 1.53403e-05H3.71191C3.51777 -0.00106104 3.32754 0.0545291 3.16453 0.159971C3.00153 0.265413 2.87283 0.416125 2.79421 0.593633Z" />
<path d="M24.0003 15.9974C22.4181 15.9974 20.8714 16.4666 19.5559 17.3456C18.2403 18.2247 17.215 19.474 16.6095 20.9358C16.004 22.3976 15.8456 24.006 16.1543 25.5578C16.4629 27.1096 17.2248 28.535 18.3436 29.6538C19.4624 30.7726 20.8878 31.5345 22.4396 31.8432C23.9914 32.1518 25.5999 31.9934 27.0616 31.3879C28.5234 30.7825 29.7728 29.7571 30.6518 28.4416C31.5308 27.126 32 25.5793 32 23.9972C32 21.8755 31.1572 19.8407 29.6569 18.3405C28.1567 16.8403 26.1219 15.9974 24.0003 15.9974ZM26.667 24.9973H24.0005C23.7353 24.9973 23.4809 24.8919 23.2934 24.7044C23.1059 24.5169 23.0005 24.2625 23.0005 23.9973V19.3308C23.0019 19.0666 23.1079 18.8137 23.2953 18.6273C23.4827 18.441 23.7362 18.3364 24.0004 18.3364C24.2647 18.3364 24.5182 18.441 24.7056 18.6273C24.893 18.8137 24.999 19.0666 25.0004 19.3308V22.9974H26.667C26.9323 22.9974 27.1866 23.1027 27.3741 23.2903C27.5617 23.4778 27.667 23.7321 27.667 23.9973C27.667 24.2625 27.5617 24.5169 27.3741 24.7044C27.1866 24.8919 26.9323 24.9973 26.667 24.9973Z" />
</svg>
