<svg width="32" height="32" viewBox="0 0 32 32"  xmlns="http://www.w3.org/2000/svg">
<path d="M5.63084 21.7325C5.35375 22 5.03969 22.2263 4.69827 22.4045L5.99427 24.3354C6.18458 24.6177 6.28608 24.9504 6.2857 25.2908V32H7.42856V24.5714C7.42899 24.4483 7.39038 24.3283 7.31827 24.2285L5.63084 21.7325Z" />
<path d="M24.6903 24.2171C24.6138 24.3195 24.5721 24.4436 24.5714 24.5714V32H25.7143V25.2908C25.7139 24.9501 25.8156 24.6172 26.0063 24.3348L27.3017 22.4045C26.9603 22.2263 26.6462 22 26.3691 21.7325L24.6903 24.2171Z" />
<path d="M29.1428 21.7143C30.7208 21.7143 32 20.4351 32 18.8571C32 17.2792 30.7208 16 29.1428 16C27.5649 16 26.2857 17.2792 26.2857 18.8571C26.2857 20.4351 27.5649 21.7143 29.1428 21.7143Z" />
<path d="M16.5714 6.8114C16.1929 6.87235 15.8071 6.87235 15.4286 6.8114V32H16.5714V6.8114Z" />
<path d="M16 5.71428C17.578 5.71428 18.8571 4.4351 18.8571 2.85714C18.8571 1.27919 17.578 0 16 0C14.422 0 13.1429 1.27919 13.1429 2.85714C13.1429 4.4351 14.422 5.71428 16 5.71428Z" />
<path d="M20.1143 15.6571C20.041 15.7565 20.001 15.8765 20 16V32H21.1429V16.7343C21.1422 16.3796 21.2523 16.0336 21.4577 15.7445L24.4291 11.54C24.0889 11.3606 23.7762 11.1334 23.5006 10.8651L20.1143 15.6571Z" />
<path d="M26.2857 10.8571C27.8637 10.8571 29.1428 9.57792 29.1428 7.99996C29.1428 6.42201 27.8637 5.14282 26.2857 5.14282C24.7077 5.14282 23.4286 6.42201 23.4286 7.99996C23.4286 9.57792 24.7077 10.8571 26.2857 10.8571Z" />
<path d="M5.71429 10.8571C7.29225 10.8571 8.57143 9.57792 8.57143 7.99996C8.57143 6.42201 7.29225 5.14282 5.71429 5.14282C4.13633 5.14282 2.85715 6.42201 2.85715 7.99996C2.85715 9.57792 4.13633 10.8571 5.71429 10.8571Z" />
<path d="M10.8571 16.7343V32H12V16C12.0004 15.8769 11.9618 15.7569 11.8897 15.6572L8.49943 10.864C8.22397 11.1335 7.91126 11.3622 7.57086 11.5429L10.5423 15.748C10.7473 16.036 10.8573 16.3808 10.8571 16.7343Z" />
<path d="M2.85714 21.7143C4.4351 21.7143 5.71428 20.4351 5.71428 18.8571C5.71428 17.2792 4.4351 16 2.85714 16C1.27919 16 0 17.2792 0 18.8571C0 20.4351 1.27919 21.7143 2.85714 21.7143Z" />
</svg>
