<svg width="24" height="32" viewBox="0 0 24 32"  xmlns="http://www.w3.org/2000/svg">
<path d="M12 10.6668C12 4.77602 9.31117 0 6 0C2.68758 0 0 4.77602 0 10.6668C0 13.2304 1.61602 15.4024 3.87758 16.2604L3.3332 29.3332C3.3332 30.806 4.52719 32 6 32C7.47281 32 8.6668 30.806 8.6668 29.3332L8.12242 16.2616C10.3856 15.4024 12 13.2304 12 10.6668Z" />
<path d="M24 9.6668L23.6668 0H22L21.6668 9.6668H20.3332L20 0H18L17.6668 9.6668H16.3332L16 0H14.3332L14 9.6668C14 11.7004 15.2188 13.4424 16.9636 14.224L16.3332 29.3332C16.3332 30.806 17.5272 32 19 32C20.4728 32 21.6668 30.806 21.6668 29.3332L21.0364 14.224C22.7812 13.4424 24 11.7004 24 9.6668Z" />
</svg>
