<svg width="32" height="32" viewBox="0 0 32 32" xmlns="http://www.w3.org/2000/svg">
<path d="M24.725 6.65679C23.3719 5.62117 21.7263 4.85804 19.98 4.39617C19.8588 3.97179 19.6269 3.57117 19.295 3.24804C19.295 3.24804 19.2731 3.22679 19.2713 3.22492C18.64 2.61054 18.5188 1.65554 18.9769 0.902417C19.5156 0.0167916 20.6738 -0.265083 21.5588 0.273042C23.7188 1.58617 24.9369 4.08179 24.725 6.65679Z" />
<path d="M12.5506 3.22492C12.5488 3.22679 12.5269 3.24804 12.5269 3.24804C12.1831 3.58367 11.9456 4.00367 11.8288 4.44679C10.0781 4.93367 8.44188 5.72367 7.11 6.78617C6.84625 4.17867 8.04938 1.61867 10.2631 0.273042C11.1481 -0.265083 12.3069 0.0167916 12.845 0.902417C13.3031 1.6556 13.1819 2.61054 12.5506 3.22492Z" />
<path d="M16 5.74988C11.0613 5.74988 5.6875 8.54425 5.6875 13.2499C5.6875 16.3999 7.50063 19.1424 8.60563 21.858C9.64875 21.158 10.9025 20.7499 12.25 20.7499H19.75C21.0975 20.7499 22.3512 21.158 23.3944 21.858C24.4994 19.1418 26.3125 16.3968 26.3125 13.2499C26.3125 8.53488 20.9244 5.74988 16 5.74988ZM12.25 16.9999C11.7325 16.9999 11.3125 16.5799 11.3125 16.0624C11.3125 15.5449 11.7325 15.1249 12.25 15.1249C12.7675 15.1249 13.1875 15.5449 13.1875 16.0624C13.1875 16.5799 12.7675 16.9999 12.25 16.9999ZM19.75 16.9999C19.2325 16.9999 18.8125 16.5799 18.8125 16.0624C18.8125 15.5449 19.2325 15.1249 19.75 15.1249C20.2675 15.1249 20.6875 15.5449 20.6875 16.0624C20.6875 16.5799 20.2675 16.9999 19.75 16.9999Z" />
<path d="M19.75 22.6249H12.25C9.66563 22.6249 7.5625 24.728 7.5625 27.3124C7.5625 29.8968 9.66563 31.9999 12.25 31.9999H19.75C22.335 31.9999 24.4375 29.8968 24.4375 27.3124C24.4375 24.728 22.335 22.6249 19.75 22.6249ZM14.125 28.2499C13.6075 28.2499 13.1875 27.8299 13.1875 27.3124C13.1875 26.7949 13.6075 26.3749 14.125 26.3749C14.6425 26.3749 15.0625 26.7949 15.0625 27.3124C15.0625 27.8299 14.6425 28.2499 14.125 28.2499ZM17.875 28.2499C17.3575 28.2499 16.9375 27.8299 16.9375 27.3124C16.9375 26.7949 17.3575 26.3749 17.875 26.3749C18.3925 26.3749 18.8125 26.7949 18.8125 27.3124C18.8125 27.8299 18.3925 28.2499 17.875 28.2499Z" />
<path d="M32 10.4374C32 12.7793 30.2737 14.7255 28.0269 15.0705C28.1287 14.4811 28.1875 13.8743 28.1875 13.2499C28.1875 11.8599 27.8387 10.6055 27.23 9.49988H31.0625C31.5806 9.49988 32 9.91988 32 10.4374Z" />
<path d="M3.8125 13.2499C3.8125 13.8743 3.87063 14.4811 3.97312 15.0705C1.72688 14.7255 0 12.7793 0 10.4374C0 9.91988 0.42 9.49988 0.9375 9.49988H4.77187C4.16125 10.6074 3.8125 11.8618 3.8125 13.2499Z" />
</svg>
