<svg width="32" height="29" viewBox="0 0 32 29"  xmlns="http://www.w3.org/2000/svg">
<path d="M28.9375 11.5H31.9856C31.9951 11.2936 32 11.1052 32 10.9375C32 9.04631 31.3416 7.68606 30.0432 6.89444C29.3171 6.45169 28.4026 6.18463 27.1772 6.0685L29.3664 2.41987C29.6328 1.97587 29.4889 1.4 29.0449 1.13363C28.6009 0.867125 28.0251 1.01113 27.7586 1.45519L26.5 3.55281V0.9375C26.5 0.41975 26.0802 0 25.5625 0C25.0448 0 24.625 0.41975 24.625 0.9375V3.55281L23.3664 1.45513C23.1 1.01113 22.524 0.867313 22.0801 1.13356C21.6361 1.39994 21.4922 1.97581 21.7586 2.41981L23.9478 6.06844C22.7224 6.1845 21.8079 6.45162 21.0818 6.89437C19.7834 7.68606 19.125 9.04631 19.125 10.9375C19.125 13.6679 20.4105 22.0757 22.4675 26.1682C23.383 27.9896 24.3954 28.875 25.5625 28.875C26.7296 28.875 27.742 27.9896 28.6575 26.1682C29.1541 25.1803 29.6274 23.9077 30.0699 22.375H27.9375C27.4198 22.375 27 21.9552 27 21.4375C27 20.9198 27.4198 20.5 27.9375 20.5H30.5648C30.7733 19.6359 30.9629 18.7492 31.1311 17.875H28.4375C27.9198 17.875 27.5 17.4552 27.5 16.9375C27.5 16.4198 27.9198 16 28.4375 16H31.4631C31.6151 15.0604 31.7377 14.1689 31.8271 13.375H28.9375C28.4198 13.375 28 12.9552 28 12.4375C28 11.9198 28.4198 11.5 28.9375 11.5Z" />
<path d="M17.25 10.9375C17.25 9.54949 17.5379 8.45868 17.9693 7.6023C16.1958 6.86655 14.1757 6.79236 12.3054 7.44861C12.1176 5.99611 11.4291 3.35386 8.91925 2.09899C8.45612 1.8673 7.893 2.05518 7.6615 2.51824C7.43 2.9813 7.61769 3.54449 8.08081 3.77599C9.65706 4.56412 10.2064 6.2778 10.3977 7.39018C5.24556 5.71393 0 9.58049 0 14.9375C0 17.0635 0.952813 20.0746 2.42744 22.6087C3.46325 24.3888 5.62138 27.375 8.4375 27.375C9.72756 27.375 10.556 27.0558 11.4375 26.5769C12.319 27.0558 13.1474 27.375 14.4375 27.375C16.6164 27.375 18.4012 25.5873 19.5772 23.9537C18.1842 19.6414 17.25 13.5041 17.25 10.9375Z" />
</svg>
