<svg width="32" height="32" viewBox="0 0 32 32"  xmlns="http://www.w3.org/2000/svg">
<path d="M5.63318 17.6761C5.63762 17.639 5.64062 17.6015 5.64062 17.5633V15.7545H3.76562V17.4096C4.39344 17.4836 5.016 17.5729 5.63318 17.6761Z" />
<path d="M24.4687 16.449H22.5937V18.2578C22.5937 18.3412 22.6056 18.4217 22.6261 18.4987C23.2331 18.3318 23.8476 18.1804 24.4687 18.0437V16.449Z" />
<path d="M5.96611 13.8794C7.86298 13.8794 9.40623 12.3363 9.40623 10.4393V9.17633C9.40623 8.65858 8.98648 8.23883 8.46873 8.23883H7.20574C6.22024 8.23883 5.33093 8.65602 4.70312 9.3222C4.07537 8.65595 3.18599 8.23883 2.2005 8.23883H0.937498C0.419749 8.23883 0 8.65858 0 9.17633V10.4393C0 12.3363 1.54318 13.8794 3.44012 13.8794H5.96611Z" />
<path d="M24.7942 14.574C26.6911 14.574 28.2343 13.0308 28.2343 11.1338V9.87085C28.2343 9.3531 27.8146 8.93335 27.2968 8.93335H26.0338C25.0483 8.93335 24.159 9.35054 23.5312 10.0168C22.9035 9.35054 22.0141 8.93335 21.0286 8.93335H19.7656C19.2478 8.93335 18.8281 9.3531 18.8281 9.87085V11.1338C18.8281 13.0308 20.3713 14.574 22.2682 14.574H24.7942Z" />
<path d="M20.7031 4.70312C20.7031 3.14799 19.4379 1.88281 17.8828 1.88281H16.7773C16.39 0.787186 15.3438 0 14.1171 0C12.8459 0 11.7685 0.845248 11.4175 2.00343C10.2593 2.35443 9.41403 3.43187 9.41403 4.70312C9.41403 6.25824 10.6792 7.52342 12.2343 7.52342H17.8828C18.0105 7.52342 18.136 7.51405 18.2593 7.49755C18.6715 7.4423 19.0556 7.2978 19.3918 7.08392C20.1791 6.58311 20.7031 5.70343 20.7031 4.70312Z" />
<path d="M20.9884 24.3454C24.2452 22.6712 28.0216 21.7314 31.9999 21.6042V20.0148C31.9999 19.4788 31.5511 19.0509 31.0157 19.078C26.3007 19.317 21.8356 20.4299 17.9929 22.2154C19.06 22.8737 20.0608 23.5847 20.9884 24.3454Z" />
<path d="M22.505 25.6958C22.7231 25.9067 22.9366 26.1204 23.1444 26.3375C23.7798 27.0012 24.3604 27.6885 24.8872 28.3959C25.1479 28.2241 25.4184 28.0603 25.6986 27.9059C27.5507 26.8854 29.7128 26.2889 32 26.1612V23.4741C28.5539 23.5962 25.2891 24.3907 22.505 25.6958Z" />
<path d="M27.0028 31.9783H31.0624C31.5802 31.9783 31.9999 31.5586 31.9999 31.0408V28.0339C29.7016 28.1826 27.5766 28.8748 25.9328 29.9455C26.3356 30.6084 26.6927 31.2866 27.0028 31.9783Z" />
<path d="M23.7442 31.9783H24.9315C21.2049 24.7196 11.7459 19.6241 0.986561 19.0781C0.450312 19.0509 0 19.4779 0 20.0149V22.1341C3.98787 22.2683 7.76161 23.2609 10.9657 25.0265C14.1393 26.7752 16.5634 29.2266 17.8573 31.9783H23.7442Z" />
<path d="M0 24.004V26.6477C2.08212 26.774 4.05018 27.3222 5.73924 28.2529C7.44855 29.1948 8.77792 30.5018 9.54348 31.9783H15.2655H15.7528C13.129 27.4158 6.95761 24.2647 0 24.004Z" />
<path d="M7.06842 31.9783H7.34086C5.8803 30.0606 3.12049 28.7424 0 28.5209V31.0408C0 31.5586 0.419749 31.9783 0.937498 31.9783H7.06842Z" />
</svg>
