<svg width="31" height="32" viewBox="0 0 31 32"  xmlns="http://www.w3.org/2000/svg">
<path d="M25.0119 30.801C25.1963 31.1962 25.3672 31.5961 25.5257 32H29.1848C29.7031 32 30.1232 31.5799 30.1232 31.0616V29.8496C28.3426 29.9323 26.6279 30.2513 25.0119 30.801Z" />
<path d="M25.8145 16.4095V14.3087C26.9758 13.9162 27.8145 12.817 27.8145 11.5249V7.52486C27.8145 5.90461 26.4963 4.58643 24.8761 4.58643C23.2558 4.58643 21.9376 5.90461 21.9376 7.52486V11.5249C21.9376 12.817 22.7763 13.9162 23.9376 14.3087V16.7631C24.5571 16.6272 25.1829 16.5094 25.8145 16.4095Z" />
<path d="M4.00004 16.3619V13.7222C5.16136 13.3297 6.00004 12.2305 6.00004 10.9384V2.93837C6.00004 1.31813 4.68186 0 3.06161 0C1.44136 0 0.123169 1.31813 0.123169 2.93844V10.9384C0.123169 12.2306 0.961856 13.3298 2.12317 13.7223V16.1386C2.75367 16.1955 3.37954 16.2699 4.00004 16.3619Z" />
<path d="M12 18.6511V15.8799C13.1614 15.4873 14 14.3882 14 13.096V5.09603C14 3.47578 12.6819 2.15759 11.0616 2.15759C9.44136 2.15759 8.12317 3.47572 8.12317 5.09603V13.096C8.12317 14.3882 8.96186 15.4873 10.1232 15.8799V17.9007C10.7586 18.1308 11.3847 18.3805 12 18.6511Z" />
<path d="M30.1232 21.8771C27.3799 21.968 24.7244 22.457 22.2169 23.3366C21.5333 23.5764 20.8688 23.8428 20.2239 24.134C20.7615 24.6586 21.2708 25.2042 21.7524 25.7687C22.1328 25.6116 22.5196 25.4629 22.9142 25.3244C25.1979 24.5232 27.6189 24.0742 30.1231 23.9844V21.8771H30.1232Z" />
<path d="M18.712 22.7727C19.635 22.3198 20.5965 21.9162 21.5955 21.5657C24.3025 20.616 27.1671 20.0913 30.1232 19.9995V18.874C30.1232 18.334 29.6683 17.9033 29.1293 17.9369C24.6901 18.2131 20.4886 19.433 16.8769 21.3785C17.5136 21.8212 18.1263 22.2857 18.712 22.7727Z" />
<path d="M23.5356 27.0955C23.3414 27.1636 23.1498 27.2351 22.9594 27.3081C23.3831 27.8981 23.7753 28.5019 24.1335 29.1193C24.1668 29.1074 24.1996 29.095 24.2331 29.0832C26.0939 28.4304 28.0714 28.0574 30.1233 27.9704V25.8621C27.832 25.9507 25.6201 26.3642 23.5356 27.0955Z" />
<path d="M6.6285 32H7.81912C7.0295 31.5565 6.17781 31.1732 5.26894 30.8543C3.60712 30.2713 1.83856 29.935 6.10352e-05 29.8496V31.0616C6.10352e-05 31.5799 0.420186 32 0.938499 32H6.6285Z" />
<path d="M7.90637 23.3366C5.39887 22.4569 2.74325 21.968 6.10352e-05 21.8771V23.9845C2.50431 24.0742 4.92524 24.5233 7.20899 25.3244C9.62368 26.1716 11.7746 27.3696 13.6019 28.8853C14.7439 29.8325 15.7235 30.8786 16.5209 32H19.0323C18.0185 30.2652 16.6498 28.6766 14.9467 27.264C12.9266 25.5881 10.5577 24.2668 7.90637 23.3366Z" />
<path d="M12.4037 30.33C10.7484 28.9569 8.79156 27.8687 6.58762 27.0956C4.50318 26.3642 2.29125 25.9507 0 25.8622V27.9706C2.05194 28.0576 4.02931 28.4306 5.89018 29.0834C7.85756 29.7736 9.59649 30.7386 11.0587 31.9514C11.0781 31.9675 11.0972 31.9839 11.1166 32.0001H14.1292C13.6144 31.4144 13.0379 30.856 12.4037 30.33Z" />
<path d="M6.10352e-05 18.8737V19.9995C2.95606 20.0913 5.82068 20.616 8.52774 21.5657C11.39 22.5698 13.9528 24.001 16.145 25.8194C18.3216 27.6247 20.009 29.7017 21.1687 32.0001H23.4948C20.0329 24.1208 11.1368 18.5703 1.00144 17.9373C0.459436 17.9034 6.10352e-05 18.3306 6.10352e-05 18.8737Z" />
</svg>
