<svg width="33" height="32" viewBox="0 0 33 32"  xmlns="http://www.w3.org/2000/svg">
<path d="M19.4145 15.8325C23.7795 15.8325 27.3302 12.2813 27.3302 7.91627C27.3302 3.55126 23.7795 0 19.4145 0C15.0495 0 11.4983 3.55126 11.4983 7.91627C11.4983 12.2813 15.0495 15.8325 19.4145 15.8325ZM18.477 3.26313V3.04813C18.477 2.53001 18.8964 2.11063 19.4145 2.11063C19.932 2.11063 20.352 2.53001 20.352 3.04813V3.26438C21.4677 3.50376 22.307 4.49751 22.307 5.68377C22.307 6.20127 21.887 6.62127 21.3695 6.62127C20.8514 6.62127 20.432 6.20127 20.432 5.68377C20.432 5.35314 20.1627 5.08377 19.832 5.08377H18.9914C18.6608 5.08377 18.3914 5.35314 18.3914 5.68377C18.3914 5.87314 18.482 6.05314 18.6345 6.16564L19.4145 6.74315L21.3095 8.14565C21.932 8.60628 22.307 9.34315 22.312 10.1182V10.1269C22.3164 10.7882 22.0633 11.4119 21.5983 11.8825C21.2533 12.2319 20.822 12.4663 20.352 12.565V12.7844C20.352 13.3025 19.932 13.7219 19.4145 13.7219C18.8964 13.7219 18.477 13.3025 18.477 12.7844V12.5682C18.0195 12.4707 17.5989 12.2457 17.2589 11.9094C16.7883 11.445 16.527 10.825 16.5233 10.1638C16.5202 9.64628 16.937 9.22378 17.4545 9.22065H17.4608C17.9758 9.22065 18.3952 9.6369 18.3983 10.1525C18.3995 10.4761 18.6598 10.7488 19.0014 10.7488C19.5194 10.7457 19.3265 10.7468 19.8408 10.7438C20.1735 10.7412 20.4396 10.4711 20.437 10.1394V10.1307C20.4358 9.94316 20.3452 9.76441 20.1939 9.65253L19.4145 9.07565L17.5189 7.67315C16.8914 7.20815 16.5164 6.4644 16.5164 5.68377C16.5164 4.49501 17.3583 3.50064 18.477 3.26313Z" />
<path d="M6.58819 20.3371C6.34788 19.9205 5.81407 19.7755 5.39488 20.0173L0.984989 22.563C0.567426 22.8046 0.424175 23.3387 0.665238 23.7568L5.17238 31.5632C5.41363 31.9807 5.94738 32.1241 6.36569 31.883L10.7756 29.3367C11.1938 29.0956 11.3365 28.5615 11.0953 28.1434L6.58819 20.3371Z" />
<path d="M31.8564 18.7788C31.432 18.1895 30.6108 18.0563 30.022 18.4807C28.2358 19.7676 24.8058 22.2388 24.5333 22.4357C24.4076 22.5426 24.2758 22.6395 24.1383 22.7251C23.5989 23.0645 22.9732 23.2457 22.3201 23.2457H17.8295C17.312 23.2457 16.892 22.8263 16.892 22.3082C16.892 21.7895 17.3126 21.3707 17.8295 21.3707H22.632C23.3376 21.3707 23.9026 20.7832 23.8732 20.0763C23.8457 19.4057 23.2732 18.8857 22.602 18.8857H18.9464C18.6989 18.6238 18.4276 18.3838 18.137 18.1695C17.1376 17.4326 15.9026 16.9969 14.5657 16.9969C12.1888 16.9969 9.82383 18.4945 8.8432 20.4932L12.6782 27.1351H19.872C21.2845 27.1351 22.6757 26.7739 23.9001 26.0695C24.3245 25.8257 24.7789 25.5326 25.2714 25.1788C27.3351 23.6963 31.5545 20.6163 31.5576 20.6145C32.1476 20.1907 32.2814 19.3682 31.8564 18.7788Z" />
</svg>
