<svg width="32" height="32" viewBox="0 0 32 32"  xmlns="http://www.w3.org/2000/svg">
<path d="M27.6963 10.6206V16.8538C30.1406 16.41 32 14.2663 32 11.6963V9.5444C32 6.65502 29.6488 4.30377 26.7588 4.30377C23.8688 4.30377 21.5181 6.65502 21.5181 9.5444V11.6963C21.5181 14.2663 23.3769 16.41 25.8213 16.8538V10.6206H27.6963Z" />
<path d="M19.3662 26.7587C19.3662 28.615 17.8563 30.125 16 30.125C14.1438 30.125 12.6337 28.615 12.6337 26.7587V25.3056H0V32H32V25.3056H19.3662V26.7587Z" />
<path d="M4.65685 10.6206V15.8131C6.25435 15.3969 7.43747 13.9413 7.43747 12.215V9.88689C7.43747 7.83689 5.76935 6.16876 3.71935 6.16876C1.66935 6.16876 0.0012207 7.83689 0.0012207 9.88689V12.215C0.0012207 13.9413 1.18435 15.3969 2.78185 15.8131V10.6206H4.65685Z" />
<path d="M12.6337 19.3662H10.4819V16.8519C12.9263 16.4088 14.7856 14.2662 14.7856 11.6962V5.24125C14.7856 2.35125 12.4344 0 9.54438 0C6.96438 0 4.81375 1.87438 4.3825 4.33313C7.155 4.66188 9.3125 7.0275 9.3125 9.88688V12.215C9.3125 13.91 8.55437 15.4313 7.35938 16.4575C7.75187 16.6388 8.17 16.7725 8.60688 16.8519V19.3662H4.65688V15.8131C4.3575 15.8912 4.04312 15.9331 3.71937 15.9331C3.39562 15.9331 3.08125 15.8912 2.78187 15.8131V19.3662H0V23.4306H12.6337V19.3662Z" />
<path d="M26.7588 16.9375C26.4388 16.9375 26.125 16.9088 25.8213 16.8538V19.3663H19.3663V23.4306H32V19.3663H27.6963V16.8538C27.3925 16.9088 27.0788 16.9375 26.7588 16.9375Z" />
</svg>
