<svg width="32" height="32" viewBox="0 0 32 32"  xmlns="http://www.w3.org/2000/svg">
<path d="M8.95515 13.6581V15.8739C9.20727 15.8302 9.46424 15.8109 9.72606 15.8109C12.4267 15.8109 14.6279 18.0121 14.6279 20.7175C14.6279 22.3078 13.8667 23.7187 12.6885 24.6157H14.0752C14.7491 24.6157 15.4085 24.8145 15.9758 25.1878L16.1697 25.309C16.7467 24.8872 17.4594 24.6157 18.2545 24.6157H19.6315C18.4582 23.7187 17.697 22.3078 17.697 20.7175C17.697 18.1915 19.6121 16.1066 22.0655 15.8399V13.6581L30.4436 5.27994C30.817 4.90661 31.0206 4.40721 31.0206 3.88358C31.0206 3.35509 30.817 2.8557 30.4436 2.48237C30.0703 2.10903 29.5709 1.9054 29.0424 1.9054C28.5188 1.9054 28.0194 2.10903 27.6558 2.47267L19.8836 9.82782C19.6218 10.0848 19.2776 10.2302 18.9091 10.2302H12.0485C11.7236 10.2302 11.4182 10.1042 11.1758 9.86176L3.37455 2.48237C3.00121 2.10903 2.50667 1.9054 1.97818 1.9054C1.4497 1.9054 0.950303 2.10903 0.57697 2.48237C0.203636 2.8557 0 3.35509 0 3.88358C0 4.40721 0.203636 4.90661 0.57697 5.27994L8.95515 13.6581Z" />
<path d="M15.5103 8.24727C17.7842 8.24727 19.6364 6.4 19.6364 4.12606C19.6364 1.85212 17.7842 0 15.5103 0C13.2364 0 11.3842 1.85212 11.3842 4.12606C11.3842 6.4 13.2364 8.24727 15.5103 8.24727Z" />
<path d="M2.80243 27.9467V31.5151C2.80243 31.7818 3.01576 32 3.28728 32H14.7927C14.7346 31.8497 14.7055 31.6848 14.7055 31.5151V27.9467C14.7055 27.2824 14.977 26.5794 15.4473 25.9976C15.0546 25.7406 14.5891 25.5854 14.0752 25.5854H5.37698C3.92243 25.5854 2.80243 26.8558 2.80243 27.9467Z" />
<path d="M13.6582 20.7176C13.6582 18.5455 11.8933 16.7806 9.72606 16.7806C7.55394 16.7806 5.78909 18.5455 5.78909 20.7176C5.78909 22.8897 7.55394 24.6546 9.72606 24.6546C11.8933 24.6546 13.6582 22.8897 13.6582 20.7176Z" />
<path d="M26.5358 20.7176C26.5358 18.5455 24.7709 16.7806 22.5988 16.7806C20.4315 16.7806 18.6667 18.5455 18.6667 20.7176C18.6667 22.8897 20.4315 24.6546 22.5988 24.6546C24.7709 24.6546 26.5358 22.8897 26.5358 20.7176Z" />
<path d="M29.5224 31.5151V27.9467C29.5224 26.8558 28.3976 25.5854 26.9479 25.5854H18.2546C16.8 25.5854 15.6752 26.8558 15.6752 27.9467V31.5151C15.6752 31.7818 15.8934 32 16.16 32H29.0376C29.3091 32 29.5224 31.7818 29.5224 31.5151Z" />
</svg>
