<svg width="32" height="25" viewBox="0 0 32 25"  xmlns="http://www.w3.org/2000/svg">
<path d="M20.5362 0H1.03656C0.461731 0 0.0102615 0.451469 0.0102615 1.0263V13.3419C0.0102615 13.9062 0.461731 14.3682 1.03656 14.3682H20.5362C21.1007 14.3682 21.5625 13.9062 21.5625 13.3419V1.0263C21.5625 0.451469 21.1008 0 20.5362 0Z" />
<path d="M0 19.4997C0 20.0641 0.461835 20.526 1.0263 20.526H2.1347C2.56575 18.3809 4.33098 16.6979 6.52726 16.4208H1.03656C0.666992 16.4208 0.328518 16.3591 0 16.236V19.4997Z" />
<path d="M29.7011 20.526H30.9737C31.5382 20.526 32 20.064 32 19.4997V10.5093C32 8.89789 28.0693 5.13147 25.9142 5.13147H23.6152V13.3419C23.6152 15.0352 22.2296 16.4208 20.5363 16.4208H7.86134C10.0577 16.6979 11.823 18.3809 12.2539 20.526H19.5817C20.0539 18.1655 22.1373 16.3694 24.6414 16.3694C27.1353 16.3693 29.229 18.1654 29.7011 20.526ZM25.2982 7.65606C30.5529 7.39949 30.3375 12.8286 30.3375 12.8286H25.2982V7.65606Z" />
<path d="M24.6373 24.6255C26.3491 24.6255 27.7368 23.2378 27.7368 21.5261C27.7368 19.8143 26.3491 18.4266 24.6373 18.4266C22.9256 18.4266 21.5379 19.8143 21.5379 21.5261C21.5379 23.2378 22.9256 24.6255 24.6373 24.6255Z" />
<path d="M7.19025 24.6255C8.90202 24.6255 10.2897 23.2378 10.2897 21.5261C10.2897 19.8143 8.90202 18.4266 7.19025 18.4266C5.47849 18.4266 4.09083 19.8143 4.09083 21.5261C4.09083 23.2378 5.47849 24.6255 7.19025 24.6255Z" />
</svg>
