<svg width="26" height="32" viewBox="0 0 26 32"  xmlns="http://www.w3.org/2000/svg">
<path d="M4.6098 6.4228C4.6098 4.48648 6.18368 2.9126 8.12001 2.9126C10.0563 2.9126 11.6302 4.48648 11.6302 6.4228C11.6302 8.35586 10.0563 9.92974 8.12001 9.92974C6.18368 9.92974 4.6098 8.35586 4.6098 6.4228Z" />
<path d="M16.3159 13.2898C15.0947 14.4033 13.6122 15.1706 11.9992 15.5298V21.6849V21.6914V29.8971C11.9992 31.0563 11.0555 32 9.89632 32C9.14857 32 8.49224 31.6082 8.12 31.0171C7.74775 31.6082 7.09143 32 6.34367 32C5.18122 32 4.23755 31.0563 4.23755 29.8971V21.6849C4.23755 21.6816 4.23755 21.6816 4.23755 21.6784V15.84C3.61714 16.48 3.22204 17.3061 3.12081 18.1976L2.81714 20.7608C2.73551 21.4759 2.13143 22.0114 1.41306 22.0114C1.01143 22.0114 0.629384 21.8384 0.361629 21.5412C0.0938741 21.2408 -0.0367381 20.8392 0.00897614 20.4408L0.407343 16.8947C0.613058 15.089 1.45551 13.4106 2.78122 12.1698C3.84898 11.1739 5.24 10.6253 6.69959 10.6253H11.6727L13.7265 10.4784C14.3731 10.4327 14.9543 10.0963 15.3167 9.55756L15.32 9.55103C15.5029 10.6645 15.751 11.9347 16.0841 13.0645C16.1167 13.1788 16.2049 13.2604 16.3159 13.2898Z" />
<path d="M16.5771 13.0448C16.4923 13.1297 16.4041 13.2114 16.3159 13.2897C16.2049 13.2604 16.1167 13.1787 16.0841 13.0644C15.751 11.9346 15.5029 10.6644 15.32 9.55097L15.3918 9.44648C15.4931 9.29628 15.6955 9.25709 15.8457 9.35832C15.9861 9.45301 16.0253 9.63913 15.9437 9.78607L16.5837 12.5844C16.711 12.7118 16.7078 12.9175 16.5771 13.0448Z" />
<path d="M24.058 0C23.7478 0 23.4376 0.0751019 23.16 0.212245C22.938 0.323265 22.6669 0.476735 22.3567 0.653061C20.7894 1.54449 18.1674 3.04 14.6245 3.04C14.4449 3.04 14.298 3.18367 14.298 3.36653V3.48735H14.1151C13.2955 3.48735 12.6294 4.15347 12.6294 4.9698C12.6294 5.78939 13.2955 6.45551 14.1151 6.45551H14.298V6.57633C14.298 6.75592 14.4449 6.90286 14.6245 6.90286C14.7388 6.90286 14.8498 6.90939 14.9641 6.91265C15.0131 7.38286 15.1274 8.37878 15.32 9.55102C15.5029 10.6645 15.751 11.9347 16.0841 13.0645C16.1167 13.1788 16.2049 13.2604 16.3159 13.2898C16.342 13.2963 16.3682 13.2996 16.3976 13.2996H18.3274C18.8694 13.2996 19.3102 12.8588 19.3102 12.3167C19.3102 11.8792 19.0261 11.4971 18.6016 11.3731C18.3339 11.2914 17.9943 11.1347 17.88 10.8212C17.3967 9.51184 17.5861 8.29061 17.7363 7.31102C17.7396 7.30776 17.7396 7.30449 17.7396 7.30123C19.6367 7.79429 21.1029 8.63021 22.1086 9.20816C22.4351 9.39755 22.7159 9.55755 22.9641 9.68163C23.3069 9.8547 23.6759 9.93959 24.058 9.93959C25.2172 9.93959 25.7461 7.36327 25.7461 4.9698C25.7461 2.57633 25.2172 0 24.058 0ZM24.058 9.28653C23.7902 9.28653 23.3625 8.39837 23.1502 6.8702C23.1927 6.89306 23.2351 6.90939 23.2841 6.90939H23.3004C24.2408 6.86041 24.9755 6.00816 24.9755 4.97306C24.9755 3.93469 24.2408 3.08245 23.3004 3.0302C23.2449 3.02694 23.1959 3.04653 23.1502 3.07265C23.3592 1.54122 23.7902 0.653061 24.058 0.653061C24.4237 0.653061 25.0931 2.29224 25.0931 4.9698C25.0931 7.64735 24.4237 9.28653 24.058 9.28653Z" />
</svg>
