<svg width="32" height="32" viewBox="0 0 32 32"  xmlns="http://www.w3.org/2000/svg">
<path d="M9.43957 3.48125C9.43957 1.56169 7.87788 0 5.95831 0C1.33994 0.19125 1.34125 6.772 5.95831 6.9625C7.87794 6.9625 9.43957 5.40081 9.43957 3.48125Z" />
<path d="M11.9167 13.9917V12.9209C11.5884 5.0143 0.325312 5.02042 0 12.9208V13.9916C0 14.5094 0.41975 14.9291 0.9375 14.9291H10.9792C11.4969 14.9292 11.9167 14.5094 11.9167 13.9917Z" />
<path d="M29.5229 3.48125C29.5229 1.56169 27.9613 0 26.0417 0C21.4233 0.19125 21.4246 6.772 26.0417 6.9625C27.9613 6.9625 29.5229 5.40081 29.5229 3.48125Z" />
<path d="M26.0417 6.96252C22.7562 6.96252 20.0834 9.63546 20.0834 12.9208V13.9916C20.0834 14.5094 20.5031 14.9291 21.0209 14.9291H31.0625C31.5802 14.9291 32 14.5094 32 13.9916V12.9208C32 9.63546 29.3271 6.96252 26.0417 6.96252Z" />
<path d="M5.89169 17.0042C5.89169 16.9373 5.89294 16.8708 5.89419 16.8042H4.01919C3.94457 20.8229 5.89269 24.4537 8.90944 26.6647C9.17894 26.0926 9.51569 25.5583 9.90944 25.0717C7.46894 23.2264 5.89169 20.2996 5.89169 17.0042Z" />
<path d="M11.8628 7.7788C14.3563 6.61105 17.6438 6.61105 20.1373 7.7788C20.5819 7.26886 21.0913 6.81686 21.6526 6.43573C18.3341 4.56705 13.6659 4.56711 10.3475 6.43573C10.9088 6.81686 11.4181 7.26892 11.8628 7.7788Z" />
<path d="M26.1058 16.8042C26.1786 20.1535 24.5808 23.1959 22.0906 25.0717C22.4843 25.5582 22.821 26.0926 23.0906 26.6647C26.1072 24.4539 28.0555 20.8228 27.9808 16.8042H26.1058Z" />
<path d="M19.4813 20.5521C19.4813 18.6325 17.9196 17.0708 16 17.0708C11.3816 17.2621 11.3829 23.8428 16 24.0333C17.9196 24.0333 19.4813 22.4717 19.4813 20.5521Z" />
<path d="M16 24.0333C12.7146 24.0333 10.0417 26.7063 10.0417 29.9916V31.0625C10.0417 31.5803 10.4614 32 10.9792 32H21.0209C21.5386 32 21.9584 31.5803 21.9584 31.0625V29.9917C21.9583 26.7063 19.2854 24.0333 16 24.0333Z" />
</svg>
