<svg width="32" height="32" viewBox="0 0 32 32"  xmlns="http://www.w3.org/2000/svg">
<path d="M15.7203 22.4584C10.5326 22.4584 7.86017 21.2793 7.86017 20.7741C7.86017 20.3249 9.95434 19.3536 14.036 19.1346V20.7741C14.0374 21.2204 14.2152 21.648 14.5308 21.9636C14.8464 22.2792 15.274 22.457 15.7203 22.4584V22.4584Z" />
<path d="M23.5805 20.7741C23.5805 21.2793 20.9081 22.4584 15.7203 22.4584C16.1666 22.457 16.5943 22.2792 16.9099 21.9636C17.2254 21.648 17.4033 21.2204 17.4047 20.7741V19.1346C21.4863 19.3536 23.5805 20.3249 23.5805 20.7741Z" />
<path d="M28.6335 16.844H17.4047V18.0118C21.1719 18.2083 24.7034 19.0898 24.7034 20.7741C24.7034 22.7054 20.0491 23.5813 15.7204 23.5813C11.3916 23.5813 6.73729 22.7054 6.73729 20.7741C6.73729 19.0898 10.2688 18.2083 14.036 18.0118V16.844H2.80721C2.06269 16.844 1.34866 17.1398 0.822212 17.6662C0.295758 18.1927 0 18.9067 0 19.6512V27.5114C0 28.2559 0.295758 28.9699 0.822212 29.4964C1.34866 30.0228 2.06269 30.3186 2.80721 30.3186H12.3854C12.3628 30.1775 12.3515 30.0348 12.3517 29.8919C12.3517 28.9599 13.1602 27.3766 14.7547 25.1926C14.8661 25.0412 15.0115 24.918 15.1792 24.8332C15.347 24.7483 15.5324 24.7041 15.7204 24.7041C15.9084 24.7041 16.0937 24.7483 16.2615 24.8332C16.4292 24.918 16.5747 25.0412 16.686 25.1926C18.2805 27.3766 19.089 28.9599 19.089 29.8919C19.0892 30.0348 19.0779 30.1775 19.0553 30.3186H28.6335C29.378 30.3186 30.092 30.0228 30.6185 29.4964C31.145 28.9699 31.4407 28.2559 31.4407 27.5114V19.6512C31.4407 18.9067 31.145 18.1927 30.6185 17.6662C30.092 17.1398 29.378 16.844 28.6335 16.844V16.844Z" />
<path d="M15.7765 25.8495C15.7614 25.8351 15.7413 25.827 15.7204 25.827C15.6995 25.827 15.6794 25.8351 15.6642 25.8495C14.3112 27.7022 13.4746 29.2518 13.4746 29.8919C13.5107 30.4629 13.7631 30.9988 14.1803 31.3904C14.5975 31.782 15.1482 32 15.7204 32C16.2926 32 16.8433 31.782 17.2605 31.3904C17.6777 30.9988 17.93 30.4629 17.9661 29.8919C17.9661 29.2518 17.1296 27.7022 15.7765 25.8495ZM15.1589 30.88C15.0479 30.88 14.9393 30.8471 14.847 30.7854C14.7547 30.7237 14.6827 30.636 14.6402 30.5334C14.5977 30.4308 14.5866 30.3179 14.6083 30.209C14.6299 30.1001 14.6834 30.0001 14.7619 29.9216C14.8405 29.843 14.9405 29.7896 15.0494 29.7679C15.1583 29.7462 15.2712 29.7574 15.3738 29.7999C15.4764 29.8423 15.5641 29.9143 15.6258 30.0066C15.6874 30.099 15.7204 30.2075 15.7204 30.3186C15.7204 30.4675 15.6612 30.6103 15.5559 30.7156C15.4506 30.8208 15.3078 30.88 15.1589 30.88Z" />
<path d="M25.8544 10.1572C22.8057 12.6388 17.9156 11.892 16.2818 11.5496C16.2818 11.5496 18.9206 5.95761 24.8438 4.4754C24.9882 4.43892 25.1122 4.34656 25.1886 4.21863C25.2649 4.0907 25.2873 3.93769 25.2508 3.79325C25.2143 3.64882 25.122 3.52479 24.994 3.44845C24.8661 3.37212 24.7131 3.34973 24.5687 3.38621C22.7316 3.82993 21.0029 4.63995 19.4864 5.76773C17.9698 6.8955 16.6965 8.31782 15.7428 9.94946C15.8495 7.81598 16.4165 3.89151 19.0272 1.76926C22.7327 -1.24568 29.15 0.506015 29.15 0.506015C29.15 0.506015 29.5599 7.14225 25.8544 10.1572V10.1572Z" />
<path d="M15.1589 11.5496C13.5251 11.892 8.63496 12.6388 5.58633 10.1572C1.88082 7.14225 2.29067 0.506015 2.29067 0.506015C2.29067 0.506015 8.70794 -1.24568 12.4135 1.76926C15.0242 3.89151 15.5912 7.81598 15.6979 9.94946C14.7442 8.31782 13.4709 6.8955 11.9543 5.76773C10.4377 4.63995 8.70913 3.82993 6.87203 3.38621C6.80051 3.36814 6.72614 3.36434 6.65315 3.37502C6.58016 3.3857 6.51 3.41066 6.44665 3.44845C6.38331 3.48625 6.32803 3.53615 6.28397 3.59532C6.23992 3.65448 6.20794 3.72174 6.18988 3.79325C6.17181 3.86477 6.16801 3.93915 6.17869 4.01213C6.18937 4.08512 6.21433 4.15529 6.25212 4.21863C6.28992 4.28197 6.33982 4.33725 6.39899 4.38131C6.45815 4.42537 6.52541 4.45734 6.59692 4.4754C12.5201 5.95761 15.1589 11.5496 15.1589 11.5496Z" />
<path d="M16.2818 12.3524V20.774C16.2818 20.9229 16.2227 21.0657 16.1174 21.171C16.0121 21.2763 15.8693 21.3355 15.7204 21.3355C15.5715 21.3355 15.4287 21.2763 15.3234 21.171C15.2181 21.0657 15.1589 20.9229 15.1589 20.774V12.3524C15.3599 12.3128 15.5508 12.2332 15.7204 12.1183C15.8899 12.2332 16.0809 12.3128 16.2818 12.3524V12.3524Z" />
</svg>
