<svg width="31" height="32" viewBox="0 0 31 32"  xmlns="http://www.w3.org/2000/svg">
<path fill-rule="evenodd" clip-rule="evenodd" d="M28.4255 23.0059C27.6269 22.4589 26.6893 22.1725 25.7169 22.1725C23.0603 22.1725 20.8987 24.3342 20.8987 26.9907C20.8987 27.0775 20.8987 27.1643 20.9073 27.2511C21.0463 29.8122 23.1559 31.8089 25.7255 31.8089C28.3821 31.8089 30.5437 29.6472 30.5437 26.9907C30.5264 25.3933 29.7451 23.9001 28.4255 23.0059ZM25.7082 29.2045C24.4841 29.2045 23.4945 28.2061 23.4945 26.9907C23.4945 25.7753 24.4928 24.777 25.7082 24.777C26.9323 24.777 27.922 25.7753 27.922 26.9907C27.9307 28.2148 26.9323 29.2045 25.7082 29.2045Z" />
<path d="M25.7082 28.5187C26.5521 28.5187 27.2362 27.8346 27.2362 26.9908C27.2362 26.1469 26.5521 25.4628 25.7082 25.4628C24.8644 25.4628 24.1803 26.1469 24.1803 26.9908C24.1803 27.8346 24.8644 28.5187 25.7082 28.5187Z" />
<path fill-rule="evenodd" clip-rule="evenodd" d="M6.55687 20.3147C3.33605 20.3147 0.714211 22.9365 0.714211 26.1574C0.714211 29.3782 3.33605 32 6.55687 32C9.7777 32 12.3995 29.3782 12.3995 26.1574C12.3995 22.9365 9.78641 20.3147 6.55687 20.3147ZM6.55687 28.7444C5.13312 28.7444 3.96976 27.5811 3.96976 26.1573C3.96976 24.7335 5.13307 23.5702 6.55687 23.5702C7.98068 23.5702 9.14398 24.7336 9.14398 26.1573C9.15264 27.5898 7.98933 28.7444 6.55687 28.7444Z" />
<path d="M6.55687 28.0586C7.6069 28.0586 8.45812 27.2074 8.45812 26.1574C8.45812 25.1073 7.6069 24.2561 6.55687 24.2561C5.50684 24.2561 4.65562 25.1073 4.65562 26.1574C4.65562 27.2074 5.50684 28.0586 6.55687 28.0586Z" />
<path fill-rule="evenodd" clip-rule="evenodd" d="M18.6068 12.0239V17.554C18.8238 17.5714 19.0582 17.5887 19.2926 17.6061V12.0239C19.2926 11.8589 19.3621 11.694 19.475 11.5724L20.2997 10.7477C20.43 10.6174 20.43 10.3917 20.2997 10.2615C20.1695 10.1313 19.9438 10.1313 19.8136 10.2615L18.9888 11.0863C18.7457 11.338 18.6068 11.6679 18.6068 12.0239Z" />
<path fill-rule="evenodd" clip-rule="evenodd" d="M10.6806 9.60171V12.2843H11.3664V9.60171C11.3664 9.41072 11.2102 9.25446 11.0192 9.25446C10.8368 9.25446 10.6806 9.41072 10.6806 9.60171Z" />
<path fill-rule="evenodd" clip-rule="evenodd" d="M3.13634 4.15841C5.15914 1.95334 8.03271 0.6858 11.0278 0.6858C14.0143 0.6858 16.8965 1.95328 18.9193 4.15841C18.9887 4.23658 19.0843 4.2713 19.1711 4.2713C19.2579 4.2713 19.336 4.24523 19.4055 4.18449C19.5444 4.05424 19.5531 3.83723 19.4229 3.69833C18.3637 2.54368 17.1136 1.64081 15.6898 0.998389C14.2226 0.338603 12.6513 0 11.0278 0C9.40436 0 7.833 0.338603 6.36588 0.998389C4.94213 1.6321 3.69195 2.54368 2.63282 3.69833C2.50257 3.83723 2.51128 4.0543 2.65019 4.18449C2.78909 4.30603 3.00615 4.29732 3.13634 4.15841Z" />
<path fill-rule="evenodd" clip-rule="evenodd" d="M16.5319 6.34617C16.6014 6.42434 16.6969 6.45906 16.7837 6.45906C16.8705 6.45906 16.9487 6.43299 17.0182 6.37225C17.1571 6.242 17.1658 6.02499 17.0355 5.88609C16.2802 5.06133 15.3773 4.41025 14.3616 3.95882C13.3111 3.49003 12.1825 3.24695 11.0192 3.24695C9.85592 3.24695 8.73599 3.49003 7.67686 3.95882C6.66111 4.41896 5.75824 5.06139 5.00293 5.88609C4.87268 6.02499 4.88139 6.24206 5.0203 6.37225C5.1592 6.5025 5.37626 6.49379 5.50645 6.35488C6.92155 4.81825 8.92698 3.93275 11.0105 3.93275C13.1114 3.92404 15.1168 4.80954 16.5319 6.34617Z" />
<path fill-rule="evenodd" clip-rule="evenodd" d="M14.1966 8.4818C14.2661 8.55997 14.3616 8.59469 14.4484 8.59469C14.5352 8.59469 14.6134 8.56862 14.6828 8.50788C14.8217 8.37763 14.8304 8.16062 14.7002 8.02172C14.24 7.5182 13.6844 7.11886 13.0594 6.84105C12.417 6.55454 11.7224 6.40698 11.0106 6.40698C10.2987 6.40698 9.61284 6.5546 8.96176 6.84105C8.3367 7.11886 7.78974 7.5182 7.32095 8.02172C7.1907 8.16062 7.19941 8.37769 7.33831 8.50788C7.47721 8.63813 7.69428 8.62942 7.82447 8.49052C8.64052 7.60501 9.79517 7.09278 11.0019 7.09278C12.2259 7.08407 13.3892 7.58759 14.1966 8.4818Z" />
<path fill-rule="evenodd" clip-rule="evenodd" d="M20.2042 26.9908C20.2042 26.9647 20.2042 26.9474 20.2042 26.9213C20.2216 25.4715 20.7945 24.1172 21.8189 23.0928C22.8607 22.051 24.2411 21.478 25.7169 21.478C26.5677 21.478 27.3924 21.669 28.139 22.0424C28.0522 21.6257 27.9133 20.9659 27.6876 19.9241C27.5834 19.464 27.2188 19.1081 26.75 19.0299C24.1108 18.5785 16.0892 18.0836 16.011 18.0836C15.9328 18.0749 15.8547 18.0402 15.7939 17.9881C15.7505 17.9446 15.7158 17.8839 15.6984 17.8231L14.4569 12.9788H7.48581L6.35723 17.7623C5.55854 17.7797 4.76851 17.9099 4.00455 18.153C3.53575 18.3006 3.07561 18.5002 2.64154 18.726C1.65186 19.2468 0.792374 19.9501 0.0805 20.8182C-0.0410394 20.9658 -0.0236767 21.1828 0.123936 21.3044C0.271549 21.4259 0.488555 21.4085 0.610094 21.2609C1.90365 19.6896 3.82227 18.6739 5.85371 18.4828C7.75496 18.3092 9.67358 18.8474 11.2015 19.9934C12.8944 21.2696 14.0056 23.2142 14.2487 25.3152C14.3616 26.3396 14.3008 27.39 14.3008 28.4144C14.3008 28.6054 14.4571 28.7617 14.648 28.7617H17.0007C17.1917 28.7617 17.348 28.6054 17.348 28.4144V27.6245H20.2563C20.2476 27.5203 20.2389 27.4074 20.2302 27.2946C20.2042 27.1817 20.2042 27.0862 20.2042 26.9908Z" />
</svg>
