<svg width="32" height="32" viewBox="0 0 32 32"  xmlns="http://www.w3.org/2000/svg">
<path d="M8.92384 8.27875C8.20022 8.27875 7.64691 8.27875 6.92072 8.27875C4.41447 8.27875 2.30759 10.0237 1.75134 12.3631H14.0932C13.537 10.0237 11.4301 8.27875 8.92384 8.27875Z" />
<path d="M32.0001 2.32002V9.90878C32.0001 10.3207 31.7314 10.6844 31.3376 10.805C30.5133 11.0572 28.6135 11.7605 26.2626 10.7225C25.3695 10.3275 24.3539 10.2313 23.4026 10.4513L22.972 10.5507V1.03752L22.9807 1.03565C24.3245 0.725024 25.7595 0.861275 27.0207 1.41877C28.6965 2.15915 30.0358 1.6539 30.7882 1.42377C31.3876 1.23877 32.0001 1.68877 32.0001 2.32002Z" />
<path d="M20.1597 32C19.6419 32 19.2222 31.5803 19.2222 31.0625V0.9375C19.2222 0.41975 19.6419 0 20.1597 0C20.6774 0 21.0972 0.41975 21.0972 0.9375V31.0625C21.0972 31.5803 20.6774 32 20.1597 32Z" />
<path d="M14.9064 32H0.93824C0.31074 32 -0.141136 31.485 0.0407395 30.9725L1.29074 27.9881C1.41011 27.6519 1.77449 27.4219 2.18824 27.4219H13.6564C14.0695 27.4219 14.4339 27.6519 14.5539 27.9881L15.8039 30.9725C15.9857 31.4838 15.5339 32 14.9064 32Z" />
<path d="M14.5351 14.2382H1.30951C0.792009 14.2382 0.372009 14.6582 0.372009 15.1757V17.6757C0.372009 18.1932 0.792009 18.6132 1.30951 18.6132H2.18826V25.5469H13.6564V18.6132H14.5351C15.0526 18.6132 15.4726 18.1932 15.4726 17.6757V15.1757C15.4726 14.6582 15.0526 14.2382 14.5351 14.2382ZM8.85951 22.5532C8.85951 23.0713 8.44014 23.4907 7.92201 23.4907C7.40451 23.4907 6.98451 23.0713 6.98451 22.5532V18.9257C6.98451 18.4082 7.40451 17.9882 7.92201 17.9882C8.44014 17.9882 8.85951 18.4082 8.85951 18.9257V22.5532Z" />
<path d="M11.1195 3.19688V3.51938C11.1195 5.285 9.68822 6.71625 7.9226 6.71625H7.92197C6.15635 6.71625 4.7251 5.285 4.7251 3.51938V3.19688C4.7251 1.43125 6.15635 0 7.92197 0H7.9226C9.68822 0 11.1195 1.43125 11.1195 3.19688Z" />
</svg>
