<svg width="31" height="32" viewBox="0 0 31 32"  xmlns="http://www.w3.org/2000/svg">
<path d="M5.96411 28.8483C4.25693 28.8483 2.71556 28.1259 1.62887 26.971C0.619686 28.0398 0 29.48 0 31.0624C0 31.5802 0.419749 31.9999 0.937498 31.9999H10.9908C11.5085 31.9999 11.9283 31.5802 11.9283 31.0624C11.9283 29.48 11.3086 28.0397 10.2994 26.9709C9.21267 28.1259 7.6713 28.8483 5.96411 28.8483Z" />
<path d="M28.6777 26.9711C27.591 28.1259 26.0496 28.8484 24.3425 28.8484C22.6353 28.8484 21.0939 28.1259 20.0072 26.9711C18.998 28.0398 18.3784 29.4801 18.3784 31.0626C18.3784 31.5803 18.7981 32.0001 19.3159 32.0001H29.3691C29.8869 32.0001 30.3066 31.5803 30.3066 31.0626C30.3066 29.4801 29.6869 28.0398 28.6777 26.9711Z" />
<path d="M6.90629 26.8557C9.0983 26.3376 10.4552 24.1406 9.93707 21.9485C9.41892 19.7565 7.2219 18.3996 5.02989 18.9178C2.83789 19.4359 1.48096 21.6329 1.99911 23.8249C2.51726 26.0169 4.71428 27.3739 6.90629 26.8557Z" />
<path d="M27.2212 25.7783C28.814 24.1855 28.814 21.6031 27.2212 20.0104C25.6285 18.4176 23.0461 18.4177 21.4533 20.0104C19.8605 21.6032 19.8605 24.1856 21.4533 25.7783C23.046 27.3711 25.6284 27.3711 27.2212 25.7783Z" />
<path d="M19.2128 16.9198C20.354 16.8696 21.4431 16.5312 22.4042 15.9281C23.3771 16.3671 24.0636 16.7844 24.071 16.7889C24.3603 16.9663 24.7229 16.9733 25.0189 16.8075C25.3149 16.6417 25.4983 16.3289 25.4983 15.9896C25.4983 14.7878 25.3366 13.7238 25.0172 12.8196C25.3366 12.035 25.4983 11.2045 25.4983 10.3451C25.4983 8.3059 24.5661 6.48034 23.1054 5.27209C23.4326 6.27772 23.6103 7.35022 23.6103 8.46359C23.6103 11.9548 21.8705 15.047 19.2128 16.9198Z" />
<path d="M5.28741 16.8072C5.58316 16.973 5.94573 16.9661 6.2351 16.7892C6.24616 16.7824 7.2486 16.1726 8.64785 15.5535C10.0228 16.4538 11.6101 16.927 13.2718 16.927C17.9386 16.927 21.7353 13.1303 21.7353 8.46348C21.7353 3.79668 17.9386 0 13.2718 0C8.60497 0 4.80823 3.79674 4.80823 8.46355C4.80823 9.60886 5.03141 10.714 5.47223 11.755C5.03141 12.9505 4.80823 14.3725 4.80823 15.9896C4.80823 16.3287 4.9916 16.6413 5.28741 16.8072ZM17.0348 9.40098C16.5092 9.40098 16.12 8.97142 16.0973 8.46348C16.0746 7.95717 16.5444 7.52599 17.0348 7.52599C17.5603 7.52599 17.9495 7.95555 17.9723 8.46348C17.995 8.9698 17.5251 9.40098 17.0348 9.40098ZM13.2718 7.52599C13.7973 7.52599 14.1865 7.95555 14.2093 8.46348C14.232 8.9698 13.7621 9.40098 13.2718 9.40098C12.7462 9.40098 12.357 8.97142 12.3343 8.46348C12.3116 7.95723 12.7814 7.52599 13.2718 7.52599ZM9.50878 7.52599C10.0343 7.52599 10.4235 7.95555 10.4463 8.46348C10.469 8.9698 9.99916 9.40098 9.50878 9.40098C8.98322 9.40098 8.59403 8.97142 8.57128 8.46348C8.5486 7.95723 9.01841 7.52599 9.50878 7.52599Z" />
</svg>
