<svg width="32" height="32" viewBox="0 0 32 32"  xmlns="http://www.w3.org/2000/svg">
<path d="M18.8663 15.8325C23.2314 15.8325 26.782 12.2813 26.782 7.91627C26.782 3.55126 23.2314 0 18.8663 0C14.5013 0 10.9501 3.55126 10.9501 7.91627C10.9501 12.2813 14.5013 15.8325 18.8663 15.8325ZM17.9288 3.26313V3.04813C17.9288 2.53001 18.3482 2.11063 18.8663 2.11063C19.3838 2.11063 19.8039 2.53001 19.8039 3.04813V3.26438C20.9195 3.50376 21.7589 4.49751 21.7589 5.68377C21.7589 6.20127 21.3389 6.62127 20.8214 6.62127C20.3032 6.62127 19.8839 6.20127 19.8839 5.68377C19.8839 5.35314 19.6145 5.08377 19.2838 5.08377H18.4432C18.1126 5.08377 17.8432 5.35314 17.8432 5.68377C17.8432 5.87314 17.9338 6.05314 18.0863 6.16564L18.8663 6.74315L20.7614 8.14565C21.3839 8.60628 21.7589 9.34315 21.7639 10.1182V10.1269C21.7682 10.7882 21.5151 11.4119 21.0501 11.8825C20.7051 12.2319 20.2739 12.4663 19.8039 12.565V12.7844C19.8039 13.3025 19.3838 13.7219 18.8663 13.7219C18.3482 13.7219 17.9288 13.3025 17.9288 12.7844V12.5682C17.4713 12.4707 17.0507 12.2457 16.7107 11.9094C16.2401 11.445 15.9788 10.825 15.9751 10.1638C15.972 9.64628 16.3888 9.22378 16.9063 9.22065H16.9126C17.4276 9.22065 17.847 9.6369 17.8501 10.1525C17.8513 10.4761 18.1117 10.7488 18.4532 10.7488C18.9712 10.7457 18.7783 10.7468 19.2926 10.7438C19.6254 10.7412 19.8914 10.4711 19.8889 10.1394V10.1307C19.8876 9.94316 19.797 9.76441 19.6457 9.65253L18.8663 9.07565L16.9707 7.67315C16.3432 7.20815 15.9682 6.4644 15.9682 5.68377C15.9682 4.49501 16.8101 3.50064 17.9288 3.26313Z" />
<path d="M6.04001 20.3371C5.79969 19.9205 5.26588 19.7755 4.84669 20.0173L0.436802 22.563C0.0192384 22.8046 -0.124012 23.3387 0.117051 23.7568L4.62419 31.5632C4.86544 31.9807 5.39919 32.1241 5.81751 31.883L10.2274 29.3367C10.6456 29.0956 10.7883 28.5615 10.5471 28.1434L6.04001 20.3371Z" />
<path d="M31.3082 18.7788C30.8839 18.1895 30.0626 18.0563 29.4739 18.4807C27.6876 19.7676 24.2576 22.2388 23.9851 22.4357C23.8595 22.5426 23.7276 22.6395 23.5901 22.7251C23.0507 23.0645 22.4251 23.2457 21.772 23.2457H17.2813C16.7638 23.2457 16.3438 22.8263 16.3438 22.3082C16.3438 21.7895 16.7644 21.3707 17.2813 21.3707H22.0838C22.7895 21.3707 23.3545 20.7832 23.3251 20.0763C23.2976 19.4057 22.7251 18.8857 22.0538 18.8857H18.3982C18.1507 18.6238 17.8794 18.3838 17.5888 18.1695C16.5894 17.4326 15.3544 16.9969 14.0176 16.9969C11.6407 16.9969 9.27567 18.4945 8.29504 20.4932L12.1301 27.1351H19.3238C20.7363 27.1351 22.1276 26.7739 23.352 26.0695C23.7763 25.8257 24.2307 25.5326 24.7232 25.1788C26.787 23.6963 31.0064 20.6163 31.0095 20.6145C31.5995 20.1907 31.7332 19.3682 31.3082 18.7788Z" />
</svg>
