<svg width="32" height="32" viewBox="0 0 32 32"  xmlns="http://www.w3.org/2000/svg">
<path d="M24.5951 7.37574C22.9487 5.72932 20.7596 4.82263 18.4313 4.82263C16.1029 4.82263 13.9138 5.72932 12.2674 7.37574C8.8687 10.7745 8.8687 16.3047 12.2674 19.7035C13.9139 21.3499 16.1029 22.2566 18.4313 22.2566C20.7596 22.2566 22.9487 21.3499 24.5951 19.7035C27.9938 16.3047 27.9938 10.7745 24.5951 7.37574ZM17.1154 16.8392L14.1703 13.8941L15.487 12.5774L17.1154 14.2058L21.499 9.82225L22.8157 11.1389L17.1154 16.8392Z" />
<path d="M28.0052 3.96566C25.4479 1.40837 22.0478 0 18.4313 0C14.8147 0 11.4146 1.40837 8.85732 3.96566C6.30003 6.52295 4.89166 9.92305 4.89166 13.5396C4.89166 17.1562 6.30003 20.5563 8.85732 23.1136C11.4146 25.6709 14.8147 27.0793 18.4313 27.0793C22.0478 27.0793 25.4479 25.6709 28.0052 23.1136C30.5625 20.5563 31.9709 17.1562 31.9709 13.5396C31.9709 9.92305 30.5625 6.52301 28.0052 3.96566ZM25.9197 21.0282C23.9195 23.0285 21.26 24.13 18.4312 24.13C15.6024 24.13 12.9429 23.0285 10.9427 21.0282C6.81345 16.899 6.81345 10.1803 10.9427 6.05112C12.9429 4.05083 15.6024 2.94925 18.4312 2.94925C21.26 2.94925 23.9194 4.05083 25.9197 6.05112C30.0489 10.1803 30.0489 16.899 25.9197 21.0282Z" />
<path d="M5.73418 22.5028L3.31976 24.9172L7.08285 28.6803L9.50239 26.2608C8.77428 25.749 8.08509 25.1706 7.44278 24.5282C6.81041 23.896 6.24004 23.2183 5.73418 22.5028Z" />
<path d="M0.778089 27.4588C-0.259363 28.4963 -0.259363 30.1843 0.778089 31.2219C1.81554 32.2593 3.5036 32.2593 4.54118 31.2219L5.71601 30.047L1.95292 26.2839L0.778089 27.4588Z" />
</svg>
