<svg width="32" height="31" viewBox="0 0 32 31"  xmlns="http://www.w3.org/2000/svg">
<path d="M29.1843 12.9216C29.3378 13.0119 29.4865 13.1021 29.6321 13.1921V10.1851C30.8586 9.79013 31.7487 8.63844 31.7487 7.28231V3.04919C31.7487 1.36788 30.3808 0 28.6995 0C27.0182 0 25.6503 1.36788 25.6503 3.04919V7.28238C25.6503 8.6385 26.5405 9.79019 27.7669 10.1852V12.155C28.2843 12.4123 28.7573 12.6708 29.1843 12.9216Z" />
<path d="M4.23322 12.1549V10.1851C5.45972 9.79013 6.34978 8.63844 6.34978 7.28231V3.04919C6.34978 1.36788 4.98191 0 3.30059 0C1.61928 0 0.251343 1.36781 0.251343 3.04919V7.28238C0.251343 8.6385 1.14147 9.79019 2.36791 10.1852V13.1921C2.51353 13.1021 2.66222 13.0119 2.81578 12.9217C3.24272 12.6708 3.71578 12.4123 4.23322 12.1549Z" />
<path d="M15.0674 9.49815V7.79753C15.0674 7.28247 15.4849 6.8649 16 6.8649C16.5151 6.8649 16.9326 7.28247 16.9326 7.79753V9.49815C18.4517 9.5469 19.8643 9.71159 21.1658 9.95684V6.40915C21.3168 6.48634 21.4806 6.52415 21.6434 6.52415C21.9638 6.52415 22.2803 6.37853 22.4873 6.10253C22.8366 5.6369 22.7422 4.97634 22.2766 4.62709L16.6323 0.393902C16.2576 0.11284 15.7423 0.11284 15.3676 0.393902L9.72338 4.62709C9.25775 4.97634 9.16338 5.6369 9.51256 6.10253C9.82481 6.5189 10.3858 6.63734 10.8341 6.40815V9.95684C12.1358 9.71165 13.5483 9.5469 15.0674 9.49815Z" />
<path d="M16 18.1881C19.4811 16.1367 23.386 14.7644 27.5203 14.1268C25.0146 12.7838 21.1347 11.3474 16 11.3474C11.0108 11.3474 7.17345 12.6857 4.48651 14.1278C8.61839 14.7659 12.5209 16.1378 16 18.1881Z" />
<path d="M32 15.5938C26.8471 15.7393 21.9568 17.0873 17.8068 19.3408C19.8532 20.7534 21.6586 22.3858 23.1838 24.2063C24.8466 26.1912 26.1386 28.3556 27.0329 30.6479H31.0674C31.5825 30.6479 32 30.2303 32 29.7153V15.5938Z" />
<path d="M0 20.0918C3.14525 20.2704 6.11525 21.3526 8.63975 23.2493C11.1354 25.1243 13.0394 27.7319 14.0567 30.6479H25.017C21.2448 21.9537 11.2466 15.9114 0 15.5938V20.0918Z" />
<path d="M12.0658 30.648C10.0857 25.7404 5.35363 22.32 0 21.9615V29.7153C0 30.2304 0.417563 30.6479 0.932625 30.6479H12.0658V30.648Z" />
</svg>
