<svg width="32" height="32" viewBox="0 0 32 32"  xmlns="http://www.w3.org/2000/svg">
<path d="M18.9696 26.5079C18.7649 25.6133 18.2632 24.8146 17.546 24.2422C16.8288 23.6696 15.9387 23.3572 15.021 23.3556C14.9514 23.3556 14.882 23.3573 14.813 23.3611H14.8128C13.8756 21.7659 12.1633 20.786 10.3129 20.786C8.46254 20.786 6.75054 21.7659 5.81308 23.3611C5.74343 23.3573 5.67402 23.3556 5.60505 23.3556C4.68742 23.3571 3.79728 23.6696 3.0801 24.2422C2.36292 24.8147 1.86117 25.6133 1.65649 26.5079C0.859427 26.8825 0.277274 27.601 0.0761945 28.4583C-0.124885 29.3157 0.076864 30.2179 0.624166 30.9078C1.17125 31.5977 2.00384 31.9997 2.88461 31.9991H17.7441C18.6245 31.9988 19.4566 31.5966 20.0032 30.9065C20.5499 30.2165 20.7512 29.3143 20.5499 28.4575C20.3485 27.6003 19.7666 26.8825 18.9698 26.508L18.9696 26.5079Z" />
<path d="M31.8904 8.0856C30.6973 5.85241 28.4644 4.46497 26.0637 4.46497C24.1794 4.46497 22.3982 5.31986 21.1427 6.76804L18.7365 2.53315C18.0033 1.24301 16.7357 0.344585 15.2755 0.0800789C13.8153 -0.184199 12.3128 0.212886 11.1741 1.16422C10.035 2.1155 9.37682 3.52283 9.37682 5.00695V8.54056C7.1318 6.97809 4.03259 6.8013 3.86139 6.79061C3.52636 6.77387 3.20804 6.93704 3.02616 7.21873C2.84402 7.50041 2.82617 7.85779 2.97929 8.15618C3.13219 8.45461 3.43262 8.6488 3.76766 8.66554C4.9694 8.72804 8.24072 9.29609 9.37686 11.1793V18.9768C9.99895 18.8917 10.6297 18.8917 11.2518 18.9768V5.00691C11.2515 4.0786 11.6634 3.19806 12.3758 2.60276C13.0883 2.00769 14.028 1.75924 14.9416 1.92467C15.8549 2.09006 16.648 2.6523 17.1065 3.45942L19.8564 8.30235C17.8484 9.53734 16.6177 11.6491 16.6177 13.9098C16.6177 16.311 18.0051 18.5433 20.2381 19.7365H20.2383C20.5144 19.884 20.8459 19.884 21.122 19.7365C23.3549 18.5434 24.7424 16.3109 24.7424 13.9098H24.7426C24.7415 13.4024 24.6785 12.8968 24.5551 12.4047C25.0473 12.5281 25.5526 12.5911 26.06 12.5922C28.4606 12.5922 30.6935 11.2047 31.8866 8.97177H31.8869C32.0364 8.69567 32.0378 8.36288 31.8904 8.08563L31.8904 8.0856Z" />
</svg>
