<svg width="29" height="32" viewBox="0 0 29 32"  xmlns="http://www.w3.org/2000/svg">
<path d="M10.7732 13.3461H12.1015V15.8959C12.4441 15.8566 12.7905 15.8366 13.1382 15.8366C13.4389 15.8366 13.7376 15.8514 14.0331 15.881V10.3663H15.3151C19.0083 10.3663 22.0023 7.37231 22.0023 3.67907V1.00444H20.665C17.2643 1.00444 14.4567 3.54289 14.0331 6.82824V0H12.1015V10.3277C11.9225 6.79411 9.0013 3.98427 5.42332 3.98427H4.086V6.6589C4.086 10.3521 7.07999 13.3461 10.7732 13.3461Z" />
<path d="M18.322 22.1092V19.9941C14.9657 16.4262 8.99744 17.2957 6.78059 21.6437C3.00365 21.8356 0 24.959 0 28.7836H16.6054C15.949 26.4637 16.6342 23.8286 18.322 22.1092Z" />
<path d="M23.3338 28.0155C23.9177 28.0155 24.3911 27.5421 24.3911 26.9582C24.3911 26.3743 23.9177 25.901 23.3338 25.901C22.75 25.901 22.2766 26.3743 22.2766 26.9582C22.2766 27.5421 22.75 28.0155 23.3338 28.0155Z" />
<path d="M26.729 23.2309L26.4141 22.9437V15.6358C26.2452 11.55 20.4223 11.55 20.2536 15.6358C20.2546 17.4559 20.2529 21.1231 20.2536 22.9437C18.8374 24.1048 18.084 25.8276 18.3406 27.6568C18.6748 30.076 20.7803 31.9739 23.2617 31.9997C27.8927 32.0488 30.1365 26.3647 26.729 23.2309ZM23.3338 29.9471C21.7081 29.9471 20.3817 28.6432 20.3463 27.0258C20.3028 25.7391 21.1606 24.5313 22.368 24.1291V14.7163H24.2996V24.1291C27.4492 25.2579 26.7205 29.882 23.3338 29.9471Z" />
</svg>
