<svg width="32" height="32" viewBox="0 0 32 32"  xmlns="http://www.w3.org/2000/svg">
<path d="M5.9661 6.50842H12.4746C12.4746 7.7066 11.5033 8.67791 10.3051 8.67791H8.13559C6.93742 8.67791 5.9661 7.7066 5.9661 6.50842Z" />
<path d="M12.4746 6.50842H18.9831C18.9831 7.7066 18.0117 8.67791 16.8136 8.67791H14.6441C13.4459 8.67791 12.4746 7.7066 12.4746 6.50842Z" />
<path d="M18.983 6.50842H25.4915C25.4915 7.7066 24.5202 8.67791 23.322 8.67791H21.1525C19.9544 8.67791 18.983 7.7066 18.983 6.50842Z" />
<path d="M31.4576 6.50848C31.4566 7.08374 31.2286 7.63535 30.8231 8.04339C30.5473 8.31503 30.205 8.50953 29.8305 8.60746C29.6538 8.65589 29.4713 8.67962 29.2881 8.67797H27.661C26.4628 8.67797 25.4915 7.70665 25.4915 6.50848H29.2881C29.5877 6.50848 29.8305 6.26565 29.8305 5.9661C29.8305 5.66656 29.5877 5.42373 29.2881 5.42373H25.8603L24.9112 3.05356C24.8395 2.87335 24.6771 2.74508 24.4852 2.71707C24.2933 2.68906 24.101 2.76555 23.9808 2.91775C23.8606 3.06994 23.8307 3.27471 23.9024 3.45492L24.6888 5.42373H19.5254V4.33898C19.5254 4.03944 19.2826 3.79661 18.9831 3.79661C18.6835 3.79661 18.4407 4.03944 18.4407 4.33898V5.42373H13.0169V4.33898C13.0169 4.03944 12.7741 3.79661 12.4746 3.79661C12.175 3.79661 11.9322 4.03944 11.9322 4.33898V5.42373H6.76881L7.55525 3.45492C7.66609 3.17634 7.5301 2.86066 7.25153 2.74983C6.97295 2.639 6.65727 2.77498 6.54644 3.05356L5.59729 5.42373H2.16949C1.86995 5.42373 1.62712 5.66656 1.62712 5.9661C1.62712 6.26565 1.86995 6.50848 2.16949 6.50848H5.9661C5.9661 7.70665 4.99479 8.67797 3.79661 8.67797H2.16949C1.98631 8.67962 1.80379 8.65589 1.62712 8.60746C1.25261 8.50953 0.910363 8.31503 0.634576 8.04339C0.229077 7.63535 0.00102735 7.08374 0 6.50848C0.000941782 6.15477 0.102525 5.80863 0.292881 5.51051L2.99932 1.25831C3.4938 0.474517 4.35598 -0.000600087 5.28271 5.68847e-07H26.1749C27.1016 -0.000600087 27.9638 0.474517 28.4583 1.25831L31.1647 5.51051C31.3551 5.80863 31.4567 6.15477 31.4576 6.50848Z" />
<path d="M30.3729 20.6101H1.08475C0.485657 20.6101 0 21.0958 0 21.6949C0 22.2939 0.485657 22.7796 1.08475 22.7796H30.3729C30.972 22.7796 31.4576 22.2939 31.4576 21.6949C31.4576 21.0958 30.972 20.6101 30.3729 20.6101Z" />
<path d="M30.1017 23.8644H1.35593C1.20616 23.8644 1.08475 23.9858 1.08475 24.1356V28.4745C1.08475 28.6243 1.20616 28.7457 1.35593 28.7457H30.1017C30.2515 28.7457 30.3729 28.6243 30.3729 28.4745V24.1356C30.3729 23.9858 30.2515 23.8644 30.1017 23.8644Z" />
<path d="M3.79661 9.76275V19.2543C3.79661 19.404 3.6752 19.5255 3.52543 19.5255H1.89831C1.74854 19.5255 1.62712 19.404 1.62712 19.2543V9.71936C1.80651 9.74793 1.98785 9.76243 2.16949 9.76275H3.79661Z" />
<path d="M29.8305 9.71936V19.2543C29.8305 19.404 29.7091 19.5255 29.5593 19.5255H27.9322C27.7824 19.5255 27.661 19.404 27.661 19.2543V9.76275H29.2881C29.4698 9.76288 29.6512 9.74837 29.8305 9.71936Z" />
<path d="M6.50848 16.2712H16.2712C16.5707 16.2712 16.8136 16.5141 16.8136 16.8136V19.2543C16.8136 19.4041 16.6921 19.5255 16.5424 19.5255H6.23729C6.08752 19.5255 5.9661 19.4041 5.9661 19.2543V16.8136C5.9661 16.5141 6.20893 16.2712 6.50848 16.2712Z" />
<path d="M10.8475 10.8474H6.50848C6.20893 10.8474 5.9661 11.0902 5.9661 11.3898V12.4745C5.9661 12.7741 6.20893 13.0169 6.50848 13.0169H10.8475C11.147 13.0169 11.3898 12.7741 11.3898 12.4745V11.3898C11.3898 11.0902 11.147 10.8474 10.8475 10.8474Z" />
<path d="M9.49153 13.5593H7.86441C7.71464 13.5593 7.59322 13.6807 7.59322 13.8305V15.4576C7.59322 15.6074 7.71464 15.7288 7.86441 15.7288H9.49153C9.6413 15.7288 9.76272 15.6074 9.76272 15.4576V13.8305C9.76272 13.6807 9.6413 13.5593 9.49153 13.5593Z" />
<path d="M21.6949 15.1864L22.2075 19.2878C22.2245 19.4243 22.3411 19.5264 22.4786 19.5254H24.1698C24.3073 19.5264 24.4239 19.4243 24.4409 19.2878L24.9492 15.1864H21.6949Z" />
<path d="M30.3729 29.8306H1.08475C0.485657 29.8306 0 30.3162 0 30.9153C0 31.5144 0.485657 32.0001 1.08475 32.0001H30.3729C30.972 32.0001 31.4576 31.5144 31.4576 30.9153C31.4576 30.3162 30.972 29.8306 30.3729 29.8306Z" />
</svg>
