<svg width="32" height="32" viewBox="0 0 32 32"  xmlns="http://www.w3.org/2000/svg">
<path d="M10.6875 26.0625C10.6875 27.2706 11.6669 28.25 12.875 28.25H19.125C20.3331 28.25 21.3125 27.2706 21.3125 26.0625V25H10.6875V26.0625Z" />
<path d="M14.4375 32H17.5625C18.5981 32 19.4375 31.1606 19.4375 30.125H12.5625C12.5625 31.1606 13.4019 32 14.4375 32Z" />
<path d="M31.0625 10H29.1875C28.6697 10 28.25 10.4197 28.25 10.9375C28.25 11.4553 28.6697 11.875 29.1875 11.875H31.0625C31.5803 11.875 32 11.4553 32 10.9375C32 10.4197 31.5803 10 31.0625 10Z" />
<path d="M29.0313 6.43688L30.655 5.49938C31.1034 5.24051 31.257 4.66713 30.9981 4.21876C30.7393 3.77038 30.1659 3.61676 29.7175 3.87563L28.0938 4.81313C27.6454 5.07201 27.4918 5.64538 27.7506 6.09376C28.0095 6.54213 28.5829 6.69576 29.0313 6.43688Z" />
<path d="M30.655 16.3756L29.0313 15.4381C28.5829 15.1793 28.0095 15.3329 27.7506 15.7813C27.4918 16.2296 27.6454 16.803 28.0938 17.0619L29.7175 17.9994C30.1659 18.2583 30.7393 18.1046 30.9981 17.6563C31.257 17.2079 31.1034 16.6345 30.655 16.3756Z" />
<path d="M2.8125 11.875C3.33025 11.875 3.75 11.4553 3.75 10.9375C3.75 10.4197 3.33025 10 2.8125 10H0.9375C0.41975 10 0 10.4197 0 10.9375C0 11.4553 0.41975 11.875 0.9375 11.875H2.8125Z" />
<path d="M3.90626 4.81313L2.28251 3.87563C1.83413 3.61676 1.26076 3.77038 1.00188 4.21876C0.743009 4.66713 0.896634 5.24051 1.34501 5.49938L2.96876 6.43688C3.41713 6.69576 3.99051 6.54213 4.24938 6.09376C4.50826 5.64538 4.35463 5.07201 3.90626 4.81313Z" />
<path d="M2.96876 15.4381L1.34501 16.3756C0.896634 16.6345 0.743009 17.2079 1.00188 17.6563C1.26076 18.1046 1.83413 18.2583 2.28251 17.9994L3.90626 17.0619C4.35463 16.803 4.50826 16.2296 4.24938 15.7813C3.99051 15.3329 3.41713 15.1793 2.96876 15.4381Z" />
<path d="M20.0625 14.0625V13.75H19.75C18.1992 13.75 16.9375 15.0117 16.9375 16.5625V16.875H17.25C18.8008 16.875 20.0625 15.6133 20.0625 14.0625Z" />
<path d="M16.221 6.23431L16 6.01331L15.779 6.23431C14.6824 7.33087 14.6824 9.11518 15.779 10.2118L16 10.4328L16.221 10.2118C17.3176 9.11518 17.3176 7.33087 16.221 6.23431Z" />
<path d="M12.25 13.75H11.9375V14.0625C11.9375 15.6133 13.1992 16.875 14.75 16.875H15.0625V16.5625C15.0625 15.0117 13.8008 13.75 12.25 13.75Z" />
<path d="M16 0C9.96906 0 5.0625 4.90656 5.0625 10.9375C5.0625 14.0622 6.40644 17.044 8.74975 19.1183C9.90344 20.1396 10.5961 21.5858 10.6791 23.125H15.0625V18.75H14.75C12.1653 18.75 10.0625 16.6472 10.0625 14.0625V12.8125C10.0625 12.2948 10.4823 11.875 11 11.875H12.25C13.3044 11.875 14.2785 12.2252 15.0625 12.8151V12.1469L14.4532 11.5376C12.6256 9.70994 12.6256 6.73612 14.4532 4.9085L15.3371 4.02456C15.7032 3.6585 16.2968 3.6585 16.6629 4.02456L17.5469 4.90844C19.3744 6.73612 19.3744 9.70994 17.5469 11.5376L16.9375 12.1469V12.8151C17.7215 12.2252 18.6956 11.875 19.75 11.875H21C21.5177 11.875 21.9375 12.2948 21.9375 12.8125V14.0625C21.9375 16.6472 19.8347 18.75 17.25 18.75H16.9375V23.125H21.3209C21.4039 21.5858 22.0966 20.1396 23.2502 19.1183C25.5936 17.044 26.9375 14.0622 26.9375 10.9375C26.9375 4.90656 22.0309 0 16 0V0Z" />
</svg>
