<svg width="32" height="32" viewBox="0 0 32 32"  xmlns="http://www.w3.org/2000/svg">
<path d="M30.6828 24.3175L17.9707 11.6054C18.1979 10.7793 18.3148 9.94657 18.3148 9.12744C18.3148 6.41564 17.0964 3.80718 14.8872 2.01754C12.8086 0.331164 10.0898 -0.343175 7.42617 0.166088C6.99047 0.262417 6.88115 0.763389 7.15778 1.0403L11.1843 5.0668L10.3515 10.5043L5.07943 11.1855L1.03931 7.14541C0.755079 6.86118 0.260757 6.98444 0.165093 7.4138C0.0548203 7.99209 0 8.57007 0 9.14837C0 11.5505 0.949982 13.8837 2.68422 15.6182C5.03131 17.9653 8.4177 18.8462 11.604 17.9653C29.0349 35.3864 23.0223 29.3779 24.3235 30.6774C26.098 32.4519 28.9378 32.4298 30.69 30.6774C32.4379 28.9289 32.4379 26.0796 30.6827 24.3176L30.6828 24.3175ZM27.62 27.6142C27.1174 28.1098 26.3053 28.1098 25.8031 27.6142C25.3062 27.118 25.3056 26.3084 25.81 25.804C26.3861 25.2273 27.1859 25.3629 27.6203 25.797C28.1244 26.3018 28.125 27.1098 27.62 27.6142V27.6142Z" />
</svg>
