<svg width="25" height="32" viewBox="0 0 25 32"  xmlns="http://www.w3.org/2000/svg">
<path d="M2.8125 7.5H21.5625C22.0803 7.5 22.5 7.08032 22.5 6.5625V0.9375C22.5 0.419678 22.0803 0 21.5625 0H2.8125C2.29468 0 1.875 0.419678 1.875 0.9375V6.5625C1.875 7.08032 2.29468 7.5 2.8125 7.5Z" />
<path d="M20.9375 9.375H3.4375C1.54199 9.375 0 10.917 0 12.8125V28.5625C0 30.458 1.54199 32 3.4375 32H20.9375C22.833 32 24.375 30.458 24.375 28.5625V12.8125C24.375 10.917 22.833 9.375 20.9375 9.375ZM18.75 21.5625C18.75 22.7847 17.9663 23.8274 16.875 24.2144V25.3125C16.875 26.8633 15.6133 28.125 14.0625 28.125H10.3125C8.76172 28.125 7.5 26.8633 7.5 25.3125V24.2144C6.40869 23.8274 5.625 22.7847 5.625 21.5625V19.7581C5.625 16.1274 8.54663 13.1519 12.1379 13.1252C15.7932 13.0994 18.75 16.0474 18.75 19.6875V21.5625Z" />
<path d="M7.5 19.7581V21.5625C7.5 22.0794 7.92065 22.5 8.4375 22.5C8.95532 22.5 9.375 22.9197 9.375 23.4375V25.3125C9.375 25.8294 9.79565 26.25 10.3125 26.25H14.0625C14.5793 26.25 15 25.8294 15 25.3125V23.4375C15 22.9197 15.4197 22.5 15.9375 22.5C16.4543 22.5 16.875 22.0794 16.875 21.5625V19.6875C16.875 18.429 16.3831 17.2473 15.4897 16.3606C12.5344 13.4273 7.5 15.5442 7.5 19.7581ZM10.3125 20.625C9.79468 20.625 9.375 20.2053 9.375 19.6875C9.375 19.1697 9.79468 18.75 10.3125 18.75C10.8303 18.75 11.25 19.1697 11.25 19.6875C11.25 20.2053 10.8303 20.625 10.3125 20.625ZM12.1875 24.375C11.6697 24.375 11.25 23.9553 11.25 23.4375C11.25 22.9197 11.6697 22.5 12.1875 22.5C12.7053 22.5 13.125 22.9197 13.125 23.4375C13.125 23.9553 12.7053 24.375 12.1875 24.375ZM14.0625 20.625C13.5447 20.625 13.125 20.2053 13.125 19.6875C13.125 19.1697 13.5447 18.75 14.0625 18.75C14.5803 18.75 15 19.1697 15 19.6875C15 20.2053 14.5803 20.625 14.0625 20.625Z" />
</svg>
