<svg width="25" height="32" viewBox="0 0 25 32"  xmlns="http://www.w3.org/2000/svg">
<path d="M0 9.71795C0 10.4413 0.273813 11.1016 0.722875 11.6016C0.273813 12.1015 0 12.7619 0 13.4852C0 15.0412 1.26594 16.3071 2.82194 16.3071H3.76725V9.95638C2.46537 9.76982 1.2855 9.2007 0.345188 8.36682C0.12525 8.76832 0 9.22876 0 9.71795Z" />
<path d="M24.1257 8.3678C23.1819 9.20449 21.9967 9.77436 20.6892 9.95855V16.3072H21.6485C23.2045 16.3072 24.4704 15.0412 24.4704 13.4852C24.4704 12.7619 24.1966 12.1015 23.7476 11.6016C24.1966 11.1017 24.4704 10.4413 24.4704 9.71799C24.4704 9.22924 24.3453 8.76911 24.1257 8.3678Z" />
<path d="M2.08218 2.50781H0.939117C0.421367 2.50781 0.00161743 2.92756 0.00161743 3.44531C0.00161743 5.72688 1.63493 7.6335 3.79355 8.05906C3.8863 7.37675 4.22574 6.77219 4.71918 6.33806C3.42543 5.43662 2.46943 4.08294 2.08218 2.50781Z" />
<path d="M24.4704 3.44531C24.4704 2.92756 24.0506 2.50781 23.5329 2.50781H22.3898C22.0017 4.08644 21.0423 5.44269 19.7441 6.34406C20.2345 6.77831 20.5714 7.38156 20.6632 8.06181C22.8293 7.64219 24.4704 5.73225 24.4704 3.44531Z" />
<path d="M15.0563 16.4194V18.9825C16.152 19.3697 16.9391 20.4161 16.9391 21.6426C16.9391 23.1977 15.6739 24.4629 14.1188 24.4629H10.3532C8.79806 24.4629 7.53287 23.1977 7.53287 21.6426C7.53287 20.416 8.31999 19.3697 9.41568 18.9825V16.4194C8.86062 16.7427 8.21631 16.9289 7.52893 16.9289C6.84156 16.9289 6.19731 16.7427 5.64218 16.4194V29.2031C5.64218 30.7453 6.89687 32 8.43906 32H16.0172C17.5594 32 18.8141 30.7453 18.8141 29.2031V16.4284C18.2625 16.7461 17.6239 16.9289 16.9429 16.9289C16.2557 16.9289 15.6114 16.7427 15.0563 16.4194ZM16.0016 30.1094C15.4839 30.1094 15.0641 29.6896 15.0641 29.1719C15.0641 28.6506 14.6401 28.2266 14.1188 28.2266H10.3532C9.83193 28.2266 9.40787 28.6506 9.40787 29.1719C9.40787 29.6896 8.98812 30.1094 8.47037 30.1094C7.95262 30.1094 7.53287 29.6896 7.53287 29.1719C7.53287 27.6167 8.79806 26.3516 10.3532 26.3516H14.1188C15.6739 26.3516 16.9391 27.6167 16.9391 29.1719C16.9391 29.6896 16.5194 30.1094 16.0016 30.1094Z" />
<path d="M6.56412 7.51562C6.0558 7.51562 5.64224 7.92919 5.64224 8.4375V9.91494C6.1973 9.59169 6.84162 9.4055 7.52899 9.4055C8.21637 9.4055 8.86062 9.59169 9.41574 9.91494V7.51562H8.47043H6.56412Z" />
<path d="M18.8141 9.90594V8.4375C18.8141 7.92919 18.4006 7.51562 17.8922 7.51562H16.0016H15.0563V9.91494C15.6114 9.59169 16.2557 9.4055 16.9431 9.4055C17.6239 9.40544 18.2626 9.58825 18.8141 9.90594Z" />
<path d="M11.2907 7.51562V19.7598C11.2907 20.2776 10.8709 20.6973 10.3532 20.6973C9.83193 20.6973 9.40787 21.1214 9.40787 21.6426C9.40787 22.1639 9.83193 22.5879 10.3532 22.5879H14.1188C14.6401 22.5879 15.0641 22.1639 15.0641 21.6426C15.0641 21.1214 14.6401 20.6973 14.1188 20.6973C13.6011 20.6973 13.1813 20.2776 13.1813 19.7598V7.51562H11.2907Z" />
<path d="M7.52899 15.0539C8.57102 15.0539 9.41574 14.2092 9.41574 13.1671C9.41574 12.1251 8.57102 11.2804 7.52899 11.2804C6.48697 11.2804 5.64224 12.1251 5.64224 13.1671C5.64224 14.2092 6.48697 15.0539 7.52899 15.0539Z" />
<path d="M16.9431 15.0539C17.9851 15.0539 18.8298 14.2092 18.8298 13.1671C18.8298 12.1251 17.9851 11.2804 16.9431 11.2804C15.901 11.2804 15.0563 12.1251 15.0563 13.1671C15.0563 14.2092 15.901 15.0539 16.9431 15.0539Z" />
<path d="M19.7672 0H16.0016C14.463 0 13.0946 0.74275 12.236 1.8885C11.3774 0.74275 10.0091 0 8.47037 0H4.70474C4.18699 0 3.76724 0.41975 3.76724 0.9375C3.76724 3.53081 5.87705 5.64062 8.47037 5.64062H16.0016C18.5949 5.64062 20.7047 3.53081 20.7047 0.9375C20.7047 0.41975 20.285 0 19.7672 0Z" />
</svg>
