<svg width="32" height="32" viewBox="0 0 32 32"  xmlns="http://www.w3.org/2000/svg">
<path fill-rule="evenodd" clip-rule="evenodd" d="M26.7113 14.7257C28.5811 16.7977 29.9751 18.5955 30.8932 20.2074C34.2553 26.1107 29.4724 32.1065 23.067 31.9986C16.6617 32.1065 11.8788 26.1107 15.2409 20.2074C16.159 18.5955 17.553 16.7977 19.4228 14.7257C19.646 14.7964 19.8834 14.8346 20.1295 14.8346H26.0045C26.2507 14.8346 26.4881 14.7964 26.7113 14.7257ZM2.9333 0C1.31994 0 0 1.32 0 2.9333V24.3771C0 25.9905 1.31994 27.3104 2.9333 27.3104H13.7351C12.6794 24.7878 12.9988 22.0584 14.344 19.6965C14.6188 19.2141 14.9202 18.7359 15.2415 18.2635C15.0557 18.1433 14.9322 17.9341 14.9322 17.697V16.8204C14.9322 16.449 15.2351 16.1461 15.6065 16.1461H16.8295C17.3762 15.4741 17.945 14.8201 18.5142 14.1887C18.3461 14.0293 18.2016 13.8453 18.0863 13.6426H15.6065C15.2351 13.6426 14.9322 13.3397 14.9322 12.9683V12.0916C14.9322 11.7202 15.2351 11.4173 15.6065 11.4173H18.0381C18.2477 11.0092 18.5733 10.6698 18.9708 10.4431L18.2701 9.74242C17.8435 9.3159 17.613 8.7659 17.578 8.20577H3.91105C3.53963 8.20577 3.23672 7.90287 3.23672 7.53145V4.88466C3.23672 4.51324 3.53963 4.21034 3.91105 4.21034H18.7464C19.1178 4.21034 19.4207 4.51324 19.4207 4.88466V5.73325C19.8966 5.62408 20.4027 5.66041 20.8653 5.85015C21.1781 5.1015 21.8565 4.5575 22.6575 4.41731V2.9333C22.6575 1.32 21.3375 0 19.7242 0H2.9333ZM20.1296 13.8024C19.4052 13.8024 18.8126 13.2098 18.8126 12.4855C18.8126 11.7612 19.4052 11.1686 20.1296 11.1686H26.0046C26.7289 11.1686 27.3215 11.7612 27.3215 12.4855C27.3215 13.2097 26.7289 13.8024 26.0046 13.8024H20.1296ZM4.5306 11.4173H7.05093C7.42235 11.4173 7.72525 11.7202 7.72525 12.0916V12.9682C7.72525 13.3397 7.42235 13.6426 7.05093 13.6426H4.5306C4.15918 13.6426 3.85627 13.3397 3.85627 12.9682V12.0916C3.85627 11.7202 4.15918 11.4173 4.5306 11.4173ZM10.0686 20.8748C9.69713 20.8748 9.39423 21.1777 9.39423 21.5491V22.4258C9.39423 22.7972 9.69713 23.1001 10.0686 23.1001H12.5889C12.9603 23.1001 13.2632 22.7972 13.2632 22.4258V21.5491C13.2632 21.1777 12.9603 20.8748 12.5889 20.8748H10.0686ZM4.5306 20.8748H7.05093C7.42235 20.8748 7.72525 21.1777 7.72525 21.5491V22.4258C7.72525 22.7972 7.42235 23.1001 7.05093 23.1001H4.5306C4.15918 23.1001 3.85627 22.7972 3.85627 22.4258V21.5491C3.85627 21.1777 4.15918 20.8748 4.5306 20.8748ZM10.0686 16.146C9.69713 16.146 9.39423 16.4489 9.39423 16.8203V17.697C9.39423 18.0684 9.69713 18.3713 10.0686 18.3713H12.5889C12.9603 18.3713 13.2632 18.0684 13.2632 17.697V16.8203C13.2632 16.4489 12.9603 16.146 12.5889 16.146H10.0686ZM4.5306 16.146H7.05093C7.42235 16.146 7.72525 16.4489 7.72525 16.8203V17.697C7.72525 18.0684 7.42235 18.3713 7.05093 18.3713H4.5306C4.15918 18.3713 3.85627 18.0684 3.85627 17.697V16.8203C3.85627 16.449 4.15918 16.146 4.5306 16.146ZM10.0686 11.4173H12.5889C12.9603 11.4173 13.2632 11.7202 13.2632 12.0916V12.9682C13.2632 13.3397 12.9603 13.6426 12.5889 13.6426H10.0686C9.69713 13.6426 9.39423 13.3397 9.39423 12.9682V12.0916C9.39423 11.7202 9.69713 11.4173 10.0686 11.4173ZM22.9995 25.8056C22.6038 25.7953 22.2196 25.6882 21.9133 25.4842C21.6361 25.2996 21.4244 25.0296 21.3359 24.6749C21.2572 24.3547 20.9338 24.1589 20.6136 24.2377C20.2934 24.3165 20.0976 24.6399 20.1764 24.9601C20.3434 25.6301 20.7385 26.1367 21.2541 26.4801C21.6063 26.7147 22.0153 26.8697 22.4436 26.9453V27.4098C22.4436 27.7404 22.7116 28.0084 23.0421 28.0084C23.3727 28.0084 23.6406 27.7404 23.6406 27.4098V26.9567C24.1611 26.8773 24.6914 26.6873 25.1078 26.3714C25.6082 25.9918 25.9411 25.4481 25.9237 24.7185C25.9217 24.6349 25.9169 24.5614 25.9093 24.4987C25.8123 23.6992 25.3798 23.1788 24.8062 22.8325C24.3025 22.5283 23.6983 22.3769 23.1445 22.2859C22.745 22.2203 22.3242 22.1094 22.0161 21.9082C21.7773 21.7523 21.6061 21.5267 21.59 21.1967C21.5727 20.8397 21.7285 20.5516 21.9741 20.3519C22.1665 20.1956 22.412 20.0868 22.678 20.0333C22.785 20.0117 22.8952 19.9993 23.0065 19.9964C23.0183 19.9971 23.0301 19.9975 23.0421 19.9975C23.0565 19.9975 23.0707 19.997 23.0849 19.9959C23.232 19.9981 23.3802 20.017 23.5249 20.0536C23.9698 20.1664 24.3749 20.4596 24.5882 20.9677C24.716 21.2724 25.0667 21.4158 25.3714 21.2879C25.6761 21.1601 25.8194 20.8094 25.6916 20.5048C25.316 19.6102 24.6009 19.0933 23.8148 18.8941C23.7571 18.8794 23.6991 18.8666 23.6406 18.8555V18.3918C23.6406 18.0613 23.3727 17.7933 23.0421 17.7933C22.7116 17.7933 22.4436 18.0613 22.4436 18.3918V18.8645C21.9901 18.9559 21.5643 19.1474 21.2214 19.4262C20.6943 19.8548 20.36 20.477 20.3977 21.2529C20.4355 22.0325 20.8245 22.5554 21.3661 22.9089C21.8383 23.2171 22.4181 23.3766 22.9528 23.4643C23.3822 23.5349 23.8407 23.6463 24.1891 23.8566C24.4677 24.0248 24.677 24.2707 24.7217 24.6391C24.7276 24.6882 24.7309 24.7238 24.7314 24.7466C24.7383 25.0395 24.5982 25.2627 24.3878 25.4223C24.1243 25.6222 23.7544 25.7401 23.3845 25.785C23.2838 25.7972 23.1958 25.8042 23.1212 25.8059L23.0927 25.8064C23.076 25.805 23.0591 25.8043 23.0421 25.8043C23.0278 25.8041 23.0136 25.8047 22.9995 25.8056ZM20.1239 10.1364L19 9.01248C18.4737 8.48616 18.4737 7.62493 19 7.09867C19.4476 6.65099 20.1563 6.57538 20.6889 6.91725C20.8868 7.04422 21.114 7.06448 21.3311 6.97461C21.5482 6.88467 21.6945 6.70977 21.7447 6.48002C21.8773 5.87254 22.4212 5.41402 23.067 5.41389C23.7012 5.41389 24.2543 5.86092 24.3895 6.48002C24.4396 6.70977 24.586 6.88467 24.8031 6.97461C25.0203 7.06461 25.2474 7.04422 25.4452 6.91725C25.9685 6.58138 26.6775 6.64196 27.1341 7.09854V7.09867C27.6604 7.62499 27.6604 8.48622 27.1341 9.01248L26.0102 10.1364L26.0045 10.1364H20.1295L20.1239 10.1364Z" />
</svg>
