<svg width="32" height="32" viewBox="0 0 32 32"  xmlns="http://www.w3.org/2000/svg">
<path d="M31.4839 30.4521H28.9868C28.5368 28.9001 27.3481 27.7285 25.9337 27.4617C25.6872 27.4152 25.4382 27.3974 25.1897 27.4054C25.2397 26.6072 25.2206 25.8176 25.1254 25.0418C25.1582 24.9538 25.2426 24.8168 25.4575 24.6434C25.9195 24.9502 26.5742 25.257 27.4044 25.3128C28.9974 25.4201 30.079 24.5262 30.2994 24.336C29.9874 22.6428 28.5086 21.544 27.0872 21.7311C26.1169 21.8588 25.263 22.5742 24.8526 23.577C24.761 23.2067 24.6537 22.8397 24.5275 22.4774C24.6759 21.8434 24.7541 20.9001 24.3257 19.9035C23.5032 17.9905 21.5515 17.5979 21.3892 17.5683C21.3252 17.9752 21.0529 19.9734 22.3417 21.6955C22.7324 22.2176 23.1708 22.5853 23.5623 22.8457C24.0854 24.361 24.2818 25.959 24.1445 27.5977C22.921 28.0044 21.8459 29.0335 21.377 30.4521H19.8606C19.4403 28.8359 18.223 27.6072 16.7693 27.3326C16.5228 27.2862 16.2738 27.2689 16.0253 27.2769C16.0733 26.504 16.056 25.7394 15.968 24.9871C16.0181 24.8387 16.1234 24.585 16.3164 24.3345C16.7455 24.6457 17.3969 24.9879 18.2475 25.0452C19.7179 25.1443 20.7164 24.3192 20.9197 24.1435C20.6317 22.5806 19.2668 21.5662 17.9548 21.7388C17.1443 21.8454 16.4245 22.399 16.0139 23.1886C15.999 23.1985 15.9835 23.2065 15.9695 23.2181C15.8679 23.3009 15.7794 23.3884 15.6963 23.4769C15.6289 23.2023 15.5502 22.9303 15.464 22.6599C15.6446 21.9742 15.7745 20.8857 15.2777 19.7301C14.384 17.6511 12.263 17.2245 12.0865 17.1923C12.017 17.6346 11.721 19.8059 13.1215 21.6777C13.5535 22.2552 14.0403 22.6599 14.4712 22.9437C14.9373 24.391 15.1105 25.9107 14.9801 27.4684C13.7182 27.8867 12.6134 28.9657 12.1685 30.4516H10.855C10.4674 28.7716 9.22245 27.4852 7.73006 27.2034C7.48361 27.1569 7.23458 27.1396 6.98606 27.1476C7.0351 26.3618 7.01703 25.5845 6.92516 24.8201C6.97987 24.6785 7.09084 24.4415 7.27665 24.2052C7.70581 24.5164 8.35742 24.8591 9.20826 24.9164C10.6787 25.0155 11.6772 24.1905 11.8805 24.0147C11.5925 22.4519 10.2276 21.4377 8.91561 21.6101C8.09987 21.7174 7.37419 22.2751 6.96465 23.0728C6.93445 23.0895 6.72568 23.2746 6.65652 23.3476C6.56619 22.9788 6.4591 22.6137 6.33471 22.2526C6.48645 21.6129 6.56981 20.6537 6.13419 19.6405C5.30426 17.7102 3.33471 17.3141 3.17084 17.2841C3.10632 17.6947 2.83148 19.7112 4.13187 21.449C4.52697 21.977 4.97058 22.3486 5.36619 22.6114C5.62323 23.3613 5.80181 24.1311 5.89781 24.9164C5.76903 24.8526 5.62632 24.848 5.49987 24.8916C4.85419 24.248 3.93497 24.0212 3.16645 24.3244C2.44594 24.6085 1.93316 25.3277 1.81523 26.1737C2.168 26.3107 2.94116 26.5556 3.91716 26.4049C4.56181 26.3053 5.07484 26.0674 5.44129 25.8423C5.75045 26.0021 5.95535 26.335 5.976 26.7141C5.976 26.7161 5.97677 26.7179 5.97703 26.72C5.97032 26.9259 5.95794 27.1326 5.94065 27.3399C4.64232 27.7703 3.5089 28.8991 3.0911 30.4519H0.516129C0.231226 30.4519 0 30.6828 0 30.9677C0 31.2529 0.231226 31.4839 0.516129 31.4839H31.4839C31.7688 31.4839 32 31.2529 32 30.968C32 30.6831 31.7688 30.4521 31.4839 30.4521ZM26.0126 28.8532H26.3066C26.5915 28.8532 26.8227 29.0841 26.8227 29.369C26.8227 29.6539 26.5915 29.8849 26.3066 29.8849H26.0126C25.7277 29.8849 25.4965 29.6539 25.4965 29.369C25.4965 29.0844 25.7275 28.8532 26.0126 28.8532ZM23.3378 28.9845C23.5182 28.7636 23.8434 28.7316 24.064 28.9115L24.3494 29.1445C24.5701 29.3249 24.6028 29.6498 24.4225 29.8705C24.1905 30.0957 23.9484 30.12 23.6963 29.9435L23.4108 29.7105C23.1899 29.5301 23.1574 29.2052 23.3378 28.9845ZM17.2201 29.1448H17.5141C17.799 29.1448 18.0302 29.3757 18.0302 29.6606C18.0302 29.9455 17.799 30.1765 17.5141 30.1765H17.2201C16.9352 30.1765 16.704 29.9455 16.704 29.6606C16.704 29.3757 16.9352 29.1448 17.2201 29.1448ZM15.0741 28.3383C15.3543 28.2828 15.625 28.4661 15.6797 28.7456L15.7368 29.0369C15.7915 29.3166 15.609 29.5876 15.3293 29.6423C15.071 29.6911 14.8692 29.5554 14.7236 29.2351L14.6666 28.9437C14.6121 28.664 14.7943 28.393 15.0741 28.3383ZM7.35148 28.2121H7.64542C7.93032 28.2121 8.16155 28.4431 8.16155 28.728C8.16155 29.0129 7.93032 29.2439 7.64542 29.2439H7.35148C7.06658 29.2439 6.83535 29.0129 6.83535 28.728C6.83535 28.4431 7.06632 28.2121 7.35148 28.2121ZM5.34452 29.1448H5.63845C5.92336 29.1448 6.15458 29.3757 6.15458 29.6606C6.15458 29.9455 5.92336 30.1765 5.63845 30.1765H5.34452C5.05961 30.1765 4.82839 29.9455 4.82839 29.6606C4.82839 29.3757 5.05961 29.1448 5.34452 29.1448Z" />
<path d="M28.0776 9.67948L25.595 7.74993C25.1852 6.28335 25.1096 4.38813 25.1806 3.21367C25.2688 1.75432 24.6882 0.7009 23.4459 0.162836C22.211 -0.372132 20.4812 0.469675 20.193 1.83148L19.8552 3.09961L18.9057 2.31071L14.8229 6.50142L16.6536 8.93729L21.2288 4.24155L20.7295 3.82658L21.1966 2.072C21.3633 1.28929 22.4015 0.886707 23.0949 1.13316C23.9354 1.43174 24.2536 2.37626 24.1483 3.21961C24.1537 4.144 24.162 5.49058 24.3501 6.78245L21.745 4.75767L17.1697 9.45342L19.6028 12.6908L14.1607 11.6508L14.1785 11.5455L12.2766 10.7342L11.7793 13.6085L13.8497 13.4867L13.8737 13.345L21.2041 14.8217L22.0157 15.9017C22.3303 16.2415 22.6683 16.2679 23.0291 15.9809L28.1548 10.7195C28.4345 10.351 28.4087 10.0044 28.0776 9.67948Z" />
<path d="M9.29905 19.2854C9.21492 19.2854 9.12976 19.2648 9.05105 19.2214C8.80125 19.0841 8.71015 18.7706 8.84744 18.5208L9.72073 16.9329C9.85802 16.6834 10.1718 16.5923 10.4216 16.7293C10.6714 16.8666 10.7625 17.1801 10.6252 17.4299L9.75196 19.0178C9.65776 19.1889 9.48125 19.2854 9.29905 19.2854Z" />
<path d="M8.63554 15.9918C8.54134 15.9918 8.44586 15.966 8.36018 15.9118C8.11915 15.7595 8.04741 15.4411 8.19966 15.2L9.26779 13.511C9.42005 13.2705 9.73876 13.1982 9.97979 13.3507C10.2208 13.503 10.2926 13.8214 10.1403 14.0625L9.07218 15.7515C8.97412 15.9069 8.80663 15.9918 8.63554 15.9918Z" />
</svg>
