<svg width="22" height="32" viewBox="0 0 22 32"  xmlns="http://www.w3.org/2000/svg">
<path d="M20.7548 16.4528L20.7506 16.4451C20.6007 16.1528 20.4382 15.8683 20.2629 15.5915C20.0877 15.3151 19.9123 15.0383 19.745 14.7571L10.9552 0L2.16517 14.7571C1.99758 15.0383 1.82246 15.3151 1.64704 15.5915C1.47163 15.868 1.30915 16.1521 1.15961 16.4451L1.15509 16.4528C0.383315 17.9641 -0.012419 19.6332 0.000297032 21.3234C0.0367042 27.2662 5.00162 32.0564 11.0618 31.9995C17.0632 31.9431 21.9099 27.1555 21.9099 21.257C21.9121 19.5892 21.5165 17.944 20.7548 16.4528ZM19.0467 25.366C18.4566 26.6958 17.1935 28.4184 14.5283 29.0716C14.3409 29.1161 14.1433 29.0861 13.9784 28.9883C13.8135 28.8904 13.6947 28.7326 13.648 28.5493C13.6013 28.3659 13.6304 28.1719 13.7289 28.0094C13.8275 27.847 13.9875 27.7294 14.1741 27.6822C15.8507 27.2712 17.0395 26.2995 17.7074 24.7944C18.2078 23.667 18.2219 22.6405 18.2219 22.6296C18.2219 22.4397 18.2989 22.2575 18.4358 22.1232C18.5728 21.9889 18.7585 21.9135 18.9522 21.9135C19.1459 21.9135 19.3316 21.9889 19.4686 22.1232C19.6055 22.2575 19.6824 22.4397 19.6824 22.6296C19.6833 22.683 19.6752 23.9497 19.0467 25.366Z" />
</svg>
