<svg width="15" height="16" viewBox="0 0 15 16" xmlns="http://www.w3.org/2000/svg">
<path d="M5.22058 1.77947C4.98489 1.77947 4.75886 1.8731 4.59221 2.03975C4.42556 2.2064 4.33193 2.43243 4.33193 2.66812C4.33193 2.9038 4.42556 3.12983 4.59221 3.29649C4.75886 3.46314 4.98489 3.55677 5.22058 3.55677C5.45626 3.55677 5.68229 3.46314 5.84895 3.29649C6.0156 3.12983 6.10923 2.9038 6.10923 2.66812C6.10923 2.43243 6.0156 2.2064 5.84895 2.03975C5.68229 1.8731 5.45626 1.77947 5.22058 1.77947ZM2.70571 1.77947C2.8893 1.25914 3.22978 0.808566 3.6802 0.489858C4.13062 0.17115 4.66881 0 5.22058 0C5.77235 0 6.31054 0.17115 6.76096 0.489858C7.21138 0.808566 7.55185 1.25914 7.73545 1.77947H14.107C14.3427 1.77947 14.5688 1.8731 14.7354 2.03975C14.9021 2.2064 14.9957 2.43243 14.9957 2.66812C14.9957 2.9038 14.9021 3.12983 14.7354 3.29649C14.5688 3.46314 14.3427 3.55677 14.107 3.55677H7.73545C7.55185 4.0771 7.21138 4.52767 6.76096 4.84638C6.31054 5.16509 5.77235 5.33624 5.22058 5.33624C4.66881 5.33624 4.13062 5.16509 3.6802 4.84638C3.22978 4.52767 2.8893 4.0771 2.70571 3.55677H1.66599C1.43031 3.55677 1.20428 3.46314 1.03762 3.29649C0.870969 3.12983 0.777344 2.9038 0.777344 2.66812C0.777344 2.43243 0.870969 2.2064 1.03762 2.03975C1.20428 1.8731 1.43031 1.77947 1.66599 1.77947H2.70571ZM10.5525 7.11135C10.3168 7.11135 10.0907 7.20498 9.92409 7.37163C9.75744 7.53828 9.66381 7.76432 9.66381 8C9.66381 8.23568 9.75744 8.46171 9.92409 8.62837C10.0907 8.79502 10.3168 8.88865 10.5525 8.88865C10.7881 8.88865 11.0142 8.79502 11.1808 8.62837C11.3475 8.46171 11.4411 8.23568 11.4411 8C11.4411 7.76432 11.3475 7.53828 11.1808 7.37163C11.0142 7.20498 10.7881 7.11135 10.5525 7.11135ZM8.03759 7.11135C8.22119 6.59102 8.56166 6.14045 9.01208 5.82174C9.4625 5.50303 10.0007 5.33188 10.5525 5.33188C11.1042 5.33188 11.6424 5.50303 12.0928 5.82174C12.5433 6.14045 12.8837 6.59102 13.0673 7.11135H14.107C14.3427 7.11135 14.5688 7.20498 14.7354 7.37163C14.9021 7.53828 14.9957 7.76432 14.9957 8C14.9957 8.23568 14.9021 8.46171 14.7354 8.62837C14.5688 8.79502 14.3427 8.88865 14.107 8.88865H13.0673C12.8837 9.40898 12.5433 9.85955 12.0928 10.1783C11.6424 10.497 11.1042 10.6681 10.5525 10.6681C10.0007 10.6681 9.4625 10.497 9.01208 10.1783C8.56166 9.85955 8.22119 9.40898 8.03759 8.88865H1.66599C1.43031 8.88865 1.20428 8.79502 1.03762 8.62837C0.870969 8.46171 0.777344 8.23568 0.777344 8C0.777344 7.76432 0.870969 7.53828 1.03762 7.37163C1.20428 7.20498 1.43031 7.11135 1.66599 7.11135H8.03759ZM5.22058 12.4432C4.98489 12.4432 4.75886 12.5369 4.59221 12.7035C4.42556 12.8702 4.33193 13.0962 4.33193 13.3319C4.33193 13.5676 4.42556 13.7936 4.59221 13.9603C4.75886 14.1269 4.98489 14.2205 5.22058 14.2205C5.45626 14.2205 5.68229 14.1269 5.84895 13.9603C6.0156 13.7936 6.10923 13.5676 6.10923 13.3319C6.10923 13.0962 6.0156 12.8702 5.84895 12.7035C5.68229 12.5369 5.45626 12.4432 5.22058 12.4432ZM2.70571 12.4432C2.8893 11.9229 3.22978 11.4723 3.6802 11.1536C4.13062 10.8349 4.66881 10.6638 5.22058 10.6638C5.77235 10.6638 6.31054 10.8349 6.76096 11.1536C7.21138 11.4723 7.55185 11.9229 7.73545 12.4432H14.107C14.3427 12.4432 14.5688 12.5369 14.7354 12.7035C14.9021 12.8702 14.9957 13.0962 14.9957 13.3319C14.9957 13.5676 14.9021 13.7936 14.7354 13.9603C14.5688 14.1269 14.3427 14.2205 14.107 14.2205H7.73545C7.55185 14.7409 7.21138 15.1914 6.76096 15.5101C6.31054 15.8288 5.77235 16 5.22058 16C4.66881 16 4.13062 15.8288 3.6802 15.5101C3.22978 15.1914 2.8893 14.7409 2.70571 14.2205H1.66599C1.43031 14.2205 1.20428 14.1269 1.03762 13.9603C0.870969 13.7936 0.777344 13.5676 0.777344 13.3319C0.777344 13.0962 0.870969 12.8702 1.03762 12.7035C1.20428 12.5369 1.43031 12.4432 1.66599 12.4432H2.70571Z"/>
</svg>
