<svg width="13" height="19" viewBox="0 0 13 19" xmlns="http://www.w3.org/2000/svg">
<path d="M6.25688 2.83448e-07C5.28898 -0.000200803 4.33423 0.23629 3.46775 0.690867C2.60128 1.14544 1.84672 1.8057 1.26345 2.6197C0.680169 3.4337 0.284086 4.37923 0.106361 5.38189C-0.0713644 6.38455 -0.0258841 7.417 0.239223 8.398C0.322992 8.75139 0.443938 9.09382 0.599814 9.41893C1.88592 11.8946 6.25688 19 6.25688 19C6.25688 19 10.6284 11.894 11.9115 9.41893C12.0679 9.09372 12.1899 8.75135 12.2751 8.398C12.5403 7.41695 12.5857 6.38445 12.408 5.38173C12.2302 4.37902 11.8341 3.43346 11.2507 2.61945C10.6674 1.80544 9.91276 1.14519 9.04621 0.690655C8.17966 0.236121 7.22484 -0.000298818 6.25688 2.83448e-07ZM6.25688 9.5C5.6314 9.50126 5.02405 9.27866 4.53429 8.86866C4.04453 8.45866 3.70139 7.88556 3.56107 7.24321C3.42074 6.60086 3.49155 5.92733 3.7619 5.33293C4.03224 4.73853 4.48609 4.25848 5.04914 3.97139C5.61218 3.68431 6.25104 3.60721 6.86109 3.75272C7.47115 3.89823 8.01624 4.25772 8.4071 4.77233C8.79796 5.28693 9.01142 5.92615 9.01254 6.5853C9.01365 7.24445 8.80234 7.88447 8.41322 8.40053C8.15564 8.74318 7.8279 9.02004 7.4545 9.21043C7.0811 9.40082 6.67169 9.49981 6.25688 9.5Z" fill="black"/>
</svg>
