<svg width="119" height="107" viewBox="0 0 119 107" fill="none" xmlns="http://www.w3.org/2000/svg">
<g opacity="0.12">
<path fill-rule="evenodd" clip-rule="evenodd" d="M8.20602 15.4433V93.7629C8.20602 96.809 10.6754 99.2784 13.7215 99.2784H105.278C108.324 99.2784 110.794 96.809 110.794 93.7629V15.4433H8.20602ZM0.484375 13.2371C0.484375 5.92646 6.41083 0 13.7215 0H105.278C112.589 0 118.515 5.92646 118.515 13.2371V93.7629C118.515 101.074 112.589 107 105.278 107H13.7215C6.41083 107 0.484375 101.074 0.484375 93.7629V13.2371Z" fill="black"/>
<path fill-rule="evenodd" clip-rule="evenodd" d="M60.052 78.319C72.2364 78.319 82.1138 68.4416 82.1138 56.2572C82.1138 44.0727 72.2364 34.1953 60.052 34.1953C47.8675 34.1953 37.9901 44.0727 37.9901 56.2572C37.9901 68.4416 47.8675 78.319 60.052 78.319ZM51.9805 67.2523L60.647 58.5857L69.3137 67.2524L71.0471 65.5191L62.3803 56.8524L71.0472 48.1855L69.3139 46.4521L60.647 55.119L51.9803 46.4523L50.2469 48.1857L58.9137 56.8524L50.2471 65.5189L51.9805 67.2523Z" fill="black"/>
</g>
</svg>
