<svg width="20" height="20" viewBox="0 0 20 20"  xmlns="http://www.w3.org/2000/svg">
<path d="M13.067 11.8692L20 18.8022L18.8022 20L11.8692 13.067C10.6204 14.0568 9.04115 14.6478 7.3239 14.6478C3.27902 14.6478 0 11.3688 0 7.3239C0 3.27902 3.27902 0 7.3239 0C11.3688 0 14.6478 3.27902 14.6478 7.3239C14.6478 9.04115 14.0568 10.6204 13.067 11.8692ZM7.3239 12.9538C10.4332 12.9538 12.9538 10.4332 12.9538 7.3239C12.9538 4.21457 10.4332 1.69396 7.3239 1.69396C4.21457 1.69396 1.69395 4.21457 1.69395 7.3239C1.69395 10.4332 4.21457 12.9538 7.3239 12.9538Z" />
</svg>
