<svg width="16" height="18" viewBox="0 0 16 18" fill="none" xmlns="http://www.w3.org/2000/svg">
<path d="M13.3333 0C11.8711 0 10.6667 1.21949 10.6667 2.7C10.6667 2.87186 10.686 3.03941 10.717 3.20273L4.375 6.94863C3.90981 6.55007 3.3174 6.3 2.66667 6.3C1.20444 6.3 0 7.51949 0 9C0 10.4805 1.20444 11.7 2.66667 11.7C3.3174 11.7 3.90981 11.4499 4.375 11.0514L10.717 14.7955C10.6858 14.9594 10.6667 15.1275 10.6667 15.3C10.6667 16.7805 11.8711 18 13.3333 18C14.7956 18 16 16.7805 16 15.3C16 13.8195 14.7956 12.6 13.3333 12.6C12.6822 12.6 12.0903 12.8514 11.625 13.2504L5.28299 9.50273C5.31396 9.33941 5.33333 9.17186 5.33333 9C5.33333 8.82814 5.31396 8.66059 5.28299 8.49727L11.625 4.75137C12.0902 5.14993 12.6826 5.4 13.3333 5.4C14.7956 5.4 16 4.18051 16 2.7C16 1.21949 14.7956 0 13.3333 0ZM13.3333 1.8C13.8348 1.8 14.2222 2.19228 14.2222 2.7C14.2222 3.20772 13.8348 3.6 13.3333 3.6C12.8319 3.6 12.4444 3.20772 12.4444 2.7C12.4444 2.19228 12.8319 1.8 13.3333 1.8ZM2.66667 8.1C3.16812 8.1 3.55556 8.49228 3.55556 9C3.55556 9.50772 3.16812 9.9 2.66667 9.9C2.16522 9.9 1.77778 9.50772 1.77778 9C1.77778 8.49228 2.16522 8.1 2.66667 8.1ZM13.3333 14.4C13.8348 14.4 14.2222 14.7923 14.2222 15.3C14.2222 15.8077 13.8348 16.2 13.3333 16.2C12.8319 16.2 12.4444 15.8077 12.4444 15.3C12.4444 14.7923 12.8319 14.4 13.3333 14.4Z" fill="black"/>
</svg>
