<svg width="156" height="72" viewBox="0 0 156 72" fill="none" xmlns="http://www.w3.org/2000/svg">
<path d="M2.07919 13.8074V19.0836H9.28876V19.9497H2.07919V25.7787H1.10938V12.8799H10.1122V13.8074H2.07919Z" fill="#101306"/>
<path d="M18.1281 25.9622C15.0784 25.9622 12.8887 24.0151 12.8887 20.4341V12.8914H13.8402V20.3174C13.8402 23.3517 15.4626 25.1022 18.1647 25.1022C20.7631 25.1022 22.4343 23.5175 22.4343 20.4095V12.8914H23.3859V20.299C23.3737 23.9966 21.2327 25.9622 18.1281 25.9622Z" fill="#101306"/>
<path d="M36.8884 25.7671L27.8856 14.324V25.7671H26.9707V12.8683H27.8673L36.6872 24.0903V12.8929H37.596V25.7917L36.8884 25.7671Z" fill="#101306"/>
<path d="M45.6544 25.7671H41.3848V12.8683H45.6544C49.6556 12.8929 52.4492 15.6507 52.4492 19.2931V19.3361C52.4492 22.9539 49.6556 25.7671 45.6544 25.7671ZM51.4855 19.3361C51.4855 16.265 49.2409 13.8081 45.6788 13.8081H42.3363V24.8642H45.6422C49.2043 24.8642 51.4489 22.4073 51.4489 19.3361H51.4855Z" fill="#101306"/>
<path d="M55.6816 25.7671V12.8683H64.776V13.8081H56.6332V18.8632H63.9525V19.7477H56.6332V24.8642H64.8674V25.7487L55.6816 25.7671Z" fill="#101306"/>
<path d="M77.1018 25.7671L73.0335 20.4295H68.8675V25.7671H67.916V12.8683H73.2835C76.0405 12.8683 77.8521 14.3731 77.8521 16.5537V16.5905C77.8521 18.7403 76.2601 19.9688 74.107 20.2759L78.3278 25.804L77.1018 25.7671ZM76.8822 16.5905C76.8822 14.8584 75.5343 13.7773 73.2226 13.7773H68.8675V19.5695H73.1738C75.3147 19.5695 76.9005 18.4823 76.9005 16.6274L76.8822 16.5905Z" fill="#101306"/>
<path d="M85.4526 25.9511C83.533 25.9764 81.6818 25.2343 80.3047 23.8873L80.9146 23.1687C81.5069 23.789 82.22 24.2795 83.0093 24.6092C83.7986 24.939 84.647 25.101 85.5014 25.0851C87.4167 25.0851 88.7341 23.9979 88.7341 22.5299V22.493C88.7341 21.1294 88.0205 20.3371 85.1172 19.7535C82.0674 19.1393 80.8048 18.0767 80.8048 16.1296V16.0927C80.8048 14.1825 82.5432 12.7083 84.9159 12.7083C86.5206 12.6541 88.0866 13.2112 89.3014 14.2685L88.6914 15.0363C87.6509 14.0769 86.2836 13.5579 84.8732 13.5867C82.9946 13.5867 81.7503 14.6677 81.7503 16.0129V16.0497C81.7503 17.4072 82.4456 18.2364 85.477 18.8629C88.5085 19.4894 89.6735 20.5336 89.6735 22.4132V22.45C89.6857 24.5138 87.9168 25.9511 85.4526 25.9511Z" fill="#101306"/>
<path d="M10.9437 48.7273L6.84489 42.585H2.80705V48.7273H1.20898V32.9109H7.30845C10.4192 32.9109 12.4198 34.7536 12.4198 37.6343C12.4198 40.2816 10.8034 41.8172 8.58324 42.2656L12.9261 48.7273H10.9437ZM7.16817 34.5632H2.80705V40.9819H7.14987C9.27248 40.9819 10.8095 39.7534 10.8095 37.7019C10.7852 35.7363 9.44937 34.5632 7.16817 34.5632Z" fill="#101306"/>
<path d="M25.5428 34.5386H16.9181V39.9377H24.6462V41.5654H16.9181V47.0935H25.6465V48.715H15.3262V32.9109H25.5428V34.5386Z" fill="#101306"/>
<path d="M34.9332 49.0025C30.4928 49.0025 27.748 45.3847 27.748 40.8456C27.748 36.4784 30.5965 32.6394 34.8356 32.6394C35.8107 32.6019 36.7829 32.7693 37.6903 33.131C38.5976 33.4926 39.4202 34.0407 40.1056 34.7401L39.0748 36.0976C38.5251 35.5081 37.8578 35.0424 37.1166 34.7312C36.3755 34.4199 35.5773 34.2702 34.7746 34.2917C31.6456 34.2917 29.401 37.2523 29.401 40.7964C29.401 44.5924 31.5663 47.3932 34.9942 47.3932C36.4984 47.377 37.9466 46.8167 39.0748 45.8147V41.8836H34.7746V40.2805H40.6118V46.5825C39.1083 48.1093 37.0683 48.9786 34.9332 49.0025Z" fill="#101306"/>
<path d="M53.9232 34.5386H45.3107V39.9377H53.0265V41.5654H45.3107V47.0935H54.0391V48.715H43.7188V32.9109H53.9232V34.5386Z" fill="#101306"/>
<path d="M67.1633 32.9109H68.7186V48.7273H67.4499L58.3007 35.7609V48.7273H56.7637V32.9109H58.258L67.1633 45.5886V32.9109Z" fill="#101306"/>
<path d="M82.4515 34.5386H73.8268V39.9377H81.5426V41.5654H73.8268V47.0935H82.549V48.715H72.2227V32.9109H82.4454L82.4515 34.5386Z" fill="#101306"/>
<path d="M95.0101 48.7273L90.9113 42.585H86.8613V48.7273H85.2754V32.9109H91.3749C94.4856 32.9109 96.4801 34.7536 96.4801 37.6343C96.4801 40.2816 94.8637 41.8172 92.6435 42.2656L96.9864 48.7273H95.0101ZM91.2346 34.5632H86.8613V40.9819H91.2041C93.3206 40.9819 94.8637 39.7534 94.8637 37.7019C94.8454 35.7363 93.5158 34.5632 91.2346 34.5632Z" fill="#101306"/>
<path d="M112.56 48.7271H110.846L109.187 44.5504H101.502L99.8244 48.7271H98.1836L104.631 32.8002H106.125L112.56 48.7271ZM105.35 34.8763L102.112 42.9472H108.553L105.35 34.8763Z" fill="#101306"/>
<path d="M118.395 48.7273H116.779V34.5632H112.033V32.9109H123.14V34.5632H118.395V48.7273Z" fill="#101306"/>
<path d="M127.381 32.9109V48.7273H125.783V32.9109H127.381Z" fill="#101306"/>
<path d="M141.68 32.9101H143.394L137.319 48.8186H135.904L129.805 32.8855H131.586L136.612 46.5153L141.68 32.9101Z" fill="#101306"/>
<path d="M155.895 34.5386H147.246V39.9377H154.961V41.5654H147.246V47.0935H155.968V48.715H145.672V32.9109H155.895V34.5386Z" fill="#101306"/>
<path d="M14.3764 71.7297H12.6625L11.0034 67.5529H3.29981L1.62246 71.7297H0L6.44104 55.8027H7.93541L14.3764 71.7297ZM7.16688 57.8788L3.90976 65.9437H10.3813L7.16688 57.8788Z" fill="#101306"/>
<path d="M23.8319 71.9988C19.3854 71.9988 16.6406 68.3871 16.6406 63.8419C16.6406 59.4808 19.4891 55.6419 23.7282 55.6419C24.7033 55.6043 25.6755 55.7717 26.5828 56.1334C27.4902 56.4951 28.3127 57.0431 28.9981 57.7426L27.9673 59.1C27.4219 58.513 26.7598 58.0483 26.0242 57.7361C25.2885 57.4239 24.4958 57.2712 23.6977 57.288C20.5687 57.288 18.3241 60.2486 18.3241 63.7989C18.3241 67.5948 20.4894 70.3957 23.9234 70.3957C25.4256 70.3785 26.8716 69.8183 27.9978 68.8171V64.8799H23.7282V63.2768H29.5288V69.5849C28.0202 71.1145 25.9726 71.9821 23.8319 71.9988Z" fill="#101306"/>
<path d="M43.7387 71.7299L39.6398 65.5876H35.6264V71.7299H34.0039V55.9135H40.1034C43.2141 55.9135 45.2086 57.7561 45.2086 60.6369C45.2086 63.2781 43.5984 64.8136 41.3721 65.2682L45.7149 71.7299H43.7387ZM39.9631 57.5657H35.6264V63.9783H39.9692C42.0857 63.9783 43.6289 62.7498 43.6289 60.7044C43.5557 58.7389 42.2443 57.5657 39.9631 57.5657Z" fill="#101306"/>
<path d="M51.2707 55.9135V71.7299H49.6543V55.9135H51.2707Z" fill="#101306"/>
<path d="M62.8005 71.9995C58.7199 71.9995 55.7129 68.4063 55.7129 63.8426C55.7129 59.2789 58.7016 55.6426 62.8615 55.6426C63.904 55.6228 64.9377 55.8375 65.8874 56.271C66.8371 56.7046 67.6787 57.346 68.351 58.1487L67.2592 59.4631C66.0393 58.1978 64.734 57.2888 62.8188 57.2888C59.6897 57.2888 57.3293 60.1142 57.3293 63.7996C57.3293 67.485 59.6897 70.3534 62.8188 70.3534C64.7584 70.3534 66.0271 69.5181 67.3812 68.0685L68.4303 69.2232C66.9847 70.8939 65.3683 71.9995 62.8005 71.9995Z" fill="#101306"/>
<path d="M83.7192 64.9733C83.7192 69.5862 81.3587 71.9817 77.821 71.9817C74.2834 71.9817 71.9473 69.5862 71.9473 65.1085V55.895H73.5392V64.9795C73.5392 68.3884 75.1556 70.311 77.8638 70.311C80.4682 70.311 82.1334 68.5481 82.1334 65.09V55.8766H83.7253L83.7192 64.9733Z" fill="#101306"/>
<path d="M88.4238 55.9135H90.0219V70.0837H97.9512V71.7299H88.4238V55.9135Z" fill="#101306"/>
<path d="M105.209 71.7299H103.593V57.5657H98.8477V55.9135H109.955V57.5657H105.209V71.7299Z" fill="#101306"/>
<path d="M125.405 64.9733C125.405 69.5862 123.038 71.9817 119.507 71.9817C115.975 71.9817 113.627 69.5862 113.627 65.1085V55.895H115.225V64.9795C115.225 68.3884 116.841 70.311 119.543 70.311C122.148 70.311 123.813 68.5481 123.813 65.09V55.8766H125.411L125.405 64.9733Z" fill="#101306"/>
<path d="M139.844 71.7299L135.745 65.5876H131.701V71.7299H130.109V55.9135H136.209C139.32 55.9135 141.32 57.7561 141.32 60.6369C141.32 63.2781 139.704 64.8136 137.484 65.2682L141.826 71.7299H139.844ZM136.062 57.5657H131.701V63.9783H136.044C138.167 63.9783 139.704 62.7498 139.704 60.7044C139.679 58.7389 138.35 57.5657 136.062 57.5657Z" fill="#101306"/>
<path d="M155.853 57.5412H147.247V62.9464H154.963V64.5741H147.247V70.1022H155.975V71.7299H145.637V55.9135H155.853V57.5412Z" fill="#101306"/>
<path d="M119.256 14.257V19.5332H126.508V20.4177H119.256V26.2467H118.311V13.3479H127.313V14.2324L119.256 14.257Z" fill="#101306"/>
<path d="M135.788 26.466C131.915 26.466 129.377 23.358 129.377 19.8447V19.8078C129.354 18.9409 129.503 18.0781 129.817 17.2704C130.13 16.4627 130.602 15.7266 131.203 15.1057C131.804 14.4848 132.523 13.9917 133.317 13.6557C134.111 13.3197 134.963 13.1476 135.825 13.1496C139.698 13.1496 142.235 16.2576 142.235 19.7709C142.235 19.7709 142.235 19.7709 142.235 19.8078C142.259 20.6747 142.109 21.5375 141.796 22.3452C141.482 23.1529 141.011 23.889 140.41 24.5099C139.809 25.1308 139.09 25.6239 138.296 25.9599C137.502 26.2959 136.649 26.468 135.788 26.466ZM141.247 19.8078C141.247 16.6261 138.948 14.0156 135.788 14.0156C132.628 14.0156 130.366 16.5892 130.366 19.7709V19.8078C130.366 22.9895 132.665 25.6 135.855 25.6C139.045 25.6 141.278 23.0264 141.278 19.8447L141.247 19.8078Z" fill="#101306"/>
<path d="M154.671 26.2467L150.603 20.9152H146.418V26.2467H145.467V13.3479H150.84C153.597 13.3479 155.403 14.8589 155.403 17.0333V17.0701C155.403 19.2199 153.811 20.4545 151.658 20.7555L155.879 26.2836L154.671 26.2467ZM154.451 17.0701C154.451 15.3441 153.103 14.257 150.792 14.257H146.424V20.0491H150.737C152.872 20.0491 154.457 18.962 154.457 17.107L154.451 17.0701Z" fill="#101306"/>
<path d="M105.43 27.8792C105.43 27.8792 108.48 21.3438 105.022 15.9631C104.176 14.7026 103.122 13.5974 101.905 12.6954C101.631 13.4013 101.406 14.1259 101.234 14.8637C99.5017 22.5538 105.412 27.8669 105.424 27.8792H105.43Z" fill="#98A239"/>
<path d="M101.232 14.8638C101.405 14.126 101.629 13.4015 101.903 12.6956C99.1493 10.738 96.0752 9.28269 92.8213 8.396C92.8213 8.396 91.2964 17.3146 94.7731 22.7076C98.2498 28.1005 105.362 27.9162 105.423 27.9101C105.484 27.9039 99.5002 22.554 101.232 14.8638Z" fill="#DDC72E"/>
<g style="mix-blend-mode:multiply">
<path d="M105.422 27.8879L105.429 27.8806H105.422V27.8879Z" fill="#A9BA19"/>
</g>
<path d="M111.716 0C111.716 0 104.55 5.87204 101.902 12.6961C103.119 13.5981 104.173 14.7033 105.019 15.9638C108.496 21.3445 105.44 27.8553 105.428 27.8799C105.556 27.8185 113.412 24.0717 115.138 16.4306C116.864 8.78963 111.716 0 111.716 0Z" fill="#AFBB38"/>
</svg>
