<svg width="122" height="56" viewBox="0 0 122 56" fill="none" xmlns="http://www.w3.org/2000/svg">
<path d="M1.62561 10.7403V14.8441H7.26474V15.5177H1.62561V20.0515H0.86705V10.0189H7.9088V10.7403H1.62561Z" fill="#1B1B1B"/>
<path d="M14.1785 20.1944C11.7931 20.1944 10.0804 18.6799 10.0804 15.8947V10.028H10.8246V15.8039C10.8246 18.164 12.0937 19.5255 14.2072 19.5255C16.2395 19.5255 17.5467 18.293 17.5467 15.8756V10.028H18.291V15.7896C18.2814 18.6656 16.6069 20.1944 14.1785 20.1944Z" fill="#1B1B1B"/>
<path d="M28.8544 20.0424L21.8127 11.142V20.0424H21.097V10.0098H21.7983L28.697 18.7382V10.0289H29.4078V20.0615L28.8544 20.0424Z" fill="#1B1B1B"/>
<path d="M35.7101 20.0424H32.3705V10.0098H35.7101C38.8398 10.0289 41.0248 12.174 41.0248 15.007V15.0404C41.0248 17.8543 38.8398 20.0424 35.7101 20.0424ZM40.271 15.0404C40.271 12.6517 38.5154 10.7407 35.7292 10.7407H33.1148V19.3401H35.7006C38.4867 19.3401 40.2424 17.4291 40.2424 15.0404H40.271Z" fill="#1B1B1B"/>
<path d="M43.5529 20.0424V10.0098H50.6663V10.7407H44.2972V14.6726H50.0222V15.3605H44.2972V19.3401H50.7378V20.0281L43.5529 20.0424Z" fill="#1B1B1B"/>
<path d="M60.3081 20.0424L57.126 15.8908H53.8675V20.0424H53.1232V10.0098H57.3216C59.478 10.0098 60.8949 11.1803 60.8949 12.8763V12.9049C60.8949 14.577 59.6497 15.5325 57.9656 15.7714L61.267 20.0711L60.3081 20.0424ZM60.1364 12.9049C60.1364 11.5577 59.082 10.7169 57.2739 10.7169H53.8675V15.222H57.2357C58.9103 15.222 60.1507 14.3764 60.1507 12.9336L60.1364 12.9049Z" fill="#1B1B1B"/>
<path d="M66.8405 20.1851C65.339 20.2048 63.891 19.6276 62.8139 18.5799L63.291 18.021C63.7542 18.5035 64.312 18.8849 64.9293 19.1414C65.5467 19.3979 66.2103 19.5239 66.8786 19.5115C68.3767 19.5115 69.4072 18.6659 69.4072 17.5241V17.4955C69.4072 16.4349 68.849 15.8186 66.5781 15.3647C64.1926 14.887 63.2051 14.0605 63.2051 12.546V12.5174C63.2051 11.0316 64.5648 9.88501 66.4206 9.88501C67.6758 9.84287 68.9007 10.2762 69.8509 11.0985L69.3738 11.6957C68.5599 10.9495 67.4904 10.5458 66.3872 10.5682C64.9178 10.5682 63.9446 11.409 63.9446 12.4553V12.4839C63.9446 13.5397 64.4884 14.1847 66.8595 14.672C69.2306 15.1593 70.1419 15.9715 70.1419 17.4333V17.462C70.1514 19.0672 68.7679 20.1851 66.8405 20.1851Z" fill="#1B1B1B"/>
<path d="M8.55781 37.8978L5.35181 33.1204H2.19352V37.8978H0.943558V25.596H5.71439C8.14752 25.596 9.71235 27.0292 9.71235 29.2698C9.71235 31.3289 8.44808 32.5232 6.7115 32.872L10.1083 37.8978H8.55781ZM5.60466 26.8811H2.19352V31.8735H5.59035C7.2506 31.8735 8.45285 30.918 8.45285 29.3224C8.43377 27.7936 7.38895 26.8811 5.60466 26.8811Z" fill="#1B1B1B"/>
<path d="M19.9805 26.862H13.2345V31.0614H19.2792V32.3274H13.2345V36.6271H20.0616V37.8883H11.9894V25.596H19.9805V26.862Z" fill="#1B1B1B"/>
<path d="M27.3237 38.1138C23.8505 38.1138 21.7036 35.2999 21.7036 31.7694C21.7036 28.3726 23.9316 25.3867 27.2473 25.3867C28.01 25.3575 28.7704 25.4877 29.4801 25.769C30.1898 26.0503 30.8332 26.4766 31.3693 27.0206L30.5631 28.0764C30.1331 27.6179 29.6111 27.2557 29.0315 27.0136C28.4518 26.7716 27.8275 26.6551 27.1996 26.6718C24.7522 26.6718 22.9965 28.9746 22.9965 31.7311C22.9965 34.6836 24.6902 36.8621 27.3714 36.8621C28.5479 36.8495 29.6807 36.4137 30.5631 35.6343V32.5767H27.1996V31.3298H31.7653V36.2315C30.5893 37.419 28.9937 38.0952 27.3237 38.1138Z" fill="#1B1B1B"/>
<path d="M42.1791 26.862H35.4427V31.0614H41.4778V32.3274H35.4427V36.6271H42.2698V37.8883H34.1975V25.596H42.1791V26.862Z" fill="#1B1B1B"/>
<path d="M52.5324 25.596H53.749V37.8978H52.7566L45.6004 27.8127V37.8978H44.3981V25.596H45.567L52.5324 35.4566V25.596Z" fill="#1B1B1B"/>
<path d="M64.4902 26.862H57.7442V31.0614H63.7793V32.3274H57.7442V36.6271H64.5665V37.8883H56.4895V25.596H64.4854L64.4902 26.862Z" fill="#1B1B1B"/>
<path d="M74.3153 37.8978L71.1093 33.1204H67.9415V37.8978H66.701V25.596H71.4719C73.905 25.596 75.4651 27.0292 75.4651 29.2698C75.4651 31.3289 74.2008 32.5232 72.4642 32.872L75.861 37.8978H74.3153ZM71.3621 26.8811H67.9415V31.8735H71.3383C72.9938 31.8735 74.2008 30.918 74.2008 29.3224C74.1865 27.7936 73.1464 26.8811 71.3621 26.8811Z" fill="#1B1B1B"/>
<path d="M88.0408 37.9H86.7002L85.4026 34.6514H79.3913L78.0793 37.9H76.796L81.8388 25.5121H83.0076L88.0408 37.9ZM82.4017 27.1269L79.8684 33.4045H84.9064L82.4017 27.1269Z" fill="#1B1B1B"/>
<path d="M92.6065 37.8978H91.3422V26.8811H87.6305V25.596H96.3182V26.8811H92.6065V37.8978Z" fill="#1B1B1B"/>
<path d="M99.6348 25.596V37.8978H98.3848V25.596H99.6348Z" fill="#1B1B1B"/>
<path d="M110.816 25.5987H112.156L107.405 37.9722H106.298L101.527 25.5796H102.92L106.851 36.1807L110.816 25.5987Z" fill="#1B1B1B"/>
<path d="M121.939 26.862H115.173V31.0614H121.209V32.3274H115.173V36.6271H121.996V37.8883H113.943V25.596H121.939V26.862Z" fill="#1B1B1B"/>
<path d="M11.2449 55.7904H9.90425L8.60658 52.5417H2.58102L1.26904 55.7904H0L5.038 43.4025H6.20685L11.2449 55.7904ZM5.60573 45.0173L3.0581 51.2901H8.11996L5.60573 45.0173Z" fill="#1B1B1B"/>
<path d="M18.6379 55.9994C15.1599 55.9994 13.0131 53.1902 13.0131 49.655C13.0131 46.263 15.241 43.2771 18.5568 43.2771C19.3195 43.2479 20.0799 43.3781 20.7896 43.6594C21.4993 43.9407 22.1427 44.3669 22.6788 44.911L21.8725 45.9668C21.4459 45.5102 20.928 45.1488 20.3526 44.9059C19.7772 44.6631 19.1572 44.5444 18.5329 44.5574C16.0855 44.5574 14.3298 46.8602 14.3298 49.6215C14.3298 52.574 16.0235 54.7525 18.7094 54.7525C19.8844 54.7391 21.0154 54.3034 21.8964 53.5247V50.4623H18.5568V49.2154H23.0938V54.1218C21.9138 55.3115 20.3123 55.9863 18.6379 55.9994Z" fill="#1B1B1B"/>
<path d="M34.2123 55.7901L31.0063 51.0127H27.8671V55.7901H26.5981V43.4882H31.3689C33.802 43.4882 35.3621 44.9214 35.3621 47.1621C35.3621 49.2164 34.1026 50.4107 32.3612 50.7642L35.7581 55.7901H34.2123ZM31.2592 44.7733H27.8671V49.761H31.264C32.9194 49.761 34.1265 48.8055 34.1265 47.2146C34.0692 45.6858 33.0435 44.7733 31.2592 44.7733Z" fill="#1B1B1B"/>
<path d="M40.1049 43.4882V55.7901H38.8406V43.4882H40.1049Z" fill="#1B1B1B"/>
<path d="M49.1203 56C45.9286 56 43.5766 53.2052 43.5766 49.6556C43.5766 46.1059 45.9143 43.2777 49.168 43.2777C49.9835 43.2623 50.792 43.4293 51.5349 43.7665C52.2777 44.1037 52.936 44.6026 53.4618 45.2269L52.6078 46.2493C51.6536 45.2651 50.6327 44.5581 49.1346 44.5581C46.6872 44.5581 44.8409 46.7557 44.8409 49.6221C44.8409 52.4886 46.6872 54.7196 49.1346 54.7196C50.6518 54.7196 51.6441 54.0699 52.7032 52.9424L53.5238 53.8406C52.3931 55.1401 51.1289 56 49.1203 56Z" fill="#1B1B1B"/>
<path d="M65.4841 50.5362C65.4841 54.1241 63.6378 55.9873 60.8707 55.9873C58.1036 55.9873 56.2764 54.1241 56.2764 50.6413V43.4752H57.5216V50.541C57.5216 53.1925 58.7858 54.6878 60.9041 54.6878C62.9412 54.6878 64.2437 53.3167 64.2437 50.627V43.4609H65.4889L65.4841 50.5362Z" fill="#1B1B1B"/>
<path d="M69.1637 43.4882H70.4137V54.5097H76.6158V55.7901H69.1637V43.4882Z" fill="#1B1B1B"/>
<path d="M82.2929 55.7901H81.0287V44.7733H77.3169V43.4882H86.0046V44.7733H82.2929V55.7901Z" fill="#1B1B1B"/>
<path d="M98.0889 50.5362C98.0889 54.1241 96.2378 55.9873 93.4755 55.9873C90.7132 55.9873 88.8764 54.1241 88.8764 50.6413V43.4752H90.1264V50.541C90.1264 53.1925 91.3906 54.6878 93.5041 54.6878C95.5413 54.6878 96.8437 53.3167 96.8437 50.627V43.4609H98.0937L98.0889 50.5362Z" fill="#1B1B1B"/>
<path d="M109.38 55.7901L106.174 51.0127H103.011V55.7901H101.766V43.4882H106.536C108.97 43.4882 110.534 44.9214 110.534 47.1621C110.534 49.2164 109.27 50.4107 107.534 50.7642L110.93 55.7901H109.38ZM106.422 44.7733H103.011V49.761H106.408C108.068 49.761 109.27 48.8055 109.27 47.2146C109.251 45.6858 108.211 44.7733 106.422 44.7733Z" fill="#1B1B1B"/>
<path d="M121.905 44.7542H115.173V48.9584H121.208V50.2244H115.173V54.5241H122V55.7901H113.913V43.4882H121.905V44.7542Z" fill="#1B1B1B"/>
<path d="M93.2808 11.0887V15.1926H98.9534V15.8805H93.2808V20.4143H92.5414V10.3817H99.5831V11.0696L93.2808 11.0887Z" fill="#1B1B1B"/>
<path d="M106.206 20.586C103.177 20.586 101.192 18.1686 101.192 15.436V15.4073C101.173 14.733 101.29 14.0619 101.535 13.4337C101.781 12.8055 102.149 12.2329 102.62 11.75C103.09 11.2671 103.652 10.8836 104.273 10.6222C104.894 10.3609 105.561 10.227 106.235 10.2286C109.264 10.2286 111.249 12.6459 111.249 15.3786C111.249 15.3786 111.249 15.3786 111.249 15.4073C111.267 16.0815 111.151 16.7527 110.905 17.3809C110.66 18.0091 110.291 18.5816 109.821 19.0646C109.351 19.5475 108.789 19.931 108.168 20.1923C107.547 20.4537 106.88 20.5875 106.206 20.586ZM110.476 15.4073C110.476 12.9326 108.677 10.9022 106.206 10.9022C103.735 10.9022 101.965 12.9039 101.965 15.3786V15.4073C101.965 17.882 103.763 19.9124 106.259 19.9124C108.754 19.9124 110.5 17.9107 110.5 15.436L110.476 15.4073Z" fill="#1B1B1B"/>
<path d="M120.98 20.4143L117.798 16.2675H114.525V20.4143H113.78V10.3817H117.984C120.14 10.3817 121.552 11.5569 121.552 13.2481V13.2768C121.552 14.9489 120.307 15.9092 118.623 16.1433L121.924 20.4429L120.98 20.4143ZM120.808 13.2768C120.808 11.9343 119.754 11.0887 117.945 11.0887H114.529V15.5939H117.902C119.572 15.5939 120.813 14.7483 120.813 13.3055L120.808 13.2768Z" fill="#1B1B1B"/>
<path opacity="0.9" d="M82.4637 21.6847C82.4637 21.6847 84.8491 16.6015 82.144 12.4165C81.4823 11.4361 80.6578 10.5764 79.7061 9.87491C79.4916 10.4239 79.3162 10.9875 79.1813 11.5613C77.8264 17.5427 82.4494 21.6751 82.4589 21.6847H82.4637Z" fill="#1B1B1B"/>
<path opacity="0.3" d="M79.1818 11.5622C79.3166 10.9884 79.492 10.4248 79.7065 9.87581C77.5524 8.35321 75.148 7.22128 72.6028 6.53162C72.6028 6.53162 71.4101 13.4684 74.1294 17.663C76.8488 21.8576 82.4116 21.7143 82.4593 21.7095C82.507 21.7047 77.8268 17.5436 79.1818 11.5622Z" fill="#1B1B1B"/>
<g style="mix-blend-mode:multiply">
<path d="M82.4573 21.6924L82.464 21.6858H82.4573V21.6924Z" fill="black" fill-opacity="0.74"/>
</g>
<path opacity="0.5" d="M87.3831 0C87.3831 0 81.7773 4.56722 79.7068 9.87494C80.6585 10.5765 81.483 11.4361 82.1447 12.4165C84.8641 16.6016 82.4739 21.6656 82.4643 21.6847C82.5645 21.637 88.7094 18.7227 90.0595 12.7796C91.4097 6.8365 87.3831 0 87.3831 0Z" fill="#1B1B1B"/>
</svg>
